<?xml version="1.0" encoding="UTF-8" standalone="no"?>
<!-- Created with Inkscape (http://www.inkscape.org/) -->

<svg
   xmlns:dc="http://purl.org/dc/elements/1.1/"
   xmlns:cc="http://creativecommons.org/ns#"
   xmlns:rdf="http://www.w3.org/1999/02/22-rdf-syntax-ns#"
   xmlns:svg="http://www.w3.org/2000/svg"
   xmlns="http://www.w3.org/2000/svg"
   xmlns:xlink="http://www.w3.org/1999/xlink"
   xmlns:sodipodi="http://sodipodi.sourceforge.net/DTD/sodipodi-0.dtd"
   xmlns:inkscape="http://www.inkscape.org/namespaces/inkscape"
   version="1.0"
   width="1734.6703"
   height="1164.9562"
   viewBox="0 0 1734.6703 1165.1091"
   id="svg2"
   xml:space="preserve"
   sodipodi:docname="Alveoli.svg"
   inkscape:version="0.92.4 (5da689c313, 2019-01-14)"><metadata
   id="metadata78"><rdf:RDF><cc:Work
       rdf:about=""><dc:format>image/svg+xml</dc:format><dc:type
         rdf:resource="http://purl.org/dc/dcmitype/StillImage" /><dc:title></dc:title></cc:Work></rdf:RDF></metadata><sodipodi:namedview
   pagecolor="#ffffff"
   bordercolor="#666666"
   borderopacity="1"
   objecttolerance="10"
   gridtolerance="10"
   guidetolerance="10"
   inkscape:pageopacity="0"
   inkscape:pageshadow="2"
   inkscape:window-width="1576"
   inkscape:window-height="944"
   id="namedview76"
   showgrid="false"
   fit-margin-top="0"
   fit-margin-left="0"
   fit-margin-right="0"
   fit-margin-bottom="0"
   inkscape:zoom="0.62008734"
   inkscape:cx="601.27719"
   inkscape:cy="507.41106"
   inkscape:window-x="0"
   inkscape:window-y="0"
   inkscape:window-maximized="0"
   inkscape:current-layer="svg2" />
 <defs
   id="defs4">
  <style
   type="text/css"
   id="style6" />
 </defs>
 
<g
   id="Layer_x0020_1"
   transform="translate(-15.85925,-39.020694)">
  
  <g
   id="_41067024">
   <polygon
   points="143.556,151.83 143.159,65.054 126.012,65.054 117.438,65.054 116.854,152.555 68.5132,139.217 132.978,229.638 181.741,150.791 191.798,134.57 "
   style="fill:#0d0d0d"
   id="_41163224" />
   <path
   d="m 129.205,258.141 31.6267,-4.54967 3.84672,30.619 -30.619,3.84672 -4.85447,-29.916 z m -7.48078,-17.3256 c -4.45633,8.42238 -8.5736,12.6424 -8.5736,25.722 v 8.5736 c 0,20.3122 17.4213,34.2944 34.2956,34.2944 23.9085,0 46.9203,-29.4151 34.2944,-55.729 -5.70628,-6.56518 -18.4444,-21.4346 -30.0082,-21.4346 -15.5735,0 -15.036,5.08603 -30.0082,8.5736 z"
   style="fill:#4805c8"
   id="_103617584"
   inkscape:connector-curvature="0" />
   <polygon
   points="160.832,253.592 129.205,258.141 134.06,288.057 164.679,284.211 "
   style="fill:#2f098d"
   id="_41510848" />
   <path
   d="m 108.864,339.414 c 0,19.8751 24.4141,47.1566 42.8692,47.1566 7.01648,0 12.861,-2.56724 12.861,-8.57478 0,-19.8739 -24.413,-47.1554 -42.8692,-47.1554 -7.01648,0 -12.861,2.56724 -12.861,8.5736 z"
   style="fill:#5106d4"
   id="_41029712"
   inkscape:connector-curvature="0" />
   <path
   d="m 121.725,459.447 -30.0082,-8.5736 v -12.861 c 0,-16.2647 16.5565,-18.3003 30.0082,-21.4334 v 12.8598 h 8.5736 v 17.1484 H 121.725 Z M 70.2822,429.4388 v 17.1484 c 9.99249,11.4953 16.3037,30.0082 38.5818,30.0082 28.2739,0 34.2956,-20.9762 34.2956,-51.4428 -7.03657,-13.2993 -9.35688,-21.4346 -30.0082,-21.4346 h -8.5736 c -23.1914,0 -23.866,13.7222 -34.2956,25.7208 z m 51.4428,17.1484 h 8.5736 V 429.4388 H 121.725 V 416.579 c -13.4517,3.13314 -30.0082,5.16873 -30.0082,21.4334 v 12.861 l 30.0082,8.5736 z"
   style="fill:#4805c8"
   id="_103617680"
   inkscape:connector-curvature="0" />
   
   <path
   d="m 126.012,515.177 c 33.7864,0 41.7823,-9.18085 55.729,-30.0082 l -4.28621,-17.1484 c -29.7081,0 -39.3426,11.9383 -51.4428,30.0082 v 17.1484 z"
   style="fill:#5106d4"
   id="_103027400"
   inkscape:connector-curvature="0" />
   
   
   
   
   
   
   
   <path
   d="m 186.028,605.201 c -16.7573,-1.39526 -13.0217,2.59323 -17.0314,-12.2549 l 12.744,-4.89346 c -9.45376,-5.00215 -17.1472,-3.73921 -17.1472,-17.1472 v -21.4346 h 12.861 c 11.578,0 11.819,2.04741 21.4334,4.28739 h 8.57478 c -3.51946,-13.18 -8.33968,-17.1484 -25.722,-17.1484 h -8.5736 c -20.3134,0 -34.2956,17.4225 -34.2956,34.2956 0,20.0783 18.0545,30.5765 30.0082,38.5818 l 17.1484,-4.28621 z m -4.28739,-17.1484 -12.744,4.89346 c 4.00976,14.8481 0.27409,10.8597 17.0314,12.2549 14.4181,-3.35997 30.0082,-15.14 30.0082,-30.0082 0,-13.9869 -2.21635,-14.1204 -8.5736,-21.4346 h -8.57478 c 0,26.4509 6.68214,32.312 -17.1472,34.2944 z"
   style="fill:#8b0cb5"
   id="_41656984"
   inkscape:connector-curvature="0" />
   <path
   d="m 181.741,588.053 c 23.8293,-1.98243 17.1472,-7.84348 17.1472,-34.2944 -9.61444,-2.23998 -9.85545,-4.28739 -21.4334,-4.28739 h -12.861 v 21.4346 c 0,13.408 7.69344,12.145 17.1472,17.1472 z"
   style="fill:#6b0692"
   id="_39928576"
   inkscape:connector-curvature="0" />
   
   
   
   <path
   d="m 203.176,682.365 16.1454,1.06565 13.8628,-56.7958 c -4.923,-6.71876 -0.78801,-8.5736 -12.861,-8.5736 -17.5064,0 -25.7208,28.5007 -25.7208,47.1554 0,9.60026 4.91709,12.9413 8.5736,17.1484 z"
   style="fill:#b608e8"
   id="_103582432"
   inkscape:connector-curvature="0" />
   <path
   d="m 134.586,746.668 0.0307,-8.05732 29.9775,-4.80249 c -15.8086,0 -30.0082,3.79001 -30.0082,-12.861 v -8.5736 c 0,-11.5709 11.4126,-17.1484 21.4346,-17.1484 2.72791,0 12.3695,9.66169 17.1472,12.861 l -8.5736,-17.1472 h 12.861 l -12.861,-8.5736 c -30.4666,0 -51.4428,6.02054 -51.4428,34.2944 0,14.1357 9.10879,26.7179 21.4346,30.0082 z m 38.5818,-38.5818 v 12.861 l -8.5736,12.861 -29.9775,4.80249 -0.0307,8.05732 c 31.8784,20.2272 45.6963,-9.89089 55.729,-21.4346 l -12.8598,-34.2944 h -12.861 l 8.5736,17.1472 z"
   style="fill:#8b0cb5"
   id="_103583080"
   inkscape:connector-curvature="0" />
   <path
   d="m 164.594,733.808 8.5736,-12.861 v -12.861 c -4.77768,-3.1993 -14.4193,-12.861 -17.1472,-12.861 -10.022,0 -21.4346,5.57751 -21.4346,17.1484 v 8.5736 c 0,16.651 14.1995,12.861 30.0082,12.861 z"
   style="fill:#6b0692"
   id="_103583208"
   inkscape:connector-curvature="0" />
   <path
   d="m 306.061,755.241 c 6.26864,0 6.28872,-5.28569 8.76972,-9.32499 l -17.3433,-3.53482 c 1.5394,6.43168 0.9416,12.8598 8.5736,12.8598 z"
   style="fill:#f2f2f2"
   id="_103583520"
   inkscape:connector-curvature="0" />
   <path
   d="m 361.79,793.824 c -6.80264,-9.286 -14.8505,-15.8866 -30.0082,-17.1484 4.48705,16.8046 15.0478,24.0668 30.0082,17.1484 z"
   style="fill:#e8e8e8"
   id="_103415472"
   inkscape:connector-curvature="0" />
   <path
   d="m 143.159,806.684 c 0,3.81482 4.75996,8.5736 8.5736,8.5736 35.1675,0 60.854,-55.729 38.5818,-55.729 -22.5345,0 -47.1554,28.5007 -47.1554,47.1554 z"
   style="fill:#b608e8"
   id="_103261168"
   inkscape:connector-curvature="0" />
   
   
   <path
   d="m 1394.93,823.831 4.2862,21.4346 h 21.4346 c 9.8779,0 12.861,-2.9831 12.861,-12.8598 v -17.1484 c -9.6144,-2.23998 -9.8566,-4.28621 -21.4346,-4.28621 -10.7061,0 -13.4505,6.03117 -17.1472,12.8598 z"
   style="fill:#860104"
   id="_40057776"
   inkscape:connector-curvature="0" />
   <path
   d="m 207.463,828.119 -1e-5,10e-6 c 0,-30.5918 -0.3946,-51.4428 30.0082,-51.4428 h 4.28621 c 14.7796,0 16.599,3.17094 32.1518,10.71789 4.38357,16.04371 6.4298,16.28591 6.4298,27.86391 0,11.565 -14.86824,24.30192 -21.4346,30.0082 L 233.323,850.50583 211.749,840.98"
   style="fill:#d80855"
   id="_103411312"
   inkscape:connector-curvature="0" />
   <path
   d="m 1322.05,858.127 v -4.28739 -12.8598 c -17.0302,-11.4043 -16.7479,-21.4346 -47.1554,-21.4346 h -4.2874 c -7.0165,0 -12.8598,2.56605 -12.8598,8.5736 0,25.4314 35.8078,30.0082 64.3026,30.0082 z"
   style="fill:#cd141b"
   id="_103926912"
   inkscape:connector-curvature="0" />
   <path
   d="m 679.019,819.545 c -19.6873,0 -116.615,31.8855 -124.319,38.5818 l 372.762,36.1351 C 907.6696,879.7386 714.849,819.5451 679.019,819.5451 Z"
   style="fill:#f3f4f3"
   id="_39930848"
   inkscape:connector-curvature="0" />
   
   <path
   d="m 1433.51,832.406 c 0,9.87671 -2.9831,12.8598 -12.861,12.8598 h -21.4346 l -4.2862,-21.4346 c 3.6967,-6.82864 6.4411,-12.8598 17.1472,-12.8598 11.578,0 11.8202,2.04623 21.4346,4.28621 v 17.1484 z m -55.729,-21.4346 -4.2874,25.7208 c 10.4296,11.9986 11.1042,25.722 34.2956,25.722 h 8.5736 c 20.0122,0 30.0082,-9.99604 30.0082,-30.0082 v -8.57478 c 0,-20.0122 -9.996,-30.007 -30.0082,-30.007 h -8.5736 c -17.8868,0 -21.9308,7.85411 -30.0082,17.1472 z"
   style="fill:#cd141b"
   id="_40732128"
   inkscape:connector-curvature="0" />
   <path
   d="m 1257.75,931.004 c -11.5791,0 -11.8202,-2.04741 -21.4346,-4.28739 v -12.861 c 0,-11.578 2.0462,-11.819 4.2862,-21.4334 h 17.1484 c 11.5709,0 17.1472,11.4126 17.1472,21.4334 0,10.035 -7.1133,17.1484 -17.1472,17.1484 z m -38.583,-34.2956 c 0,42.2903 -0.534,51.4428 42.8692,51.4428 14.4181,-3.35879 30.0082,-15.1388 30.0082,-30.0082 0,-20.734 -12.1746,-38.5818 -34.2944,-38.5818 h -8.5748 c -17.8856,0 -21.9296,7.85411 -30.0082,17.1472 z"
   style="fill:#cd141b"
   id="_40244096"
   inkscape:connector-curvature="0" />
   <polygon
   points="1557.83,888.135 1626.42,888.135 1608.36,939.234 1702.05,877.372 1706.91,874.925 1610.13,805.487 1626.11,858.238 1536.4,858.127 1536.4,888.135 "
   style="fill:#0d0d0d"
   id="_41944632" />
   <path
   d="m 336.069,918.143 c 0,9.81882 1.45315,4.98443 4.28621,17.1472 23.801,-1.98007 42.8692,-25.7645 42.8692,-47.1554 0,-9.81882 -1.45315,-4.98443 -4.28739,-17.1472 -24.5063,2.03914 -42.868,23.8707 -42.868,47.1554 z"
   style="fill:#d80855"
   id="_40559688"
   inkscape:connector-curvature="0" />
   
   <path
   d="m 520.405,909.57 v 4.28621 c 0,10.035 7.11336,17.1484 17.1484,17.1484 h 4.28621 c 8.28061,0 17.1472,-7.64382 17.1472,-12.861 0,-9.99604 -11.4374,-21.4346 -21.4334,-21.4346 h -4.28739 c -9.87789,0 -12.861,2.9831 -12.861,12.861 z"
   style="fill:#8e0531"
   id="_38665072"
   inkscape:connector-curvature="0" />
   <path
   d="m 1334.91,896.709 -8.5736,42.8692 4.2862,8.5736 c 25.4042,-0.5659 34.2956,-18.8213 34.2956,-42.8692 0,-11.578 -2.0474,-11.8202 -5.5952,-24.2168 z"
   style="fill:#cd141b"
   id="_40732016"
   inkscape:connector-curvature="0" />
   <path
   d="m 1459.23,896.709 c 0,13.6514 21.8445,30.0082 38.583,30.0082 h 12.8598 c 7.0165,0 12.861,-2.56605 12.861,-8.5736 0,-13.6514 -21.8434,-30.0082 -38.5818,-30.0082 h -12.861 c -7.0165,0 -12.861,2.56605 -12.861,8.5736 z"
   style="fill:#cd141b"
   id="_40136880"
   inkscape:connector-curvature="0" />
   <path
   d="m 1257.75,931.004 c 10.0338,0 17.1472,-7.11336 17.1472,-17.1484 0,-10.0208 -5.5763,-21.4334 -17.1472,-21.4334 h -17.1484 c -2.24,9.61444 -4.2862,9.85545 -4.2862,21.4334 v 12.861 c 9.6144,2.23998 9.8554,4.28739 21.4346,4.28739 z"
   style="fill:#860104"
   id="_39795656"
   inkscape:connector-curvature="0" />
   <path
   d="m 623.29,909.57 c 7.378,27.6335 55.3769,34.7079 74.7027,4.82848 l -36.1209,-17.6895 -38.5818,12.861 z"
   style="fill:#d80855"
   id="_39307736"
   inkscape:connector-curvature="0" />
   <path
   d="m 1047.69,922.43 13.6596,23.9416 3.4876,-2.50816 v 17.1484 l 8.5736,4.28621 v -12.861 c 12.7866,-1.06328 21.4346,-3.08116 21.4346,-17.1472 v -4.28621 c 0,-11.5721 -11.4126,-17.1484 -21.4346,-17.1484 -16.781,0 -0.4726,6.47303 -25.7208,8.57478 z"
   style="fill:#780106"
   id="_40124048"
   inkscape:connector-curvature="0" />
   <path
   d="m 263.192,952.438 4.28739,4.28739 c 11.2271,-5.3873 25.7208,-4.9289 25.7208,-21.4346 0,-9.61089 -3.39305,-9.41005 -8.5736,-17.1472 h -8.5736 c -12.1025,1.00657 -17.1484,-0.10042 -17.1484,12.861 0,11.578 2.04741,11.819 4.28739,21.4334 z"
   style="fill:#8d034b"
   id="_40473400"
   inkscape:connector-curvature="0" />
   <path
   d="m 541.839,931.004 h -4.28621 c -10.035,0 -17.1484,-7.11336 -17.1484,-17.1484 v -4.28621 c 0,-9.87789 2.9831,-12.861 12.861,-12.861 h 4.28739 c 9.99604,0 21.4334,11.4386 21.4334,21.4346 0,5.21717 -8.86659,12.861 -17.1472,12.861 z m 4.28739,17.1472 c 14.4181,-3.35879 30.0082,-15.1388 30.0082,-30.0082 v -8.5736 c 0,-9.61207 -3.39305,-9.41123 -8.5736,-17.1472 -5.3424,-7.29057 -18.0628,-17.1484 -30.0082,-17.1484 -16.8743,0 -34.2956,13.9822 -34.2956,34.2956 v 8.5736 c 0,26.7463 15.6551,30.0082 42.8692,30.0082 z"
   style="fill:#d80855"
   id="_39732184"
   inkscape:connector-curvature="0" />
   <path
   d="m 267.479,900.996 8.5736,17.1472 h 8.5736 c 5.18055,7.73715 8.5736,7.53631 8.5736,17.1472 0,16.5057 -14.4937,16.0473 -25.7208,21.4346 l -4.28739,-4.28739 h -12.861 l 4.28739,12.861 c 4.20705,3.65651 7.54812,8.5736 17.1472,8.5736 15.3101,0 38.5818,-19.4722 38.5818,-34.2944 v -8.5736 c 0,-20.3926 -25.722,-26.8821 -34.2944,-38.5818 l -8.5736,8.5736 z m -30.0082,17.1472 c -2.83424,12.1628 -4.28739,7.32838 -4.28739,17.1472 0,14.1357 9.10879,26.7179 21.4346,30.0082 l -4.28739,-12.861 h 12.861 c -2.23998,-9.61444 -4.28739,-9.85545 -4.28739,-21.4334 0,-12.9614 5.04587,-11.8544 17.1484,-12.861 l -8.5736,-17.1472 -30.0082,17.1472 z"
   style="fill:#d80855"
   id="_40057816"
   inkscape:connector-curvature="0" />
   <path
   d="m 400.372,982.446 c -2.9382,-5.22899 -4.28621,-4.58511 -4.28621,-12.8598 v -12.861 l 31.0384,0.20675 -5.31759,25.5141 8.5736,-4.28621 v -8.5736 -8.5736 c 0,-10.035 -7.11218,-17.1484 -17.1472,-17.1484 -11.578,0 -11.8202,2.04741 -21.4346,4.28739 v 34.2944 h 8.5736 z m 0,0 h 21.4346 l 5.31759,-25.5141 -31.0384,-0.20675 v 12.861 c 0,8.2747 1.34801,7.63082 4.28621,12.8598 z"
   style="fill:#8d034b"
   id="_39898912"
   inkscape:connector-curvature="0" />
   <path
   d="m 721.888,961.012 4.28739,25.7208 h 17.1472 v -4.28739 h -8.5736 l 2.35104,-34.7469 1.93517,13.3135 c 20.1256,-14.7454 -3.78174,-10.1024 21.4346,-12.861 v 12.861 c 4.79422,-6.89952 8.5736,-13.5297 8.5736,-25.722 0,-1.17552 -2.95356,-7.83285 -4.28621,-12.8598 -30.4217,0.67696 -30.4453,20.7021 -42.8692,38.5818 z m 21.4346,21.4334 16.4868,-13.5911 0.66042,-7.8423 v -12.861 c -25.2163,2.75863 -1.30902,-1.88437 -21.4346,12.861 l -1.93517,-13.3135 -2.35104,34.7469 h 8.5736 z"
   style="fill:#d80855"
   id="_40543088"
   inkscape:connector-curvature="0" />
   <path
   d="m 816.2,956.725 c 0,13.1623 3.96841,25.7208 17.1472,25.7208 h 4.28739 c 9.87671,0 12.8598,-2.98192 12.8598,-12.8598 v -25.722 h -21.4346 c -9.87671,0 -12.8598,2.9831 -12.8598,12.861 z"
   style="fill:#8e0531"
   id="_40056504"
   inkscape:connector-curvature="0" />
   <path
   d="m 1039.12,913.856 8.5748,8.57478 c 25.2482,-2.10175 8.9398,-8.57478 25.7208,-8.57478 10.022,0 21.4346,5.57633 21.4346,17.1484 v 4.28621 c 0,14.066 -8.6481,16.0839 -21.4346,17.1472 v 12.861 l 4.2874,4.28739 c 20.3051,-1.68944 34.2944,-15.4956 34.2944,-34.2956 0,-17.9246 -20.6572,-38.5818 -38.5818,-38.5818 -10.1839,0 -27.4126,12.5385 -34.2956,17.1472 z"
   style="fill:#cc1125"
   id="_103505168"
   inkscape:connector-curvature="0" />
   <path
   d="m 970.527,973.872 c 17.6682,0 34.2956,5.25143 34.2956,-12.8598 0,-19.0351 -34.7244,-25.722 -60.0164,-25.722 -14.5552,19.243 14.5339,30.808 25.7208,38.5818 z"
   style="fill:#cd141b"
   id="_39725256"
   inkscape:connector-curvature="0" />
   <path
   d="m 850.495,969.586 c 0,9.87789 -2.9831,12.8598 -12.8598,12.8598 h -4.28739 c -13.1788,0 -17.1472,-12.5585 -17.1472,-25.7208 0,-9.87789 2.9831,-12.861 12.8598,-12.861 h 21.4346 v 25.722 z m -12.8598,25.7208 c 23.2244,0 34.2944,-15.8181 34.2944,-38.5818 0,-12.4144 -15.4188,-30.0082 -34.2944,-30.0082 h -8.57478 c -20.0122,0 -30.0082,9.99604 -30.0082,30.0082 v 8.5736 c 0,16.4454 12.3719,30.0082 25.722,30.0082 h 12.861 z"
   style="fill:#d80855"
   id="_38231784"
   inkscape:connector-curvature="0" />
   <path
   d="m 421.806,982.446 h -21.4346 -8.5736 v -34.2944 c 9.61444,-2.23998 9.85663,-4.28739 21.4346,-4.28739 10.035,0 17.1472,7.11336 17.1472,17.1484 v 8.5736 8.5736 l -8.5736,4.28621 z m -51.4428,-17.1472 c 0,17.9246 20.6572,38.5818 38.5818,38.5818 15.3101,0 38.583,-19.4722 38.583,-34.2944 v -21.4346 c -12.3211,-4.45988 -20.4197,-21.4346 -34.2956,-21.4346 -21.8126,0 -42.8692,18.5247 -42.8692,38.5818 z"
   style="fill:#d80855"
   id="_40713176"
   inkscape:connector-curvature="0" />
   <path
   d="m 636.151,1016.74 c 0,-11.5709 11.4126,-17.1472 21.4346,-17.1472 10.0338,0 17.1472,7.1122 17.1472,17.1472 v 12.861 c -17.0302,1.4165 -10.3257,4.2862 -21.4346,4.2862 -9.81882,0 -4.98443,-1.4531 -17.1472,-4.2862 z m -8.5736,30.0082 12.8598,8.5736 h 38.5818 l -9.30608,-7.3886 c 13.0583,-4.4764 22.1671,-17.0574 22.1671,-31.1932 0,-16.87313 -13.9822,-34.29563 -34.2944,-34.29563 h -8.57478 c -20.0122,0 -30.0082,9.99604 -30.0082,30.00823 v 8.5748 c 0,13.0795 4.11727,17.2984 8.57478,25.7207 z"
   style="fill:#ce0a52"
   id="_102886616"
   inkscape:connector-curvature="0" />
   <path
   d="m 1133.43,1016.74 c 18.4562,0 42.8692,-27.2815 42.8692,-47.1554 0,-6.00755 -5.8445,-8.5736 -12.861,-8.5736 -18.4562,0 -42.8692,27.2803 -42.8692,47.1554 0,6.0076 5.8445,8.5736 12.861,8.5736 z"
   style="fill:#cd141b"
   id="_103945616"
   inkscape:connector-curvature="0" />
   <path
   d="m 554.7,978.159 21.4346,47.1554 21.2148,5.1616 c 3.0528,-13.037 4.50595,-8.2026 4.50595,-18.0226 0,-21.38966 -19.0682,-45.17406 -42.8692,-47.15536 l -4.28621,12.861 z"
   style="fill:#d80855"
   id="_102967400"
   inkscape:connector-curvature="0" />
   <path
   d="m 653.298,1033.89 c 11.1089,0 4.40435,-2.8697 21.4346,-4.2862 v -12.861 c 0,-10.035 -7.11336,-17.14721 -17.1472,-17.14721 -10.022,0 -21.4346,5.57631 -21.4346,17.14721 v 12.861 c 12.1628,2.833 7.32838,4.2862 17.1472,4.2862 z"
   style="fill:#8e0531"
   id="_103137832"
   inkscape:connector-curvature="0" />
   
   <path
   d="m 841.921,1068.18 c 26.445,-2.201 42.8692,-24.4602 42.8692,-51.4428 0,-1.1755 -2.95356,-7.8329 -4.28739,-12.861 -25.52,2.1242 -42.868,26.0788 -42.868,51.4428 0,1.1755 2.95356,7.8328 4.28621,12.861 z"
   style="fill:#d80855"
   id="_38621616"
   inkscape:connector-curvature="0" />
   <path
   d="m 979.101,1076.76 h -4.28621 c -10.035,0 -17.1472,-7.1134 -17.1472,-17.1472 v -4.2874 c 0,-9.8779 2.98192,-12.861 12.8598,-12.861 h 8.5736 c 9.61207,0 9.41123,3.3931 17.1484,8.5748 -6.80146,14.1736 0.0189,25.7208 -17.1484,25.7208 z m -42.868,-17.1472 c 0,17.9246 20.6572,38.5818 38.5818,38.5818 17.9246,0 38.5818,-20.6572 38.5818,-38.5818 0,-17.9258 -20.6572,-38.5818 -38.5818,-38.5818 -17.9246,0 -38.5818,20.656 -38.5818,38.5818 z"
   style="fill:#cc1125"
   id="_40498528"
   inkscape:connector-curvature="0" />
   <path
   d="m 979.101,1076.76 c 17.1673,0 10.3469,-11.5472 17.1484,-25.7208 -7.73715,-5.1817 -7.53631,-8.5748 -17.1484,-8.5748 h -8.5736 c -9.87789,0 -12.8598,2.9831 -12.8598,12.861 v 4.2874 c 0,10.0338 7.11218,17.1472 17.1472,17.1472 h 4.28621 z"
   style="fill:#860104"
   id="_40056584"
   inkscape:connector-curvature="0" />
   
   
   
   
   
   
   
   
   
   
   
   
   
   
   
   
   
   
   
   
   
   
   
   
   
  </g>
 </g><path
   d="m 487.62241,129.00212 c 35.38245,199.12866 33.72504,214.30564 -95.16044,335.73458 -129.58113,122.12808 -172.45733,216.34902 -85.53747,288.68897 84.48475,70.31331 210.68069,67.25851 260.50014,47.30505 48.29527,-19.34301 80.5818,-29.74037 113.39834,-26.5955 32.81654,3.14486 86.6868,20.05891 147.38349,43.44356 80.27979,30.92945 143.14554,44.28083 203.02173,27.17334 59.8762,-17.1075 118.2404,-46.70097 109.6866,-149.06424 -9.3098,-104.63143 -83.9336,-236.29727 -107.4564,-289.75819 -23.5228,-53.46093 -34.74955,-131.51386 -72.17223,-145.94831 -45.58418,-17.58247 -149.39824,15.69606 -192.45932,8.01913 -45.65686,-8.1397 -72.64308,-64.34442 -81.2606,-128.3062"
   style="fill:none;fill-opacity:0.75;fill-rule:evenodd;stroke:#000000;stroke-width:11.8765583;stroke-linecap:butt;stroke-linejoin:miter;stroke-miterlimit:4;stroke-dasharray:none;stroke-opacity:1"
   id="path1962"
   inkscape:connector-curvature="0" /><path
   d="m 517.47203,134.8828 c 27.50201,99.39118 44.33461,223.25827 -49.67026,309.6228 -199.60684,183.38361 -208.32526,242.755 -125.08423,297.666 83.07607,54.80218 194.40921,37.94913 231.34292,18.63578 58.2197,-30.44422 72.20964,-29.95078 120.82585,-24.07925 29.63566,3.57919 72.44526,23.45346 127.40526,44.62564 72.69223,28.00315 147.2926,51.64797 201.22253,35.18714 82.9471,-25.3176 104.7968,-67.98825 84.9547,-159.15463 -11.4541,-70.53839 -79.7543,-203.30458 -104.1047,-250.24676 -24.32376,-46.89078 -21.63659,-107.7303 -55.5223,-120.79907 -41.27584,-15.91896 -159.47168,11.94286 -190.90236,8.77252 -41.78136,-4.21439 -106.65129,-86.95785 -96.3091,-156.9649"
   style="fill:none;fill-opacity:0.75;fill-rule:evenodd;stroke:#000000;stroke-width:11.8765583;stroke-linecap:butt;stroke-linejoin:miter;stroke-miterlimit:4;stroke-dasharray:none;stroke-opacity:1"
   id="path2851"
   inkscape:connector-curvature="0" /><path
   d="m 180.75673,167.49398 c 22.45359,148.62136 39.33913,414.9753 75.44238,504.17382 29.84575,73.73842 49.81946,107.83098 187.57678,137.41794 23.7764,5.1066 76.68347,16.60374 288.73572,35.58816 71.66661,6.4161 228.20913,22.74763 301.71829,3.28364 126.0418,-33.37373 174.8424,-83.05505 265.3204,-114.55295 92.5993,-32.23639 123.6884,-35.12691 238.9123,-31.49472"
   style="fill:none;fill-opacity:0.75;fill-rule:evenodd;stroke:#000000;stroke-width:11.8765583;stroke-linecap:butt;stroke-linejoin:miter;stroke-miterlimit:4;stroke-dasharray:none;stroke-opacity:1"
   id="path2853"
   inkscape:connector-curvature="0" /><path
   d="m 35.432048,180.23427 c 6.621016,195.87109 19.156907,347.58632 25.572217,407.46255 6.415311,59.87623 37.478525,206.08227 66.291545,251.26632 47.04561,73.77607 48.60118,115.55484 177.49025,143.27527 172.81886,37.16849 254.50848,22.18209 352.84208,37.42259 132.10499,20.4748 159.31354,49.1841 261.95851,51.3226 102.64485,2.1384 147.40305,-11.9533 242.36225,-59.0926 105.5264,-52.38505 99.7956,-67.16568 191.7404,-63.86758 70.1355,2.51579 153.6864,3.75146 202.0823,-12.83062"
   style="fill:none;fill-opacity:0.75;fill-rule:evenodd;stroke:#000000;stroke-width:11.8765583;stroke-linecap:butt;stroke-linejoin:miter;stroke-miterlimit:4;stroke-dasharray:none;stroke-opacity:1"
   id="path2855"
   inkscape:connector-curvature="0" /><g
   transform="translate(-3.7624301,-8.7786336)"
   id="g2861"><path
     d="m 223.08697,860.60116 180.6979,-160.91737 -58.80701,22.97246 40.6303,25.06639 18.17671,-48.03885"
     style="fill:#000000;fill-opacity:1;fill-rule:evenodd;stroke:#000000;stroke-width:12.25160789;stroke-linecap:butt;stroke-linejoin:round;stroke-miterlimit:4;stroke-dasharray:none;stroke-opacity:1"
     id="path2857"
     inkscape:connector-curvature="0" /><use
     transform="translate(68.68941,23.26337)"
     id="use2859"
     x="0"
     y="0"
     width="1832"
     height="1143.15"
     xlink:href="#path2857" /></g><use
   transform="matrix(0.971975,0.235083,0.235083,-0.971975,521.89415,1511.3254)"
   id="use2865"
   x="0"
   y="0"
   width="1832"
   height="1143.15"
   xlink:href="#g2861" /><text
   x="476.96619"
   y="541.62689"
   style="font-style:normal;font-variant:normal;font-weight:bold;font-stretch:normal;font-size:160.02099609px;line-height:125%;font-family:Arial;text-align:start;writing-mode:lr-tb;text-anchor:start;fill:#000000;fill-opacity:1;stroke:none;stroke-width:1px;stroke-linecap:butt;stroke-linejoin:miter;stroke-opacity:1"
   id="text2867"
   xml:space="preserve"><tspan
     x="476.96619"
     y="541.62689"
     style="font-style:normal;font-variant:normal;font-weight:bold;font-stretch:normal;font-size:160.02099609px;line-height:125%;font-family:Arial;text-align:start;writing-mode:lr-tb;text-anchor:start"
     id="tspan2869">alveoli</tspan></text>

<text
   x="140.40416"
   y="68.011856"
   style="font-style:normal;font-variant:normal;font-weight:bold;font-stretch:normal;font-size:95.01246643px;line-height:125%;font-family:Arial;text-align:start;writing-mode:lr-tb;text-anchor:start;fill:#4805c8;fill-opacity:1;fill-rule:evenodd;stroke:none;stroke-width:1px;stroke-linecap:butt;stroke-linejoin:miter;stroke-opacity:1"
   id="text2886"
   xml:space="preserve"><tspan
     x="140.40416"
     y="68.011856"
     style="font-style:normal;font-variant:normal;font-weight:bold;font-stretch:normal;font-size:95.01246643px;line-height:125%;font-family:Arial;text-align:start;writing-mode:lr-tb;text-anchor:start;fill:#4805c8;fill-opacity:1"
     id="tspan2888">Blood In</tspan></text>

<text
   x="1276.7416"
   y="1053.3975"
   style="font-style:normal;font-variant:normal;font-weight:bold;font-stretch:normal;font-size:95.01246643px;line-height:125%;font-family:Arial;text-align:start;writing-mode:lr-tb;text-anchor:start;fill:#cd141b;fill-opacity:1;fill-rule:evenodd;stroke:none;stroke-width:1px;stroke-linecap:butt;stroke-linejoin:miter;stroke-opacity:1"
   id="text2890"
   xml:space="preserve"><tspan
     x="1276.7416"
     y="1053.3975"
     style="font-style:normal;font-variant:normal;font-weight:bold;font-stretch:normal;font-size:95.01246643px;line-height:125%;font-family:Arial;text-align:start;writing-mode:lr-tb;text-anchor:start;fill:#cd141b;fill-opacity:1"
     id="tspan2892">Blood Out</tspan></text>

<g
   transform="translate(-518.94895,696.00401)"
   id="g2905"><text
   x="870.26434"
   y="-20.925404"
   style="font-style:normal;font-variant:normal;font-weight:bold;font-stretch:normal;font-size:95.01246643px;line-height:125%;font-family:Arial;text-align:start;writing-mode:lr-tb;text-anchor:start;fill:#4805c8;fill-opacity:1;fill-rule:evenodd;stroke:none;stroke-width:1px;stroke-linecap:butt;stroke-linejoin:miter;stroke-opacity:1"
   id="text2897"
   xml:space="preserve"><tspan
     x="870.26434"
     y="-20.925404"
     style="font-style:normal;font-variant:normal;font-weight:bold;font-stretch:normal;font-size:95.01246643px;line-height:125%;font-family:Arial;text-align:start;writing-mode:lr-tb;text-anchor:start;fill:#4805c8;fill-opacity:1"
     id="tspan2899">CO  Out</tspan></text>

<text
   x="1013.1078"
   y="-2.616426"
   style="font-style:normal;font-variant:normal;font-weight:bold;font-stretch:normal;font-size:50.00656128px;line-height:125%;font-family:Arial;text-align:start;writing-mode:lr-tb;text-anchor:start;fill:#4805c8;fill-opacity:1;fill-rule:evenodd;stroke:none;stroke-width:1px;stroke-linecap:butt;stroke-linejoin:miter;stroke-opacity:1"
   id="text2901"
   xml:space="preserve"><tspan
     x="1013.1078"
     y="-2.616426"
     style="font-style:normal;font-variant:normal;font-weight:bold;font-stretch:normal;font-size:50.00656128px;line-height:125%;font-family:Arial;text-align:start;writing-mode:lr-tb;text-anchor:start;fill:#4805c8;fill-opacity:1"
     id="tspan2903">2</tspan></text>

</g><g
   transform="translate(-114.68993,715.00031)"
   style="fill:#cd141b;fill-opacity:1;fill-rule:evenodd"
   id="g2911"><text
   x="938.27264"
   y="-20.925404"
   style="font-style:normal;font-variant:normal;font-weight:bold;font-stretch:normal;font-size:95.01246643px;line-height:125%;font-family:Arial;text-align:start;writing-mode:lr-tb;text-anchor:start;fill:#cd141b;fill-opacity:1;fill-rule:evenodd;stroke:none;stroke-width:1px;stroke-linecap:butt;stroke-linejoin:miter;stroke-opacity:1"
   id="text2913"
   xml:space="preserve"><tspan
     x="938.27264"
     y="-20.925404"
     style="font-style:normal;font-variant:normal;font-weight:bold;font-stretch:normal;font-size:95.01246643px;line-height:125%;font-family:Arial;text-align:start;writing-mode:lr-tb;text-anchor:start;fill:#cd141b;fill-opacity:1"
     id="tspan2915">O  In</tspan></text>

<text
   x="1013.1078"
   y="-2.616426"
   style="font-style:normal;font-variant:normal;font-weight:bold;font-stretch:normal;font-size:50.00656128px;line-height:125%;font-family:Arial;text-align:start;writing-mode:lr-tb;text-anchor:start;fill:#cd141b;fill-opacity:1;fill-rule:evenodd;stroke:none;stroke-width:1px;stroke-linecap:butt;stroke-linejoin:miter;stroke-opacity:1"
   id="text2917"
   xml:space="preserve"><tspan
     x="1013.1078"
     y="-2.616426"
     style="font-style:normal;font-variant:normal;font-weight:bold;font-stretch:normal;font-size:50.00656128px;line-height:125%;font-family:Arial;text-align:start;writing-mode:lr-tb;text-anchor:start;fill:#cd141b;fill-opacity:1"
     id="tspan2919">2</tspan></text>

</g><text
   x="-6.7617064"
   y="1131.4327"
   style="font-style:normal;font-variant:normal;font-weight:bold;font-stretch:normal;font-size:160.02099609px;line-height:125%;font-family:Arial;text-align:start;writing-mode:lr-tb;text-anchor:start;fill:#000000;fill-opacity:1;stroke:none;stroke-width:0.99999994px;stroke-linecap:butt;stroke-linejoin:miter;stroke-opacity:1"
   id="text2867-8"
   xml:space="preserve"><tspan
     x="-6.7617064"
     y="1131.4327"
     style="font-style:normal;font-variant:normal;font-weight:bold;font-stretch:normal;font-size:160.02099609px;line-height:125%;font-family:Arial;text-align:start;writing-mode:lr-tb;text-anchor:start;stroke-width:0.99999994px"
     id="tspan2869-0">capillary</tspan></text>
</svg>