<?xml version="1.0" encoding="UTF-8" standalone="no"?>
<svg
   class="svglite"
   width="360.00pt"
   height="360.00pt"
   viewBox="0 0 360.00 360.00"
   version="1.1"
   id="svg300"
   sodipodi:docname="output_SBPvsDBP_example.svg"
   inkscape:version="1.2.2 (b0a8486541, 2022-12-01)"
   xmlns:inkscape="http://www.inkscape.org/namespaces/inkscape"
   xmlns:sodipodi="http://sodipodi.sourceforge.net/DTD/sodipodi-0.dtd"
   xmlns="http://www.w3.org/2000/svg"
   xmlns:svg="http://www.w3.org/2000/svg">
  <sodipodi:namedview
     id="namedview302"
     pagecolor="#505050"
     bordercolor="#eeeeee"
     borderopacity="1"
     inkscape:showpageshadow="0"
     inkscape:pageopacity="0"
     inkscape:pagecheckerboard="0"
     inkscape:deskcolor="#505050"
     inkscape:document-units="pt"
     showgrid="false"
     inkscape:zoom="1.7791667"
     inkscape:cx="168.33724"
     inkscape:cy="240"
     inkscape:window-width="1920"
     inkscape:window-height="1177"
     inkscape:window-x="-8"
     inkscape:window-y="-8"
     inkscape:window-maximized="1"
     inkscape:current-layer="g298" />
  <defs
     id="defs4">
    <style
       type="text/css"
       id="style2"><![CDATA[
    .svglite line, .svglite polyline, .svglite polygon, .svglite path, .svglite rect, .svglite circle {
      fill: none;
      stroke: #000000;
      stroke-linecap: round;
      stroke-linejoin: round;
      stroke-miterlimit: 10.00;
    }
    .svglite text {
      white-space: pre;
    }
  ]]></style>
  </defs>
  <rect
     width="100%"
     height="100%"
     style="stroke: none; fill: none;"
     id="rect6" />
  <defs
     id="defs11">
    <clipPath
       id="cpMC4wMHwzNjAuMDB8MC4wMHwzNjAuMDA=">
      <rect
         x="0.00"
         y="0.00"
         width="360.00"
         height="360.00"
         id="rect8" />
    </clipPath>
  </defs>
  <g
     clip-path="url(#cpMC4wMHwzNjAuMDB8MC4wMHwzNjAuMDA=)"
     id="g13" />
  <defs
     id="defs18">
    <clipPath
       id="cpMzguMDN8MjQyLjgzfDUuNDh8MzI4LjUw">
      <rect
         x="38.03"
         y="5.48"
         width="204.80"
         height="323.02"
         id="rect15" />
    </clipPath>
  </defs>
  <g
     clip-path="url(#cpMzguMDN8MjQyLjgzfDUuNDh8MzI4LjUw)"
     id="g238">
    <polygon
       points="47.34,257.28 49.70,254.98 52.06,252.67 54.41,250.36 56.77,248.04 59.13,245.72 61.48,243.40 63.84,241.08 66.20,238.76 68.55,236.43 70.91,234.09 73.27,231.75 75.62,229.41 77.98,227.06 80.34,224.71 82.69,222.35 85.05,219.99 87.41,217.62 89.76,215.24 92.12,212.85 94.48,210.46 96.83,208.05 99.19,205.64 101.55,203.21 103.90,200.77 106.26,198.32 108.62,195.85 110.97,193.37 113.33,190.87 115.69,188.36 118.04,185.82 120.40,183.27 122.76,180.69 125.11,178.09 127.47,175.46 129.83,172.81 132.18,170.13 134.54,167.42 136.90,164.69 139.26,161.93 141.61,159.14 143.97,156.33 146.33,153.48 148.68,150.61 151.04,147.72 153.40,144.80 155.75,141.86 158.11,138.89 160.47,135.91 162.82,132.91 165.18,129.89 167.54,126.85 169.89,123.80 172.25,120.73 174.61,117.65 176.96,114.56 179.32,111.46 181.68,108.35 184.03,105.23 186.39,102.10 188.75,98.96 191.10,95.82 193.46,92.67 195.82,89.51 198.17,86.35 200.53,83.18 202.89,80.01 205.24,76.83 207.60,73.65 209.96,70.47 212.31,67.28 214.67,64.09 217.03,60.89 219.38,57.70 221.74,54.50 224.10,51.29 226.45,48.09 228.81,44.88 231.17,41.67 233.52,38.46 233.52,82.56 231.17,84.87 228.81,87.17 226.45,89.48 224.10,91.79 221.74,94.10 219.38,96.41 217.03,98.73 214.67,101.04 212.31,103.37 209.96,105.69 207.60,108.02 205.24,110.35 202.89,112.69 200.53,115.03 198.17,117.38 195.82,119.73 193.46,122.08 191.10,124.45 188.75,126.82 186.39,129.19 184.03,131.58 181.68,133.97 179.32,136.37 176.96,138.78 174.61,141.21 172.25,143.64 169.89,146.09 167.54,148.55 165.18,151.03 162.82,153.52 160.47,156.03 158.11,158.56 155.75,161.11 153.40,163.68 151.04,166.28 148.68,168.89 146.33,171.54 143.97,174.21 141.61,176.90 139.26,179.63 136.90,182.38 134.54,185.16 132.18,187.97 129.83,190.81 127.47,193.67 125.11,196.55 122.76,199.47 120.40,202.40 118.04,205.36 115.69,208.34 113.33,211.33 110.97,214.35 108.62,217.38 106.26,220.43 103.90,223.49 101.55,226.56 99.19,229.65 96.83,232.75 94.48,235.86 92.12,238.98 89.76,242.10 87.41,245.24 85.05,248.38 82.69,251.53 80.34,254.68 77.98,257.84 75.62,261.01 73.27,264.18 70.91,267.36 68.55,270.54 66.20,273.72 63.84,276.91 61.48,280.10 59.13,283.29 56.77,286.49 54.41,289.69 52.06,292.89 49.70,296.09 47.34,299.30 "
       style="stroke-width: 0.00; stroke: none; stroke-linecap: butt; fill: #999999; fill-opacity: 0.40;"
       id="polygon20" />
    <polyline
       points="47.34,257.28 49.70,254.98 52.06,252.67 54.41,250.36 56.77,248.04 59.13,245.72 61.48,243.40 63.84,241.08 66.20,238.76 68.55,236.43 70.91,234.09 73.27,231.75 75.62,229.41 77.98,227.06 80.34,224.71 82.69,222.35 85.05,219.99 87.41,217.62 89.76,215.24 92.12,212.85 94.48,210.46 96.83,208.05 99.19,205.64 101.55,203.21 103.90,200.77 106.26,198.32 108.62,195.85 110.97,193.37 113.33,190.87 115.69,188.36 118.04,185.82 120.40,183.27 122.76,180.69 125.11,178.09 127.47,175.46 129.83,172.81 132.18,170.13 134.54,167.42 136.90,164.69 139.26,161.93 141.61,159.14 143.97,156.33 146.33,153.48 148.68,150.61 151.04,147.72 153.40,144.80 155.75,141.86 158.11,138.89 160.47,135.91 162.82,132.91 165.18,129.89 167.54,126.85 169.89,123.80 172.25,120.73 174.61,117.65 176.96,114.56 179.32,111.46 181.68,108.35 184.03,105.23 186.39,102.10 188.75,98.96 191.10,95.82 193.46,92.67 195.82,89.51 198.17,86.35 200.53,83.18 202.89,80.01 205.24,76.83 207.60,73.65 209.96,70.47 212.31,67.28 214.67,64.09 217.03,60.89 219.38,57.70 221.74,54.50 224.10,51.29 226.45,48.09 228.81,44.88 231.17,41.67 233.52,38.46 "
       style="stroke-width: 2.13; stroke: none; stroke-linecap: butt;"
       id="polyline22" />
    <polyline
       points="233.52,82.56 231.17,84.87 228.81,87.17 226.45,89.48 224.10,91.79 221.74,94.10 219.38,96.41 217.03,98.73 214.67,101.04 212.31,103.37 209.96,105.69 207.60,108.02 205.24,110.35 202.89,112.69 200.53,115.03 198.17,117.38 195.82,119.73 193.46,122.08 191.10,124.45 188.75,126.82 186.39,129.19 184.03,131.58 181.68,133.97 179.32,136.37 176.96,138.78 174.61,141.21 172.25,143.64 169.89,146.09 167.54,148.55 165.18,151.03 162.82,153.52 160.47,156.03 158.11,158.56 155.75,161.11 153.40,163.68 151.04,166.28 148.68,168.89 146.33,171.54 143.97,174.21 141.61,176.90 139.26,179.63 136.90,182.38 134.54,185.16 132.18,187.97 129.83,190.81 127.47,193.67 125.11,196.55 122.76,199.47 120.40,202.40 118.04,205.36 115.69,208.34 113.33,211.33 110.97,214.35 108.62,217.38 106.26,220.43 103.90,223.49 101.55,226.56 99.19,229.65 96.83,232.75 94.48,235.86 92.12,238.98 89.76,242.10 87.41,245.24 85.05,248.38 82.69,251.53 80.34,254.68 77.98,257.84 75.62,261.01 73.27,264.18 70.91,267.36 68.55,270.54 66.20,273.72 63.84,276.91 61.48,280.10 59.13,283.29 56.77,286.49 54.41,289.69 52.06,292.89 49.70,296.09 47.34,299.30 "
       style="stroke-width: 2.13; stroke: none; stroke-linecap: butt;"
       id="polyline24" />
    <polyline
       points="47.34,278.29 49.70,275.53 52.06,272.78 54.41,270.02 56.77,267.26 59.13,264.51 61.48,261.75 63.84,258.99 66.20,256.24 68.55,253.48 70.91,250.72 73.27,247.97 75.62,245.21 77.98,242.45 80.34,239.70 82.69,236.94 85.05,234.18 87.41,231.43 89.76,228.67 92.12,225.91 94.48,223.16 96.83,220.40 99.19,217.64 101.55,214.89 103.90,212.13 106.26,209.37 108.62,206.62 110.97,203.86 113.33,201.10 115.69,198.35 118.04,195.59 120.40,192.83 122.76,190.08 125.11,187.32 127.47,184.56 129.83,181.81 132.18,179.05 134.54,176.29 136.90,173.54 139.26,170.78 141.61,168.02 143.97,165.27 146.33,162.51 148.68,159.75 151.04,157.00 153.40,154.24 155.75,151.48 158.11,148.73 160.47,145.97 162.82,143.21 165.18,140.46 167.54,137.70 169.89,134.94 172.25,132.19 174.61,129.43 176.96,126.67 179.32,123.92 181.68,121.16 184.03,118.40 186.39,115.65 188.75,112.89 191.10,110.13 193.46,107.38 195.82,104.62 198.17,101.86 200.53,99.11 202.89,96.35 205.24,93.59 207.60,90.84 209.96,88.08 212.31,85.32 214.67,82.57 217.03,79.81 219.38,77.05 221.74,74.30 224.10,71.54 226.45,68.78 228.81,66.03 231.17,63.27 233.52,60.51 "
       style="stroke-width: 2.13; stroke: #374E55; stroke-linecap: butt;"
       id="polyline26" />
    <polygon
       points="124.92,179.29 126.05,177.35 127.18,175.40 128.31,173.46 129.44,171.52 130.56,169.57 131.69,167.63 132.82,165.69 133.95,163.74 135.08,161.79 136.21,159.85 137.34,157.90 138.47,155.95 139.60,154.01 140.73,152.06 141.86,150.11 142.99,148.16 144.12,146.21 145.25,144.25 146.37,142.30 147.50,140.35 148.63,138.39 149.76,136.43 150.89,134.47 152.02,132.51 153.15,130.55 154.28,128.58 155.41,126.61 156.54,124.64 157.67,122.67 158.80,120.69 159.93,118.71 161.05,116.73 162.18,114.75 163.31,112.76 164.44,110.76 165.57,108.76 166.70,106.76 167.83,104.75 168.96,102.74 170.09,100.72 171.22,98.70 172.35,96.68 173.48,94.65 174.61,92.61 175.74,90.58 176.86,88.53 177.99,86.49 179.12,84.44 180.25,82.39 181.38,80.33 182.51,78.28 183.64,76.22 184.77,74.16 185.90,72.09 187.03,70.03 188.16,67.96 189.29,65.89 190.42,63.82 191.54,61.75 192.67,59.68 193.80,57.61 194.93,55.53 196.06,53.45 197.19,51.38 198.32,49.30 199.45,47.22 200.58,45.14 201.71,43.07 202.84,40.99 203.97,38.90 205.10,36.82 206.23,34.74 207.35,32.66 208.48,30.58 209.61,28.50 210.74,26.41 211.87,24.33 213.00,22.25 214.13,20.16 214.13,26.93 213.00,28.88 211.87,30.82 210.74,32.76 209.61,34.70 208.48,36.65 207.35,38.59 206.23,40.53 205.10,42.48 203.97,44.42 202.84,46.37 201.71,48.31 200.58,50.26 199.45,52.21 198.32,54.15 197.19,56.10 196.06,58.05 194.93,60.00 193.80,61.95 192.67,63.90 191.54,65.86 190.42,67.81 189.29,69.76 188.16,71.72 187.03,73.68 185.90,75.64 184.77,77.60 183.64,79.57 182.51,81.53 181.38,83.50 180.25,85.47 179.12,87.45 177.99,89.42 176.86,91.40 175.74,93.39 174.61,95.38 173.48,97.37 172.35,99.36 171.22,101.36 170.09,103.37 168.96,105.38 167.83,107.39 166.70,109.41 165.57,111.43 164.44,113.46 163.31,115.49 162.18,117.52 161.05,119.56 159.93,121.61 158.80,123.65 157.67,125.70 156.54,127.75 155.41,129.81 154.28,131.87 153.15,133.93 152.02,135.99 150.89,138.05 149.76,140.12 148.63,142.19 147.50,144.26 146.37,146.33 145.25,148.40 144.12,150.47 142.99,152.55 141.86,154.62 140.73,156.70 139.60,158.77 138.47,160.85 137.34,162.93 136.21,165.01 135.08,167.09 133.95,169.17 132.82,171.25 131.69,173.33 130.56,175.41 129.44,177.49 128.31,179.57 127.18,181.66 126.05,183.74 124.92,185.82 "
       style="stroke-width: 0.00; stroke: none; stroke-linecap: butt; fill: #999999; fill-opacity: 0.40;"
       id="polygon28" />
    <polyline
       points="124.92,179.29 126.05,177.35 127.18,175.40 128.31,173.46 129.44,171.52 130.56,169.57 131.69,167.63 132.82,165.69 133.95,163.74 135.08,161.79 136.21,159.85 137.34,157.90 138.47,155.95 139.60,154.01 140.73,152.06 141.86,150.11 142.99,148.16 144.12,146.21 145.25,144.25 146.37,142.30 147.50,140.35 148.63,138.39 149.76,136.43 150.89,134.47 152.02,132.51 153.15,130.55 154.28,128.58 155.41,126.61 156.54,124.64 157.67,122.67 158.80,120.69 159.93,118.71 161.05,116.73 162.18,114.75 163.31,112.76 164.44,110.76 165.57,108.76 166.70,106.76 167.83,104.75 168.96,102.74 170.09,100.72 171.22,98.70 172.35,96.68 173.48,94.65 174.61,92.61 175.74,90.58 176.86,88.53 177.99,86.49 179.12,84.44 180.25,82.39 181.38,80.33 182.51,78.28 183.64,76.22 184.77,74.16 185.90,72.09 187.03,70.03 188.16,67.96 189.29,65.89 190.42,63.82 191.54,61.75 192.67,59.68 193.80,57.61 194.93,55.53 196.06,53.45 197.19,51.38 198.32,49.30 199.45,47.22 200.58,45.14 201.71,43.07 202.84,40.99 203.97,38.90 205.10,36.82 206.23,34.74 207.35,32.66 208.48,30.58 209.61,28.50 210.74,26.41 211.87,24.33 213.00,22.25 214.13,20.16 "
       style="stroke-width: 2.13; stroke: none; stroke-linecap: butt;"
       id="polyline30" />
    <polyline
       points="214.13,26.93 213.00,28.88 211.87,30.82 210.74,32.76 209.61,34.70 208.48,36.65 207.35,38.59 206.23,40.53 205.10,42.48 203.97,44.42 202.84,46.37 201.71,48.31 200.58,50.26 199.45,52.21 198.32,54.15 197.19,56.10 196.06,58.05 194.93,60.00 193.80,61.95 192.67,63.90 191.54,65.86 190.42,67.81 189.29,69.76 188.16,71.72 187.03,73.68 185.90,75.64 184.77,77.60 183.64,79.57 182.51,81.53 181.38,83.50 180.25,85.47 179.12,87.45 177.99,89.42 176.86,91.40 175.74,93.39 174.61,95.38 173.48,97.37 172.35,99.36 171.22,101.36 170.09,103.37 168.96,105.38 167.83,107.39 166.70,109.41 165.57,111.43 164.44,113.46 163.31,115.49 162.18,117.52 161.05,119.56 159.93,121.61 158.80,123.65 157.67,125.70 156.54,127.75 155.41,129.81 154.28,131.87 153.15,133.93 152.02,135.99 150.89,138.05 149.76,140.12 148.63,142.19 147.50,144.26 146.37,146.33 145.25,148.40 144.12,150.47 142.99,152.55 141.86,154.62 140.73,156.70 139.60,158.77 138.47,160.85 137.34,162.93 136.21,165.01 135.08,167.09 133.95,169.17 132.82,171.25 131.69,173.33 130.56,175.41 129.44,177.49 128.31,179.57 127.18,181.66 126.05,183.74 124.92,185.82 "
       style="stroke-width: 2.13; stroke: none; stroke-linecap: butt;"
       id="polyline32" />
    <polyline
       points="124.92,182.56 126.05,180.54 127.18,178.53 128.31,176.52 129.44,174.50 130.56,172.49 131.69,170.48 132.82,168.47 133.95,166.45 135.08,164.44 136.21,162.43 137.34,160.42 138.47,158.40 139.60,156.39 140.73,154.38 141.86,152.36 142.99,150.35 144.12,148.34 145.25,146.33 146.37,144.31 147.50,142.30 148.63,140.29 149.76,138.28 150.89,136.26 152.02,134.25 153.15,132.24 154.28,130.22 155.41,128.21 156.54,126.20 157.67,124.19 158.80,122.17 159.93,120.16 161.05,118.15 162.18,116.13 163.31,114.12 164.44,112.11 165.57,110.10 166.70,108.08 167.83,106.07 168.96,104.06 170.09,102.05 171.22,100.03 172.35,98.02 173.48,96.01 174.61,93.99 175.74,91.98 176.86,89.97 177.99,87.96 179.12,85.94 180.25,83.93 181.38,81.92 182.51,79.91 183.64,77.89 184.77,75.88 185.90,73.87 187.03,71.85 188.16,69.84 189.29,67.83 190.42,65.82 191.54,63.80 192.67,61.79 193.80,59.78 194.93,57.77 196.06,55.75 197.19,53.74 198.32,51.73 199.45,49.71 200.58,47.70 201.71,45.69 202.84,43.68 203.97,41.66 205.10,39.65 206.23,37.64 207.35,35.62 208.48,33.61 209.61,31.60 210.74,29.59 211.87,27.57 213.00,25.56 214.13,23.55 "
       style="stroke-width: 2.13; stroke: #DF8F44; stroke-linecap: butt;"
       id="polyline34" />
    <circle
       cx="155.95"
       cy="125.76"
       r="1.95"
       style="stroke-width: 0.71; stroke: #DF8F44;"
       id="circle36" />
    <circle
       cx="159.83"
       cy="117.76"
       r="1.95"
       style="stroke-width: 0.71; stroke: #DF8F44;"
       id="circle38" />
    <circle
       cx="179.22"
       cy="85.75"
       r="1.95"
       style="stroke-width: 0.71; stroke: #DF8F44;"
       id="circle40" />
    <circle
       cx="186.98"
       cy="69.75"
       r="1.95"
       style="stroke-width: 0.71; stroke: #DF8F44;"
       id="circle42" />
    <circle
       cx="190.86"
       cy="61.74"
       r="1.95"
       style="stroke-width: 0.71; stroke: #DF8F44;"
       id="circle44" />
    <circle
       cx="214.13"
       cy="25.73"
       r="1.95"
       style="stroke-width: 0.71; stroke: #DF8F44;"
       id="circle46" />
    <circle
       cx="124.92"
       cy="177.78"
       r="1.95"
       style="stroke-width: 0.71; stroke: #DF8F44;"
       id="circle48" />
    <circle
       cx="140.43"
       cy="149.77"
       r="1.95"
       style="stroke-width: 0.71; stroke: #DF8F44;"
       id="circle50" />
    <circle
       cx="159.83"
       cy="121.76"
       r="1.95"
       style="stroke-width: 0.71; stroke: #DF8F44;"
       id="circle52" />
    <circle
       cx="159.83"
       cy="125.76"
       r="1.95"
       style="stroke-width: 0.71; stroke: #DF8F44;"
       id="circle54" />
    <circle
       cx="148.19"
       cy="137.77"
       r="1.95"
       style="stroke-width: 0.71; stroke: #DF8F44;"
       id="circle56" />
    <circle
       cx="190.86"
       cy="61.74"
       r="1.95"
       style="stroke-width: 0.71; stroke: #DF8F44;"
       id="circle58" />
    <circle
       cx="163.71"
       cy="113.76"
       r="1.95"
       style="stroke-width: 0.71; stroke: #DF8F44;"
       id="circle60" />
    <circle
       cx="206.37"
       cy="33.74"
       r="1.95"
       style="stroke-width: 0.71; stroke: #DF8F44;"
       id="circle62" />
    <circle
       cx="171.46"
       cy="97.75"
       r="1.95"
       style="stroke-width: 0.71; stroke: #DF8F44;"
       id="circle64" />
    <circle
       cx="171.46"
       cy="97.75"
       r="1.95"
       style="stroke-width: 0.71; stroke: #DF8F44;"
       id="circle66" />
    <circle
       cx="198.61"
       cy="49.74"
       r="1.95"
       style="stroke-width: 0.71; stroke: #DF8F44;"
       id="circle68" />
    <circle
       cx="171.46"
       cy="105.76"
       r="1.95"
       style="stroke-width: 0.71; stroke: #DF8F44;"
       id="circle70" />
    <circle
       cx="167.58"
       cy="109.76"
       r="1.95"
       style="stroke-width: 0.71; stroke: #DF8F44;"
       id="circle72" />
    <circle
       cx="171.46"
       cy="105.76"
       r="1.95"
       style="stroke-width: 0.71; stroke: #DF8F44;"
       id="circle74" />
    <circle
       cx="179.22"
       cy="89.75"
       r="1.95"
       style="stroke-width: 0.71; stroke: #DF8F44;"
       id="circle76" />
    <circle
       cx="159.83"
       cy="117.76"
       r="1.95"
       style="stroke-width: 0.71; stroke: #DF8F44;"
       id="circle78" />
    <circle
       cx="155.95"
       cy="129.76"
       r="1.95"
       style="stroke-width: 0.71; stroke: #DF8F44;"
       id="circle80" />
    <circle
       cx="163.71"
       cy="109.76"
       r="1.95"
       style="stroke-width: 0.71; stroke: #DF8F44;"
       id="circle82" />
    <circle
       cx="179.22"
       cy="81.75"
       r="1.95"
       style="stroke-width: 0.71; stroke: #DF8F44;"
       id="circle84" />
    <circle
       cx="179.22"
       cy="89.75"
       r="1.95"
       style="stroke-width: 0.71; stroke: #DF8F44;"
       id="circle86" />
    <circle
       cx="167.58"
       cy="109.76"
       r="1.95"
       style="stroke-width: 0.71; stroke: #DF8F44;"
       id="circle88" />
    <circle
       cx="140.43"
       cy="157.77"
       r="1.95"
       style="stroke-width: 0.71; stroke: #DF8F44;"
       id="circle90" />
    <circle
       cx="144.31"
       cy="153.77"
       r="1.95"
       style="stroke-width: 0.71; stroke: #DF8F44;"
       id="circle92" />
    <circle
       cx="163.71"
       cy="113.76"
       r="1.95"
       style="stroke-width: 0.71; stroke: #DF8F44;"
       id="circle94" />
    <circle
       cx="159.83"
       cy="117.76"
       r="1.95"
       style="stroke-width: 0.71; stroke: #DF8F44;"
       id="circle96" />
    <circle
       cx="171.46"
       cy="125.76"
       r="1.95"
       style="stroke-width: 0.71; stroke: #374E55;"
       id="circle98" />
    <circle
       cx="155.95"
       cy="125.76"
       r="1.95"
       style="stroke-width: 0.71; stroke: #374E55;"
       id="circle100" />
    <circle
       cx="175.34"
       cy="77.75"
       r="1.95"
       style="stroke-width: 0.71; stroke: #374E55;"
       id="circle102" />
    <circle
       cx="167.58"
       cy="161.77"
       r="1.95"
       style="stroke-width: 0.71; stroke: #374E55;"
       id="circle104" />
    <circle
       cx="186.98"
       cy="133.77"
       r="1.95"
       style="stroke-width: 0.71; stroke: #374E55;"
       id="circle106" />
    <circle
       cx="171.46"
       cy="153.77"
       r="1.95"
       style="stroke-width: 0.71; stroke: #374E55;"
       id="circle108" />
    <circle
       cx="202.49"
       cy="149.77"
       r="1.95"
       style="stroke-width: 0.71; stroke: #374E55;"
       id="circle110" />
    <circle
       cx="190.86"
       cy="121.76"
       r="1.95"
       style="stroke-width: 0.71; stroke: #374E55;"
       id="circle112" />
    <circle
       cx="190.86"
       cy="117.76"
       r="1.95"
       style="stroke-width: 0.71; stroke: #374E55;"
       id="circle114" />
    <circle
       cx="124.92"
       cy="145.77"
       r="1.95"
       style="stroke-width: 0.71; stroke: #374E55;"
       id="circle116" />
    <circle
       cx="136.55"
       cy="105.76"
       r="1.95"
       style="stroke-width: 0.71; stroke: #374E55;"
       id="circle118" />
    <circle
       cx="124.92"
       cy="117.76"
       r="1.95"
       style="stroke-width: 0.71; stroke: #374E55;"
       id="circle120" />
    <circle
       cx="121.04"
       cy="145.77"
       r="1.95"
       style="stroke-width: 0.71; stroke: #374E55;"
       id="circle122" />
    <circle
       cx="152.07"
       cy="137.77"
       r="1.95"
       style="stroke-width: 0.71; stroke: #374E55;"
       id="circle124" />
    <circle
       cx="155.95"
       cy="113.76"
       r="1.95"
       style="stroke-width: 0.71; stroke: #374E55;"
       id="circle126" />
    <circle
       cx="136.55"
       cy="181.78"
       r="1.95"
       style="stroke-width: 0.71; stroke: #374E55;"
       id="circle128" />
    <circle
       cx="163.71"
       cy="121.76"
       r="1.95"
       style="stroke-width: 0.71; stroke: #374E55;"
       id="circle130" />
    <circle
       cx="171.46"
       cy="137.77"
       r="1.95"
       style="stroke-width: 0.71; stroke: #374E55;"
       id="circle132" />
    <circle
       cx="163.71"
       cy="193.78"
       r="1.95"
       style="stroke-width: 0.71; stroke: #374E55;"
       id="circle134" />
    <circle
       cx="159.83"
       cy="165.78"
       r="1.95"
       style="stroke-width: 0.71; stroke: #374E55;"
       id="circle136" />
    <circle
       cx="163.71"
       cy="109.76"
       r="1.95"
       style="stroke-width: 0.71; stroke: #374E55;"
       id="circle138" />
    <circle
       cx="155.95"
       cy="125.76"
       r="1.95"
       style="stroke-width: 0.71; stroke: #374E55;"
       id="circle140" />
    <circle
       cx="167.58"
       cy="149.77"
       r="1.95"
       style="stroke-width: 0.71; stroke: #374E55;"
       id="circle142" />
    <circle
       cx="148.19"
       cy="185.78"
       r="1.95"
       style="stroke-width: 0.71; stroke: #374E55;"
       id="circle144" />
    <circle
       cx="194.74"
       cy="109.76"
       r="1.95"
       style="stroke-width: 0.71; stroke: #374E55;"
       id="circle146" />
    <circle
       cx="136.55"
       cy="169.78"
       r="1.95"
       style="stroke-width: 0.71; stroke: #374E55;"
       id="circle148" />
    <circle
       cx="124.92"
       cy="169.78"
       r="1.95"
       style="stroke-width: 0.71; stroke: #374E55;"
       id="circle150" />
    <circle
       cx="128.80"
       cy="181.78"
       r="1.95"
       style="stroke-width: 0.71; stroke: #374E55;"
       id="circle152" />
    <circle
       cx="121.04"
       cy="181.78"
       r="1.95"
       style="stroke-width: 0.71; stroke: #374E55;"
       id="circle154" />
    <circle
       cx="101.65"
       cy="217.79"
       r="1.95"
       style="stroke-width: 0.71; stroke: #374E55;"
       id="circle156" />
    <circle
       cx="113.28"
       cy="193.78"
       r="1.95"
       style="stroke-width: 0.71; stroke: #374E55;"
       id="circle158" />
    <circle
       cx="117.16"
       cy="205.79"
       r="1.95"
       style="stroke-width: 0.71; stroke: #374E55;"
       id="circle160" />
    <circle
       cx="136.55"
       cy="129.76"
       r="1.95"
       style="stroke-width: 0.71; stroke: #374E55;"
       id="circle162" />
    <circle
       cx="183.10"
       cy="133.77"
       r="1.95"
       style="stroke-width: 0.71; stroke: #374E55;"
       id="circle164" />
    <circle
       cx="109.40"
       cy="217.79"
       r="1.95"
       style="stroke-width: 0.71; stroke: #374E55;"
       id="circle166" />
    <circle
       cx="97.77"
       cy="217.79"
       r="1.95"
       style="stroke-width: 0.71; stroke: #374E55;"
       id="circle168" />
    <circle
       cx="78.37"
       cy="201.79"
       r="1.95"
       style="stroke-width: 0.71; stroke: #374E55;"
       id="circle170" />
    <circle
       cx="109.40"
       cy="177.78"
       r="1.95"
       style="stroke-width: 0.71; stroke: #374E55;"
       id="circle172" />
    <circle
       cx="74.49"
       cy="173.78"
       r="1.95"
       style="stroke-width: 0.71; stroke: #374E55;"
       id="circle174" />
    <circle
       cx="62.86"
       cy="257.80"
       r="1.95"
       style="stroke-width: 0.71; stroke: #374E55;"
       id="circle176" />
    <circle
       cx="78.37"
       cy="237.80"
       r="1.95"
       style="stroke-width: 0.71; stroke: #374E55;"
       id="circle178" />
    <circle
       cx="62.86"
       cy="281.81"
       r="1.95"
       style="stroke-width: 0.71; stroke: #374E55;"
       id="circle180" />
    <circle
       cx="51.22"
       cy="285.81"
       r="1.95"
       style="stroke-width: 0.71; stroke: #374E55;"
       id="circle182" />
    <circle
       cx="47.34"
       cy="305.82"
       r="1.95"
       style="stroke-width: 0.71; stroke: #374E55;"
       id="circle184" />
    <circle
       cx="86.13"
       cy="313.82"
       r="1.95"
       style="stroke-width: 0.71; stroke: #374E55;"
       id="circle186" />
    <circle
       cx="109.40"
       cy="245.80"
       r="1.95"
       style="stroke-width: 0.71; stroke: #374E55;"
       id="circle188" />
    <circle
       cx="136.55"
       cy="233.80"
       r="1.95"
       style="stroke-width: 0.71; stroke: #374E55;"
       id="circle190" />
    <circle
       cx="90.01"
       cy="261.80"
       r="1.95"
       style="stroke-width: 0.71; stroke: #374E55;"
       id="circle192" />
    <circle
       cx="90.01"
       cy="269.81"
       r="1.95"
       style="stroke-width: 0.71; stroke: #374E55;"
       id="circle194" />
    <circle
       cx="78.37"
       cy="293.81"
       r="1.95"
       style="stroke-width: 0.71; stroke: #374E55;"
       id="circle196" />
    <circle
       cx="90.01"
       cy="293.81"
       r="1.95"
       style="stroke-width: 0.71; stroke: #374E55;"
       id="circle198" />
    <circle
       cx="113.28"
       cy="245.80"
       r="1.95"
       style="stroke-width: 0.71; stroke: #374E55;"
       id="circle200" />
    <circle
       cx="179.22"
       cy="193.78"
       r="1.95"
       style="stroke-width: 0.71; stroke: #374E55;"
       id="circle202" />
    <circle
       cx="136.55"
       cy="165.78"
       r="1.95"
       style="stroke-width: 0.71; stroke: #374E55;"
       id="circle204" />
    <circle
       cx="175.34"
       cy="205.79"
       r="1.95"
       style="stroke-width: 0.71; stroke: #374E55;"
       id="circle206" />
    <circle
       cx="86.13"
       cy="209.79"
       r="1.95"
       style="stroke-width: 0.71; stroke: #374E55;"
       id="circle208" />
    <circle
       cx="113.28"
       cy="177.78"
       r="1.95"
       style="stroke-width: 0.71; stroke: #374E55;"
       id="circle210" />
    <circle
       cx="124.92"
       cy="125.76"
       r="1.95"
       style="stroke-width: 0.71; stroke: #374E55;"
       id="circle212" />
    <circle
       cx="140.43"
       cy="157.77"
       r="1.95"
       style="stroke-width: 0.71; stroke: #374E55;"
       id="circle214" />
    <circle
       cx="101.65"
       cy="221.79"
       r="1.95"
       style="stroke-width: 0.71; stroke: #374E55;"
       id="circle216" />
    <circle
       cx="186.98"
       cy="73.75"
       r="1.95"
       style="stroke-width: 0.71; stroke: #374E55;"
       id="circle218" />
    <circle
       cx="206.37"
       cy="49.74"
       r="1.95"
       style="stroke-width: 0.71; stroke: #374E55;"
       id="circle220" />
    <circle
       cx="186.98"
       cy="161.77"
       r="1.95"
       style="stroke-width: 0.71; stroke: #374E55;"
       id="circle222" />
    <circle
       cx="198.61"
       cy="117.76"
       r="1.95"
       style="stroke-width: 0.71; stroke: #374E55;"
       id="circle224" />
    <circle
       cx="194.74"
       cy="117.76"
       r="1.95"
       style="stroke-width: 0.71; stroke: #374E55;"
       id="circle226" />
    <circle
       cx="167.58"
       cy="141.77"
       r="1.95"
       style="stroke-width: 0.71; stroke: #374E55;"
       id="circle228" />
    <circle
       cx="163.71"
       cy="65.74"
       r="1.95"
       style="stroke-width: 0.71; stroke: #374E55;"
       id="circle230" />
    <circle
       cx="233.52"
       cy="61.74"
       r="1.95"
       style="stroke-width: 0.71; stroke: #374E55;"
       id="circle232" />
    <circle
       cx="109.40"
       cy="173.78"
       r="1.95"
       style="stroke-width: 0.71; stroke: #374E55;"
       id="circle234" />
    <circle
       cx="152.07"
       cy="141.77"
       r="1.95"
       style="stroke-width: 0.71; stroke: #374E55;"
       id="circle236" />
  </g>
  <g
     clip-path="url(#cpMC4wMHwzNjAuMDB8MC4wMHwzNjAuMDA=)"
     id="g298">
    <text
       x="33.10"
       y="272.96"
       text-anchor="end"
       style="font-size: 8.80px;fill: #4D4D4D; font-family: &quot;Arial&quot;;"
       textLength="14.69px"
       lengthAdjust="spacingAndGlyphs"
       id="text240">120</text>
    <text
       x="33.10"
       y="192.93"
       text-anchor="end"
       style="font-size: 8.80px;fill: #4D4D4D; font-family: &quot;Arial&quot;;"
       textLength="14.69px"
       lengthAdjust="spacingAndGlyphs"
       id="text242">140</text>
    <text
       x="33.10"
       y="112.91"
       text-anchor="end"
       style="font-size: 8.80px;fill: #4D4D4D; font-family: &quot;Arial&quot;;"
       textLength="14.69px"
       lengthAdjust="spacingAndGlyphs"
       id="text244">160</text>
    <text
       x="33.10"
       y="32.88"
       text-anchor="end"
       style="font-size: 8.80px;fill: #4D4D4D; font-family: &quot;Arial&quot;;"
       textLength="14.69px"
       lengthAdjust="spacingAndGlyphs"
       id="text246">180</text>
    <polyline
       points="35.29,269.81 38.03,269.81 "
       style="stroke-width: 1.07; stroke: #333333; stroke-linecap: butt;"
       id="polyline248" />
    <polyline
       points="35.29,189.78 38.03,189.78 "
       style="stroke-width: 1.07; stroke: #333333; stroke-linecap: butt;"
       id="polyline250" />
    <polyline
       points="35.29,109.76 38.03,109.76 "
       style="stroke-width: 1.07; stroke: #333333; stroke-linecap: butt;"
       id="polyline252" />
    <polyline
       points="35.29,29.73 38.03,29.73 "
       style="stroke-width: 1.07; stroke: #333333; stroke-linecap: butt;"
       id="polyline254" />
    <polyline
       points="70.62,331.24 70.62,328.50 "
       style="stroke-width: 1.07; stroke: #333333; stroke-linecap: butt;"
       id="polyline256" />
    <polyline
       points="109.40,331.24 109.40,328.50 "
       style="stroke-width: 1.07; stroke: #333333; stroke-linecap: butt;"
       id="polyline258" />
    <polyline
       points="148.19,331.24 148.19,328.50 "
       style="stroke-width: 1.07; stroke: #333333; stroke-linecap: butt;"
       id="polyline260" />
    <polyline
       points="186.98,331.24 186.98,328.50 "
       style="stroke-width: 1.07; stroke: #333333; stroke-linecap: butt;"
       id="polyline262" />
    <polyline
       points="225.77,331.24 225.77,328.50 "
       style="stroke-width: 1.07; stroke: #333333; stroke-linecap: butt;"
       id="polyline264" />
    <text
       x="70.62"
       y="339.74"
       text-anchor="middle"
       style="font-size: 8.80px;fill: #4D4D4D; font-family: &quot;Arial&quot;;"
       textLength="9.79px"
       lengthAdjust="spacingAndGlyphs"
       id="text266">70</text>
    <text
       x="109.40"
       y="339.74"
       text-anchor="middle"
       style="font-size: 8.80px;fill: #4D4D4D; font-family: &quot;Arial&quot;;"
       textLength="9.79px"
       lengthAdjust="spacingAndGlyphs"
       id="text268">80</text>
    <text
       x="148.19"
       y="339.74"
       text-anchor="middle"
       style="font-size: 8.80px;fill: #4D4D4D; font-family: &quot;Arial&quot;;"
       textLength="9.79px"
       lengthAdjust="spacingAndGlyphs"
       id="text270">90</text>
    <text
       x="186.98"
       y="339.74"
       text-anchor="middle"
       style="font-size: 8.80px;fill: #4D4D4D; font-family: &quot;Arial&quot;;"
       textLength="14.69px"
       lengthAdjust="spacingAndGlyphs"
       id="text272">100</text>
    <text
       x="225.77"
       y="339.74"
       text-anchor="middle"
       style="font-size: 8.80px;fill: #4D4D4D; font-family: &quot;Arial&quot;;"
       textLength="14.03px"
       lengthAdjust="spacingAndGlyphs"
       id="text274">110</text>
    <text
       x="140.43"
       y="352.20"
       text-anchor="middle"
       style="font-size: 11.00px; font-family: &quot;Arial&quot;;"
       textLength="158.38px"
       lengthAdjust="spacingAndGlyphs"
       id="text276">diastolic blood pressure (mmHg)</text>
    <text
       transform="translate(13.36,166.99) rotate(-90)"
       text-anchor="middle"
       style="font-size: 11.00px; font-family: &quot;Arial&quot;;"
       textLength="154.70px"
       lengthAdjust="spacingAndGlyphs"
       id="text278">systolic blood pressure (mmHg)</text>
    <text
       x="259.27"
       y="150.91"
       style="font-size: 11.00px; font-family: &quot;Arial&quot;;"
       textLength="47.72px"
       lengthAdjust="spacingAndGlyphs"
       id="text280">technique</text>
    <rect
       x="259.27"
       y="157.55"
       width="17.28"
       height="17.28"
       style="stroke-width: 0.75; stroke: none; fill: #999999; fill-opacity: 0.40;"
       id="rect282" />
    <line
       x1="261.00"
       y1="166.19"
       x2="274.82"
       y2="166.19"
       style="stroke-width: 2.13; stroke: #374E55; stroke-linecap: butt;"
       id="line284" />
    <circle
       cx="267.91"
       cy="166.19"
       r="1.95"
       style="stroke-width: 0.71; stroke: #374E55;"
       id="circle286" />
    <rect
       x="259.27"
       y="174.83"
       width="17.28"
       height="17.28"
       style="stroke-width: 0.75; stroke: none; fill: #999999; fill-opacity: 0.40;"
       id="rect288" />
    <line
       x1="261.00"
       y1="183.47"
       x2="274.82"
       y2="183.47"
       style="stroke-width: 2.13; stroke: #DF8F44; stroke-linecap: butt;"
       id="line290" />
    <circle
       cx="267.91"
       cy="183.47"
       r="1.95"
       style="stroke-width: 0.71; stroke: #DF8F44;"
       id="circle292" />
    <text
       x="282.03"
       y="169.34"
       style="font-size:8.8px;font-family:Arial"
       textLength="47.299999"
       lengthAdjust="spacingAndGlyphs"
       id="text294"
       transform="translate(-4.5)">brachial cuff</text>
    <text
       x="282.03"
       y="186.62"
       style="font-size:8.8px;font-family:Arial"
       textLength="67.010002"
       lengthAdjust="spacingAndGlyphs"
       id="text296"
       transform="matrix(2.0206335,0,0,1.044023,-291.9416,-8.3598007)"><tspan
         sodipodi:role="line"
         id="tspan687"
         x="282.03"
         y="186.62">tonometry blood pressure</tspan><tspan
         sodipodi:role="line"
         id="tspan689"
         x="282.03"
         y="197.62">estimation (BPro)</tspan></text>
  </g>
</svg>
