<?xml version="1.0" standalone="yes"?>

<svg version="1.1" viewBox="0.0 0.0 968.0 698.0" fill="none" stroke="none" stroke-linecap="square" stroke-miterlimit="10" xmlns="http://www.w3.org/2000/svg" xmlns:xlink="http://www.w3.org/1999/xlink"><clipPath id="p.0"><path d="m0 0l968.0 0l0 698.0l-968.0 0l0 -698.0z" clip-rule="nonzero"></path></clipPath><g clip-path="url(#p.0)"><path fill="#000000" fill-opacity="0.0" d="m0 0l968.23883 0l0 698.0656l-968.23883 0z" fill-rule="nonzero"></path><path fill="#e06666" d="m512.48883 212.13577c8.827209 -10.020126 22.18634 -14.552063 35.78479 -8.587936c13.59845 5.9641266 36.740173 18.368774 45.805786 44.37271c9.065613 26.003922 14.075256 85.16972 8.587891 111.650925c-5.4873047 26.48117 -26.482056 36.02362 -41.51178 47.236206c-15.029724 11.212616 -37.692505 23.379272 -48.666687 20.039368c-10.974182 -3.3399048 -16.939606 -24.572174 -17.178467 -40.078735c-0.23883057 -15.506561 15.745422 -32.444 15.745422 -52.960632c0 -20.516632 -15.984253 -49.860443 -15.745422 -70.1391c0.23886108 -20.278656 8.351257 -41.512695 17.178467 -51.532806z" fill-rule="nonzero"></path><path stroke="#000000" stroke-width="2.0" stroke-linejoin="round" stroke-linecap="butt" d="m512.48883 212.13577c8.827209 -10.020126 22.18634 -14.552063 35.78479 -8.587936c13.59845 5.9641266 36.740173 18.368774 45.805786 44.37271c9.065613 26.003922 14.075256 85.16972 8.587891 111.650925c-5.4873047 26.48117 -26.482056 36.02362 -41.51178 47.236206c-15.029724 11.212616 -37.692505 23.379272 -48.666687 20.039368c-10.974182 -3.3399048 -16.939606 -24.572174 -17.178467 -40.078735c-0.23883057 -15.506561 15.745422 -32.444 15.745422 -52.960632c0 -20.516632 -15.984253 -49.860443 -15.745422 -70.1391c0.23886108 -20.278656 8.351257 -41.512695 17.178467 -51.532806z" fill-rule="nonzero"></path><path fill="#666666" d="m534.06036 304.83466l0 0c0 -14.141968 9.687561 -25.606323 21.637817 -25.606323l0 0c5.7387085 0 11.24231 2.697815 15.300232 7.499939c4.0578613 4.8020935 6.3375244 11.315155 6.3375244 18.106384l0 0c0 14.141968 -9.687561 25.606293 -21.637756 25.606293l0 0c-11.950256 0 -21.637817 -11.464325 -21.637817 -25.606293z" fill-rule="nonzero"></path><path stroke="#000000" stroke-width="2.0" stroke-linejoin="round" stroke-linecap="butt" d="m534.06036 304.83466l0 0c0 -14.141968 9.687561 -25.606323 21.637817 -25.606323l0 0c5.7387085 0 11.24231 2.697815 15.300232 7.499939c4.0578613 4.8020935 6.3375244 11.315155 6.3375244 18.106384l0 0c0 14.141968 -9.687561 25.606293 -21.637756 25.606293l0 0c-11.950256 0 -21.637817 -11.464325 -21.637817 -25.606293z" fill-rule="nonzero"></path><path fill="#000000" fill-opacity="0.0" d="m372.2152 306.1076l113.543335 -1.448822" fill-rule="nonzero"></path><path stroke="#3c78d8" stroke-width="4.0" stroke-linejoin="round" stroke-linecap="butt" d="m372.2152 306.1076l113.543335 -1.448822" fill-rule="nonzero"></path><path fill="#000000" fill-opacity="0.0" d="m251.84428 45.693733c21.924362 32.91127 68.45909 41.90117 106.7892 51.487892c14.332062 3.584587 27.786713 11.982597 38.23233 22.44262c4.3948975 4.4009476 7.6260376 15.987297 13.184662 13.202843c30.759216 -15.408028 60.35544 -33.409576 92.28531 -46.208733c23.684296 -9.493912 52.327667 -3.1008987 75.14792 -14.5214c9.376526 -4.6925125 17.98059 -10.863579 26.366882 -17.16098c3.7374878 -2.8065376 4.555481 -10.563271 9.227051 -10.563271c4.05188 0 5.045227 6.373207 7.9103394 9.242245c6.338379 6.3471603 17.405457 5.2816353 26.369324 5.2816353c1.7573242 0 3.8095703 -0.9759064 5.2719116 0c12.264954 8.185364 -19.775818 24.844017 -19.775818 39.603592c0 6.6156845 15.104248 -3.356964 19.775818 1.3210297c4.39447 4.4005356 -10.403931 7.6360397 -13.18219 13.20285c-2.9468994 5.9046783 -2.947998 13.8989105 0 19.803032c3.27063 6.550354 11.862976 11.158508 11.862976 18.48201c0 0.7124481 -18.456604 -4.1720886 -18.456604 -1.3210297c0 8.801575 17.949585 12.584579 15.820618 21.12407c-2.1552124 8.644989 -16.119812 8.220871 -22.411682 14.521408c-3.1072998 3.1115875 -4.253601 8.120377 -7.9103394 10.560791c-8.250488 5.506195 -19.386658 -4.191086 -29.005249 -6.600189c-15.494324 -3.8807373 -31.487793 -6.600189 -47.45941 -6.600189c-5.977417 0 -17.139832 -0.70651245 -17.139832 5.2791595c0 4.594696 8.733398 2.8457336 13.184692 3.9606018c10.927673 2.736969 22.629272 5.114624 31.641235 11.881821c22.725403 17.06488 41.88629 42.375656 48.778564 69.96991c4.4785767 17.930481 0 36.965668 0 55.448517c0 32.76877 -1.9110107 71.88104 -25.05011 95.05209c-8.723267 8.73526 -0.21484375 24.85318 -2.6359253 36.96649c-3.3325195 16.672882 -5.1051636 33.671906 -9.227051 50.16687c-6.393738 25.585999 -20.727295 48.675354 -34.279663 71.29089c-4.319763 7.208618 -13.799194 10.166382 -18.456604 17.16101c-15.164368 22.774353 -39.401 42.203613 -65.918396 48.848328c-23.907715 5.9907837 -49.663147 8.804016 -73.828735 3.9605713c-11.384552 -2.2817383 -21.03482 -10.186218 -30.322021 -17.163452c-7.247101 -5.444519 -17.80185 -5.11792 -25.05014 -10.560791c-18.231628 -13.690369 -30.866364 -33.820007 -43.504242 -52.8089c-25.653625 -38.545593 -23.070435 -89.717224 -34.279663 -134.65817c-10.021851 -40.18042 -21.616913 -79.95636 -31.638763 -120.13678c-8.856537 -35.50833 10.880966 -76.17665 34.27719 -104.29434c8.788452 -10.562027 18.32248 -23.067383 31.641235 -26.403214c3.0744324 -0.7700348 9.328674 -2.443695 7.910309 -5.2816467c-7.673065 -15.35289 -36.085266 6.362625 -51.417007 -1.3210297c-8.48349 -4.2515717 -0.899704 -20.12407 -6.59111 -27.724243c-3.892746 -5.198303 -14.240234 -3.4271393 -17.139832 -9.239761c-1.9637451 -3.9366302 10.546265 -3.5207672 10.546265 -7.921219c0 -5.3537445 1.3405914 -10.648827 2.6384125 -15.84243c1.8630219 -7.455368 -7.6985626 -15.150841 -5.2743683 -22.44262c1.677414 -5.0454865 9.323547 -9.964104 6.59111 -14.52388c-3.7082825 -6.1882095 -18.278275 -12.057877 -13.182205 -17.16098c2.4857788 -2.4892006 7.1359863 0.8545456 10.546249 0c8.870865 -2.2228546 14.234283 -11.744221 22.411728 -15.842426" fill-rule="evenodd"></path><path stroke="#000000" stroke-width="4.0" stroke-linejoin="round" stroke-linecap="butt" d="m251.84428 45.693733c21.924362 32.91127 68.45909 41.90117 106.7892 51.487892c14.332062 3.584587 27.786713 11.982597 38.23233 22.44262c4.3948975 4.4009476 7.6260376 15.987297 13.184662 13.202843c30.759216 -15.408028 60.35544 -33.409576 92.28531 -46.208733c23.684296 -9.493912 52.327667 -3.1008987 75.14792 -14.5214c9.376526 -4.6925125 17.98059 -10.863579 26.366882 -17.16098c3.7374878 -2.8065376 4.555481 -10.563271 9.227051 -10.563271c4.05188 0 5.045227 6.373207 7.9103394 9.242245c6.338379 6.3471603 17.405457 5.2816353 26.369324 5.2816353c1.7573242 0 3.8095703 -0.9759064 5.2719116 0c12.264954 8.185364 -19.775818 24.844017 -19.775818 39.603592c0 6.6156845 15.104248 -3.356964 19.775818 1.3210297c4.39447 4.4005356 -10.403931 7.6360397 -13.18219 13.20285c-2.9468994 5.9046783 -2.947998 13.8989105 0 19.803032c3.27063 6.550354 11.862976 11.158508 11.862976 18.48201c0 0.7124481 -18.456604 -4.1720886 -18.456604 -1.3210297c0 8.801575 17.949585 12.584579 15.820618 21.12407c-2.1552124 8.644989 -16.119812 8.220871 -22.411682 14.521408c-3.1072998 3.1115875 -4.253601 8.120377 -7.9103394 10.560791c-8.250488 5.506195 -19.386658 -4.191086 -29.005249 -6.600189c-15.494324 -3.8807373 -31.487793 -6.600189 -47.45941 -6.600189c-5.977417 0 -17.139832 -0.70651245 -17.139832 5.2791595c0 4.594696 8.733398 2.8457336 13.184692 3.9606018c10.927673 2.736969 22.629272 5.114624 31.641235 11.881821c22.725403 17.06488 41.88629 42.375656 48.778564 69.96991c4.4785767 17.930481 0 36.965668 0 55.448517c0 32.76877 -1.9110107 71.88104 -25.05011 95.05209c-8.723267 8.73526 -0.21484375 24.85318 -2.6359253 36.96649c-3.3325195 16.672882 -5.1051636 33.671906 -9.227051 50.16687c-6.393738 25.585999 -20.727295 48.675354 -34.279663 71.29089c-4.319763 7.208618 -13.799194 10.166382 -18.456604 17.16101c-15.164368 22.774353 -39.401 42.203613 -65.918396 48.848328c-23.907715 5.9907837 -49.663147 8.804016 -73.828735 3.9605713c-11.384552 -2.2817383 -21.03482 -10.186218 -30.322021 -17.163452c-7.247101 -5.444519 -17.80185 -5.11792 -25.05014 -10.560791c-18.231628 -13.690369 -30.866364 -33.820007 -43.504242 -52.8089c-25.653625 -38.545593 -23.070435 -89.717224 -34.279663 -134.65817c-10.021851 -40.18042 -21.616913 -79.95636 -31.638763 -120.13678c-8.856537 -35.50833 10.880966 -76.17665 34.27719 -104.29434c8.788452 -10.562027 18.32248 -23.067383 31.641235 -26.403214c3.0744324 -0.7700348 9.328674 -2.443695 7.910309 -5.2816467c-7.673065 -15.35289 -36.085266 6.362625 -51.417007 -1.3210297c-8.48349 -4.2515717 -0.899704 -20.12407 -6.59111 -27.724243c-3.892746 -5.198303 -14.240234 -3.4271393 -17.139832 -9.239761c-1.9637451 -3.9366302 10.546265 -3.5207672 10.546265 -7.921219c0 -5.3537445 1.3405914 -10.648827 2.6384125 -15.84243c1.8630219 -7.455368 -7.6985626 -15.150841 -5.2743683 -22.44262c1.677414 -5.0454865 9.323547 -9.964104 6.59111 -14.52388c-3.7082825 -6.1882095 -18.278275 -12.057877 -13.182205 -17.16098c2.4857788 -2.4892006 7.1359863 0.8545456 10.546249 0c8.870865 -2.2228546 14.234283 -11.744221 22.411728 -15.842426" fill-rule="evenodd"></path><path fill="#9fc5e8" d="m310.61484 189.34065c-11.212616 -5.0100555 -33.161438 14.5516205 -45.805786 32.921265c-12.644348 18.369644 -30.29921 46.998245 -30.060364 77.296585c0.23884583 30.29834 18.133423 87.316284 31.493439 104.49344c13.360016 17.177155 39.839905 11.929565 48.666656 -1.4304504c8.826782 -13.360016 1.4313354 -53.67978 4.293976 -78.729645c2.8626404 -25.049866 14.313202 -49.14438 12.881897 -71.569565c-1.4313354 -22.425201 -10.257233 -57.971573 -21.469818 -62.98163z" fill-rule="nonzero"></path><path stroke="#000000" stroke-width="2.0" stroke-linejoin="round" stroke-linecap="butt" d="m310.61484 189.34065c-11.212616 -5.0100555 -33.161438 14.5516205 -45.805786 32.921265c-12.644348 18.369644 -30.29921 46.998245 -30.060364 77.296585c0.23884583 30.29834 18.133423 87.316284 31.493439 104.49344c13.360016 17.177155 39.839905 11.929565 48.666656 -1.4304504c8.826782 -13.360016 1.4313354 -53.67978 4.293976 -78.729645c2.8626404 -25.049866 14.313202 -49.14438 12.881897 -71.569565c-1.4313354 -22.425201 -10.257233 -57.971573 -21.469818 -62.98163z" fill-rule="nonzero"></path><path fill="#8e7cc3" d="m302.46982 117.19399c-0.4772644 12.535774 34.352142 25.7956 41.509186 57.85842c7.1570435 32.062805 4.057312 96.669815 1.433075 134.51848c-2.624237 37.848663 -16.939636 75.457306 -17.178497 92.57349c-0.23883057 17.11615 10.735352 13.257599 15.745422 10.123566c5.010071 -3.1340637 9.543304 -27.481537 14.314972 -28.927887c4.771637 -1.4463501 9.782135 19.767517 14.314941 20.249786c4.5328064 0.4822693 5.248047 -19.043915 12.881897 -17.356201c7.63385 1.6876831 27.67279 26.759247 32.921265 27.482422c5.248474 0.72317505 3.5791626 -16.634369 -1.4304504 -23.143372c-5.009613 -6.509033 -20.03894 -2.6513672 -28.627289 -15.910736c-8.588379 -13.259399 -21.47113 -43.154022 -22.902893 -63.6456c-1.4317627 -20.491577 1.6684265 -47.97354 14.312347 -59.303864c12.64389 -11.330338 45.32852 4.098572 61.551178 -8.678101c16.222656 -12.776688 25.526245 -53.276688 35.78476 -67.98198c10.258545 -14.705307 15.507874 -12.05307 25.766418 -20.249786c10.258545 -8.196716 26.719177 -23.1447 35.78479 -28.930534c9.065613 -5.785843 21.233154 0.48314667 18.608887 -5.7845154c-2.6242065 -6.2676697 -10.020081 -36.40187 -34.35431 -31.821472c-24.334229 4.580406 -87.55557 53.036217 -111.65091 59.303886c-24.095367 6.2676544 -22.185944 -13.742538 -32.921265 -21.697899c-10.735352 -7.955368 -18.846893 -24.587952 -31.490814 -26.034302c-12.643921 -1.4463501 -43.895447 4.820427 -44.37271 17.356201z" fill-rule="nonzero"></path><path stroke="#000000" stroke-width="2.0" stroke-linejoin="round" stroke-linecap="butt" d="m302.46982 117.19399c-0.4772644 12.535774 34.352142 25.7956 41.509186 57.85842c7.1570435 32.062805 4.057312 96.669815 1.433075 134.51848c-2.624237 37.848663 -16.939636 75.457306 -17.178497 92.57349c-0.23883057 17.11615 10.735352 13.257599 15.745422 10.123566c5.010071 -3.1340637 9.543304 -27.481537 14.314972 -28.927887c4.771637 -1.4463501 9.782135 19.767517 14.314941 20.249786c4.5328064 0.4822693 5.248047 -19.043915 12.881897 -17.356201c7.63385 1.6876831 27.67279 26.759247 32.921265 27.482422c5.248474 0.72317505 3.5791626 -16.634369 -1.4304504 -23.143372c-5.009613 -6.509033 -20.03894 -2.6513672 -28.627289 -15.910736c-8.588379 -13.259399 -21.47113 -43.154022 -22.902893 -63.6456c-1.4317627 -20.491577 1.6684265 -47.97354 14.312347 -59.303864c12.64389 -11.330338 45.32852 4.098572 61.551178 -8.678101c16.222656 -12.776688 25.526245 -53.276688 35.78476 -67.98198c10.258545 -14.705307 15.507874 -12.05307 25.766418 -20.249786c10.258545 -8.196716 26.719177 -23.1447 35.78479 -28.930534c9.065613 -5.785843 21.233154 0.48314667 18.608887 -5.7845154c-2.6242065 -6.2676697 -10.020081 -36.40187 -34.35431 -31.821472c-24.334229 4.580406 -87.55557 53.036217 -111.65091 59.303886c-24.095367 6.2676544 -22.185944 -13.742538 -32.921265 -21.697899c-10.735352 -7.955368 -18.846893 -24.587952 -31.490814 -26.034302c-12.643921 -1.4463501 -43.895447 4.820427 -44.37271 17.356201z" fill-rule="nonzero"></path><path fill="#b4a7d6" d="m297.67532 440.30185c-0.776062 3.2483826 -6.983734 8.996826 -4.656433 19.490356c2.3272705 10.4935 15.775177 30.978607 18.620148 43.470703c2.8450012 12.492096 -4.1368713 25.73526 -1.5502625 31.481903c2.586609 5.746643 11.638794 -0.7496948 17.069916 2.9979248c5.431122 3.7475586 10.085693 14.990295 15.516815 19.48761c5.431122 4.4972534 12.414398 1.9995117 17.069916 7.4960938c4.6555176 5.496582 5.948822 23.234741 10.86319 25.483398c4.9143677 2.2485962 11.122498 -13.74054 18.622986 -11.991577c7.500519 1.7490234 18.362274 20.986572 26.380005 22.485535c8.017731 1.4989624 13.708649 -10.49353 21.72638 -13.491882c8.017731 -2.998352 17.069427 -1.4998169 26.379974 -4.498169c9.310577 -2.998352 19.65512 -4.9973755 29.483368 -13.491882c9.828278 -8.494446 20.43399 -28.480835 29.486176 -37.474915c9.052185 -8.994141 19.395813 -7.7452393 24.826904 -16.489746c5.4311523 -8.744537 6.4665527 -29.98114 7.7598267 -35.977386" fill-rule="nonzero"></path><path stroke="#000000" stroke-width="2.0" stroke-linejoin="round" stroke-linecap="butt" d="m297.67532 440.30185c-0.776062 3.2483826 -6.983734 8.996826 -4.656433 19.490356c2.3272705 10.4935 15.775177 30.978607 18.620148 43.470703c2.8450012 12.492096 -4.1368713 25.73526 -1.5502625 31.481903c2.586609 5.746643 11.638794 -0.7496948 17.069916 2.9979248c5.431122 3.7475586 10.085693 14.990295 15.516815 19.48761c5.431122 4.4972534 12.414398 1.9995117 17.069916 7.4960938c4.6555176 5.496582 5.948822 23.234741 10.86319 25.483398c4.9143677 2.2485962 11.122498 -13.74054 18.622986 -11.991577c7.500519 1.7490234 18.362274 20.986572 26.380005 22.485535c8.017731 1.4989624 13.708649 -10.49353 21.72638 -13.491882c8.017731 -2.998352 17.069427 -1.4998169 26.379974 -4.498169c9.310577 -2.998352 19.65512 -4.9973755 29.483368 -13.491882c9.828278 -8.494446 20.43399 -28.480835 29.486176 -37.474915c9.052185 -8.994141 19.395813 -7.7452393 24.826904 -16.489746c5.4311523 -8.744537 6.4665527 -29.98114 7.7598267 -35.977386" fill-rule="nonzero"></path><path fill="#b4a7d6" d="m292.39108 451.97528c2.3515015 -3.712494 3.820404 -16.849182 14.1091 -22.275055c10.288727 -5.4258423 37.04019 -6.5675354 47.623108 -10.28006c10.582916 -3.712494 13.228638 -9.995819 15.87439 -11.994965" fill-rule="nonzero"></path><path stroke="#000000" stroke-width="2.0" stroke-linejoin="round" stroke-linecap="butt" d="m292.39108 451.97528c2.3515015 -3.712494 3.820404 -16.849182 14.1091 -22.275055c10.288727 -5.4258423 37.04019 -6.5675354 47.623108 -10.28006c10.582916 -3.712494 13.228638 -9.995819 15.87439 -11.994965" fill-rule="nonzero"></path><path fill="#b4a7d6" d="m546.5542 492.3654c3.0723267 -0.80914307 13.234558 6.470642 18.433899 -4.854828c5.199402 -11.32547 17.252625 -55.278442 12.76239 -63.097992c-4.4902344 -7.819519 -30.250183 12.675354 -39.703674 16.180817c-9.453491 3.5054321 -8.9817505 9.166443 -17.017334 4.8518677c-8.0355835 -4.314575 -21.034058 -30.470001 -31.19629 -30.73938c-10.162231 -0.26937866 -19.614868 27.235413 -29.77713 29.123077c-10.162231 1.8876343 -21.97931 -14.2916565 -31.19629 -17.79712c-9.216949 -3.5054321 -16.069916 -0.26937866 -24.1055 -3.2355652c-8.035614 -2.9661865 -17.72696 -12.943237 -24.108124 -14.561523c-6.3811646 -1.6182861 -11.815796 4.0432434 -14.178955 4.8518677" fill-rule="nonzero"></path><path stroke="#000000" stroke-width="2.0" stroke-linejoin="round" stroke-linecap="butt" d="m546.5542 492.3654c3.0723267 -0.80914307 13.234558 6.470642 18.433899 -4.854828c5.199402 -11.32547 17.252625 -55.278442 12.76239 -63.097992c-4.4902344 -7.819519 -30.250183 12.675354 -39.703674 16.180817c-9.453491 3.5054321 -8.9817505 9.166443 -17.017334 4.8518677c-8.0355835 -4.314575 -21.034058 -30.470001 -31.19629 -30.73938c-10.162231 -0.26937866 -19.614868 27.235413 -29.77713 29.123077c-10.162231 1.8876343 -21.97931 -14.2916565 -31.19629 -17.79712c-9.216949 -3.5054321 -16.069916 -0.26937866 -24.1055 -3.2355652c-8.035614 -2.9661865 -17.72696 -12.943237 -24.108124 -14.561523c-6.3811646 -1.6182861 -11.815796 4.0432434 -14.178955 4.8518677" fill-rule="nonzero"></path><path fill="#b4a7d6" d="m380.8714 489.87665l0 0c0 -27.379425 19.23413 -49.5748 42.960632 -49.5748l0 0c11.39386 0 22.321075 5.2230225 30.377747 14.520111c8.056671 9.297089 12.582886 21.906616 12.582886 35.054688l0 0c0 27.379395 -19.23413 49.574768 -42.960632 49.574768l0 0c-23.726501 0 -42.960632 -22.195374 -42.960632 -49.574768z" fill-rule="nonzero"></path><path stroke="#b4a7d6" stroke-width="2.0" stroke-linejoin="round" stroke-linecap="butt" d="m380.8714 489.87665l0 0c0 -27.379425 19.23413 -49.5748 42.960632 -49.5748l0 0c11.39386 0 22.321075 5.2230225 30.377747 14.520111c8.056671 9.297089 12.582886 21.906616 12.582886 35.054688l0 0c0 27.379395 -19.23413 49.574768 -42.960632 49.574768l0 0c-23.726501 0 -42.960632 -22.195374 -42.960632 -49.574768z" fill-rule="nonzero"></path><path fill="#b4a7d6" d="m420.7126 495.80054l0 0c0 -27.379425 19.23413 -49.57483 42.960632 -49.57483l0 0c11.39389 0 22.321075 5.223053 30.377777 14.520142c8.056671 9.297089 12.582855 21.906616 12.582855 35.054688l0 0c0 27.379395 -19.23413 49.574768 -42.960632 49.574768l0 0c-23.726501 0 -42.960632 -22.195374 -42.960632 -49.574768z" fill-rule="nonzero"></path><path stroke="#b4a7d6" stroke-width="2.0" stroke-linejoin="round" stroke-linecap="butt" d="m420.7126 495.80054l0 0c0 -27.379425 19.23413 -49.57483 42.960632 -49.57483l0 0c11.39389 0 22.321075 5.223053 30.377777 14.520142c8.056671 9.297089 12.582855 21.906616 12.582855 35.054688l0 0c0 27.379395 -19.23413 49.574768 -42.960632 49.574768l0 0c-23.726501 0 -42.960632 -22.195374 -42.960632 -49.574768z" fill-rule="nonzero"></path><path fill="#b4a7d6" d="m311.27908 432.87775l74.81888 -14.204712l17.181122 74.17322z" fill-rule="nonzero"></path><path stroke="#b4a7d6" stroke-width="2.0" stroke-linejoin="round" stroke-linecap="butt" d="m311.27908 432.87775l74.81888 -14.204712l17.181122 74.17322z" fill-rule="nonzero"></path><path fill="#b4a7d6" d="m315.69968 482.89117l57.88977 -67.811035l82.01575 34.92914z" fill-rule="nonzero"></path><path stroke="#b4a7d6" stroke-width="2.0" stroke-linejoin="round" stroke-linecap="butt" d="m315.69968 482.89117l57.88977 -67.811035l82.01575 34.92914z" fill-rule="nonzero"></path><path fill="#b4a7d6" d="m301.4134 440.76642l0 0c0 -3.7659912 6.8673096 -6.8189087 15.338593 -6.8189087l0 0c8.471252 0 15.338562 3.0529175 15.338562 6.8189087l0 0c0 3.7659607 -6.8673096 6.818878 -15.338562 6.818878l0 0c-8.471283 0 -15.338593 -3.0529175 -15.338593 -6.818878z" fill-rule="nonzero"></path><path stroke="#b4a7d6" stroke-width="2.0" stroke-linejoin="round" stroke-linecap="butt" d="m301.4134 440.76642l0 0c0 -3.7659912 6.8673096 -6.8189087 15.338593 -6.8189087l0 0c8.471252 0 15.338562 3.0529175 15.338562 6.8189087l0 0c0 3.7659607 -6.8673096 6.818878 -15.338562 6.818878l0 0c-8.471283 0 -15.338593 -3.0529175 -15.338593 -6.818878z" fill-rule="nonzero"></path><path fill="#b4a7d6" d="m323.70547 431.9152l47.46457 -16.960632l42.031494 8.850403l-94.92914 33.921265z" fill-rule="nonzero"></path><path stroke="#b4a7d6" stroke-width="2.0" stroke-linejoin="round" stroke-linecap="butt" d="m323.70547 431.9152l47.46457 -16.960632l42.031494 8.850403l-94.92914 33.921265z" fill-rule="nonzero"></path><path fill="#b4a7d6" d="m430.54318 256.6436c6.227478 4.071747 11.017487 -0.24102783 8.62204 20.118134c-2.3954468 20.35913 -12.695099 91.25809 -22.994751 102.03674c-10.299652 10.778656 -31.617676 -21.077423 -38.80313 -37.364838c-7.185486 -16.287415 -8.381897 -45.509186 -4.309723 -60.35959c4.072174 -14.850372 19.161865 -24.67102 28.742798 -28.742767c9.580902 -4.071747 22.51529 0.24058533 28.742767 4.312317z" fill-rule="nonzero"></path><path stroke="#000000" stroke-width="2.0" stroke-linejoin="round" stroke-linecap="butt" d="m430.54318 256.6436c6.227478 4.071747 11.017487 -0.24102783 8.62204 20.118134c-2.3954468 20.35913 -12.695099 91.25809 -22.994751 102.03674c-10.299652 10.778656 -31.617676 -21.077423 -38.80313 -37.364838c-7.185486 -16.287415 -8.381897 -45.509186 -4.309723 -60.35959c4.072174 -14.850372 19.161865 -24.67102 28.742798 -28.742767c9.580902 -4.071747 22.51529 0.24058533 28.742767 4.312317z" fill-rule="nonzero"></path><path fill="#9fc5e8" d="m485.5682 222.10886c-4.872589 -21.1241 -17.930939 19.241348 -23.388 30.117386c-5.4570312 10.876022 -4.8718567 10.249985 -9.35434 35.13884c-4.4824524 24.888885 -19.684357 91.81549 -17.540466 114.1944c2.1438904 22.378906 21.048706 23.84378 30.403778 20.07901c9.3550415 -3.7647705 22.413391 -9.412659 25.726562 -42.667603c3.313202 -33.254944 -0.97494507 -135.73792 -5.847534 -156.86203z" fill-rule="nonzero"></path><path stroke="#000000" stroke-width="2.0" stroke-linejoin="round" stroke-linecap="butt" d="m485.5682 222.10886c-4.872589 -21.1241 -17.930939 19.241348 -23.388 30.117386c-5.4570312 10.876022 -4.8718567 10.249985 -9.35434 35.13884c-4.4824524 24.888885 -19.684357 91.81549 -17.540466 114.1944c2.1438904 22.378906 21.048706 23.84378 30.403778 20.07901c9.3550415 -3.7647705 22.413391 -9.412659 25.726562 -42.667603c3.313202 -33.254944 -0.97494507 -135.73792 -5.847534 -156.86203z" fill-rule="nonzero"></path><path fill="#9fc5e8" d="m487.93097 187.729c-4.7904663 -1.4370117 17.963257 -22.754593 27.304443 -31.616806c9.341248 -8.862198 22.275635 -20.59842 28.742798 -21.556427c6.467224 -0.9580078 10.060364 10.778656 10.060364 15.808395c0 5.0297546 0.95758057 8.142609 -10.060364 14.370087c-11.017944 6.227478 -51.256775 24.431763 -56.04724 22.994751z" fill-rule="nonzero"></path><path stroke="#000000" stroke-width="2.0" stroke-linejoin="round" stroke-linecap="butt" d="m487.93097 187.729c-4.7904663 -1.4370117 17.963257 -22.754593 27.304443 -31.616806c9.341248 -8.862198 22.275635 -20.59842 28.742798 -21.556427c6.467224 -0.9580078 10.060364 10.778656 10.060364 15.808395c0 5.0297546 0.95758057 8.142609 -10.060364 14.370087c-11.017944 6.227478 -51.256775 24.431763 -56.04724 22.994751z" fill-rule="nonzero"></path><path fill="#9fc5e8" d="m298.12604 139.5655c-6.238373 -1.6073456 -11.138794 5.426056 -4.008911 16.879288c7.1299133 11.453217 40.549988 50.23271 46.78833 51.840057c6.238373 1.6073303 -2.228241 -30.742798 -9.358154 -42.196014c-7.1299133 -11.453232 -27.182922 -24.916 -33.421265 -26.52333z" fill-rule="nonzero"></path><path stroke="#000000" stroke-width="2.0" stroke-linejoin="round" stroke-linecap="butt" d="m298.12604 139.5655c-6.238373 -1.6073456 -11.138794 5.426056 -4.008911 16.879288c7.1299133 11.453217 40.549988 50.23271 46.78833 51.840057c6.238373 1.6073303 -2.228241 -30.742798 -9.358154 -42.196014c-7.1299133 -11.453232 -27.182922 -24.916 -33.421265 -26.52333z" fill-rule="nonzero"></path><path fill="#8e7cc3" d="m612.60657 46.876637l0 0c1.0089111 -5.114067 11.041992 -7.440777 22.409485 -5.19685l0 0c11.367493 2.2439308 19.76477 8.208767 18.75592 13.322834l0 0c-1.0089111 5.114071 -11.041992 7.4407806 -22.409485 5.1968536l0 0c-11.367493 -2.2439308 -19.76477 -8.208767 -18.75592 -13.322838z" fill-rule="nonzero"></path><path stroke="#000000" stroke-width="2.0" stroke-linejoin="round" stroke-linecap="butt" d="m612.60657 46.876637l0 0c1.0089111 -5.114067 11.041992 -7.440777 22.409485 -5.19685l0 0c11.367493 2.2439308 19.76477 8.208767 18.75592 13.322834l0 0c-1.0089111 5.114071 -11.041992 7.4407806 -22.409485 5.1968536l0 0c-11.367493 -2.2439308 -19.76477 -8.208767 -18.75592 -13.322838z" fill-rule="nonzero"></path><path fill="#8e7cc3" d="m641.6759 106.95577l0 0c-4.453064 0.6349106 -6.751587 10.449387 -5.13385 21.921257l0 0c1.6176758 11.471863 6.5390625 20.256958 10.992126 19.62204l0 0c4.453064 -0.63490295 6.751526 -10.449387 5.13385 -21.92125l0 0c-1.6177368 -11.47187 -6.5390625 -20.256958 -10.992126 -19.622047z" fill-rule="nonzero"></path><path stroke="#000000" stroke-width="2.0" stroke-linejoin="round" stroke-linecap="butt" d="m641.6759 106.95577l0 0c-4.453064 0.6349106 -6.751587 10.449387 -5.13385 21.921257l0 0c1.6176758 11.471863 6.5390625 20.256958 10.992126 19.62204l0 0c4.453064 -0.63490295 6.751526 -10.449387 5.13385 -21.92125l0 0c-1.6177368 -11.47187 -6.5390625 -20.256958 -10.992126 -19.622047z" fill-rule="nonzero"></path><path fill="#8e7cc3" d="m234.76712 96.5495l0 0c5.1923523 0.43486786 8.6189575 10.150642 7.653549 21.70079l0 0c-0.9654083 11.55014 -5.95726 20.560852 -11.149612 20.125977l0 0c-5.1923523 -0.43486023 -8.6189575 -10.150635 -7.653549 -21.700783l0 0c0.9654236 -11.55014 5.95726 -20.560852 11.149612 -20.125984z" fill-rule="nonzero"></path><path stroke="#000000" stroke-width="2.0" stroke-linejoin="round" stroke-linecap="butt" d="m234.76712 96.5495l0 0c5.1923523 0.43486786 8.6189575 10.150642 7.653549 21.70079l0 0c-0.9654083 11.55014 -5.95726 20.560852 -11.149612 20.125977l0 0c-5.1923523 -0.43486023 -8.6189575 -10.150635 -7.653549 -21.700783l0 0c0.9654236 -11.55014 5.95726 -20.560852 11.149612 -20.125984z" fill-rule="nonzero"></path><path fill="#8e7cc3" d="m217.17139 60.829254l0 0c-2.4526672 -4.6009254 3.836502 -12.758507 14.047241 -18.220474l0 0c10.210739 -5.4619637 20.47647 -6.159977 22.929138 -1.5590553l0 0c2.4526672 4.6009254 -3.836502 12.758507 -14.047256 18.220474l0 0c-10.210739 5.4619637 -20.476456 6.159977 -22.929123 1.5590553z" fill-rule="nonzero"></path><path stroke="#000000" stroke-width="2.0" stroke-linejoin="round" stroke-linecap="butt" d="m217.17139 60.829254l0 0c-2.4526672 -4.6009254 3.836502 -12.758507 14.047241 -18.220474l0 0c10.210739 -5.4619637 20.47647 -6.159977 22.929138 -1.5590553l0 0c2.4526672 4.6009254 -3.836502 12.758507 -14.047256 18.220474l0 0c-10.210739 5.4619637 -20.476456 6.159977 -22.929123 1.5590553z" fill-rule="nonzero"></path><path fill="#b4a7d6" d="m225.47485 144.03671l0 0c4.861847 -1.8699341 12.180405 5.3851624 16.346466 16.204727l0 0c4.166046 10.819565 3.602005 21.10643 -1.2598419 22.97638l0 0c-4.861847 1.8699341 -12.180405 -5.3851624 -16.346466 -16.204727l0 0c-4.166046 -10.819565 -3.6019897 -21.10643 1.2598419 -22.97638z" fill-rule="nonzero"></path><path stroke="#000000" stroke-width="2.0" stroke-linejoin="round" stroke-linecap="butt" d="m225.47485 144.03671l0 0c4.861847 -1.8699341 12.180405 5.3851624 16.346466 16.204727l0 0c4.166046 10.819565 3.602005 21.10643 -1.2598419 22.97638l0 0c-4.861847 1.8699341 -12.180405 -5.3851624 -16.346466 -16.204727l0 0c-4.166046 -10.819565 -3.6019897 -21.10643 1.2598419 -22.97638z" fill-rule="nonzero"></path><path fill="#b4a7d6" d="m647.95264 173.14688l0 0c3.4702759 3.7224884 -0.59088135 13.142136 -9.070862 21.039368l0 0c-8.47998 7.897232 -18.167542 11.28154 -21.637817 7.5590515l0 0c-3.4702759 -3.7224884 0.5909424 -13.142136 9.070862 -21.039368l0 0c8.47998 -7.897232 18.167542 -11.28154 21.637817 -7.5590515z" fill-rule="nonzero"></path><path stroke="#000000" stroke-width="2.0" stroke-linejoin="round" stroke-linecap="butt" d="m647.95264 173.14688l0 0c3.4702759 3.7224884 -0.59088135 13.142136 -9.070862 21.039368l0 0c-8.47998 7.897232 -18.167542 11.28154 -21.637817 7.5590515l0 0c-3.4702759 -3.7224884 0.5909424 -13.142136 9.070862 -21.039368l0 0c8.47998 -7.897232 18.167542 -11.28154 21.637817 -7.5590515z" fill-rule="nonzero"></path><path fill="#b4a7d6" d="m135.58542 227.96332l28.920212 -46.409668l6.1496124 8.779526l45.58371 -31.905289l12.29921 17.559052l-45.58371 31.905289l6.1496124 8.779526z" fill-rule="nonzero"></path><path stroke="#000000" stroke-width="2.0" stroke-linejoin="round" stroke-linecap="butt" d="m135.58542 227.96332l28.920212 -46.409668l6.1496124 8.779526l45.58371 -31.905289l12.29921 17.559052l-45.58371 31.905289l6.1496124 8.779526z" fill-rule="nonzero"></path><path fill="#8e7cc3" d="m118.082214 119.50968l49.430237 -23.361519l0.41732788 10.708664l55.593384 -2.150299l0.8346405 21.417328l-55.593384 2.150299l0.41732788 10.708649z" fill-rule="nonzero"></path><path stroke="#000000" stroke-width="2.0" stroke-linejoin="round" stroke-linecap="butt" d="m118.082214 119.50968l49.430237 -23.361519l0.41732788 10.708664l55.593384 -2.150299l0.8346405 21.417328l-55.593384 2.150299l0.41732788 10.708649z" fill-rule="nonzero"></path><path fill="#8e7cc3" d="m118.85314 21.118378l53.290123 -12.334762l-1.8661499 10.559054l54.757126 9.704842l-3.7322845 21.11811l-54.757126 -9.704842l-1.8661346 10.559055z" fill-rule="nonzero"></path><path stroke="#000000" stroke-width="2.0" stroke-linejoin="round" stroke-linecap="butt" d="m118.85314 21.118378l53.290123 -12.334762l-1.8661499 10.559054l54.757126 9.704842l-3.7322845 21.11811l-54.757126 -9.704842l-1.8661346 10.559055z" fill-rule="nonzero"></path><path fill="#b4a7d6" d="m703.00696 279.33334l-46.050476 -29.509537l8.858276 -6.0393677l-31.319641 -45.970764l17.716553 -12.078751l31.319641 45.97078l8.858276 -6.0393677z" fill-rule="nonzero"></path><path stroke="#000000" stroke-width="2.0" stroke-linejoin="round" stroke-linecap="butt" d="m703.00696 279.33334l-46.050476 -29.509537l8.858276 -6.0393677l-31.319641 -45.970764l17.716553 -12.078751l31.319641 45.97078l8.858276 -6.0393677z" fill-rule="nonzero"></path><path fill="#8e7cc3" d="m761.5515 127.744064l-50.30127 21.418121l0 -10.716537l-55.65149 -0.016540527l0 -21.433075l55.65149 0.016540527l0 -10.71653z" fill-rule="nonzero"></path><path stroke="#000000" stroke-width="2.0" stroke-linejoin="round" stroke-linecap="butt" d="m761.5515 127.744064l-50.30127 21.418121l0 -10.716537l-55.65149 -0.016540527l0 -21.433075l55.65149 0.016540527l0 -10.71653z" fill-rule="nonzero"></path><path fill="#8e7cc3" d="m741.67633 17.338362l-44.654663 31.615751l-2.2677612 -10.480316l-54.337402 11.770077l-4.5354614 -20.96063l54.337463 -11.770077l-2.2677612 -10.480315z" fill-rule="nonzero"></path><path stroke="#000000" stroke-width="2.0" stroke-linejoin="round" stroke-linecap="butt" d="m741.67633 17.338362l-44.654663 31.615751l-2.2677612 -10.480316l-54.337402 11.770077l-4.5354614 -20.96063l54.337463 -11.770077l-2.2677612 -10.480315z" fill-rule="nonzero"></path><path fill="#000000" fill-opacity="0.0" d="m745.8688 25.868767l112.59839 0l0 36.440945l-112.59839 0z" fill-rule="nonzero"></path><path fill="#000000" d="m759.79065 52.788765l0 -12.0l-4.46875 0l0 -1.59375l10.765625 0l0 1.59375l-4.5 0l0 12.0l-1.796875 0zm7.099121 -4.921875q0 -2.734375 1.53125 -4.0625q1.265625 -1.09375 3.09375 -1.09375q2.03125 0 3.3125 1.34375q1.296875 1.328125 1.296875 3.671875q0 1.90625 -0.578125 3.0q-0.5625 1.078125 -1.65625 1.6875q-1.078125 0.59375 -2.375 0.59375q-2.0625 0 -3.34375 -1.328125q-1.28125 -1.328125 -1.28125 -3.8125zm1.71875 0q0 1.890625 0.828125 2.828125q0.828125 0.9375 2.078125 0.9375q1.25 0 2.0625 -0.9375q0.828125 -0.953125 0.828125 -2.890625q0 -1.828125 -0.828125 -2.765625q-0.828125 -0.9375 -2.0625 -0.9375q-1.25 0 -2.078125 0.9375q-0.828125 0.9375 -0.828125 2.828125zm14.605896 4.921875l0 -13.59375l5.109375 0q1.546875 0 2.484375 0.40625q0.953125 0.40625 1.484375 1.265625q0.53125 0.859375 0.53125 1.796875q0 0.875 -0.46875 1.65625q-0.46875 0.765625 -1.4375 1.234375q1.234375 0.359375 1.890625 1.234375q0.671875 0.875 0.671875 2.0625q0 0.953125 -0.40625 1.78125q-0.390625 0.8125 -0.984375 1.265625q-0.59375 0.4375 -1.5 0.671875q-0.890625 0.21875 -2.1875 0.21875l-5.1875 0zm1.796875 -7.890625l2.9375 0q1.203125 0 1.71875 -0.15625q0.6875 -0.203125 1.03125 -0.671875q0.359375 -0.46875 0.359375 -1.1875q0 -0.671875 -0.328125 -1.1875q-0.328125 -0.515625 -0.9375 -0.703125q-0.59375 -0.203125 -2.0625 -0.203125l-2.71875 0l0 4.109375zm0 6.28125l3.390625 0q0.875 0 1.21875 -0.0625q0.625 -0.109375 1.046875 -0.359375q0.421875 -0.265625 0.6875 -0.765625q0.265625 -0.5 0.265625 -1.140625q0 -0.765625 -0.390625 -1.328125q-0.390625 -0.5625 -1.078125 -0.78125q-0.6875 -0.234375 -1.984375 -0.234375l-3.15625 0l0 4.671875zm9.8810425 -3.3125q0 -2.734375 1.53125 -4.0625q1.265625 -1.09375 3.09375 -1.09375q2.03125 0 3.3125 1.34375q1.296875 1.328125 1.296875 3.671875q0 1.90625 -0.578125 3.0q-0.5625 1.078125 -1.65625 1.6875q-1.078125 0.59375 -2.375 0.59375q-2.0625 0 -3.34375 -1.328125q-1.28125 -1.328125 -1.28125 -3.8125zm1.71875 0q0 1.890625 0.828125 2.828125q0.828125 0.9375 2.078125 0.9375q1.25 0 2.0625 -0.9375q0.828125 -0.953125 0.828125 -2.890625q0 -1.828125 -0.828125 -2.765625q-0.828125 -0.9375 -2.0625 -0.9375q-1.25 0 -2.078125 0.9375q-0.828125 0.9375 -0.828125 2.828125zm15.672607 4.921875l0 -1.25q-0.9375 1.46875 -2.75 1.46875q-1.171875 0 -2.171875 -0.640625q-0.984375 -0.65625 -1.53125 -1.8125q-0.53125 -1.171875 -0.53125 -2.6875q0 -1.46875 0.484375 -2.671875q0.5 -1.203125 1.46875 -1.84375q0.984375 -0.640625 2.203125 -0.640625q0.890625 0 1.578125 0.375q0.703125 0.375 1.140625 0.984375l0 -4.875l1.65625 0l0 13.59375l-1.546875 0zm-5.28125 -4.921875q0 1.890625 0.796875 2.828125q0.8125 0.9375 1.890625 0.9375q1.09375 0 1.859375 -0.890625q0.765625 -0.890625 0.765625 -2.734375q0 -2.015625 -0.78125 -2.953125q-0.78125 -0.953125 -1.921875 -0.953125q-1.109375 0 -1.859375 0.90625q-0.75 0.90625 -0.75 2.859375zm9.188232 8.71875l-0.171875 -1.5625q0.546875 0.140625 0.953125 0.140625q0.546875 0 0.875 -0.1875q0.34375 -0.1875 0.5625 -0.515625q0.15625 -0.25 0.5 -1.25q0.046875 -0.140625 0.15625 -0.40625l-3.734375 -9.875l1.796875 0l2.046875 5.71875q0.40625 1.078125 0.71875 2.28125q0.28125 -1.15625 0.6875 -2.25l2.09375 -5.75l1.671875 0l-3.75 10.03125q-0.59375 1.625 -0.9375 2.234375q-0.4375 0.828125 -1.015625 1.203125q-0.578125 0.390625 -1.375 0.390625q-0.484375 0 -1.078125 -0.203125z" fill-rule="nonzero"></path><path fill="#000000" fill-opacity="0.0" d="m774.6116 114.97113l151.9685 0l0 36.44095l-151.9685 0z" fill-rule="nonzero"></path><path fill="#000000" d="m788.53345 141.89113l0 -12.0l-4.46875 0l0 -1.59375l10.765625 0l0 1.59375l-4.5 0l0 12.0l-1.796875 0zm7.09906 -4.921875q0 -2.734375 1.53125 -4.0625q1.265625 -1.09375 3.09375 -1.09375q2.03125 0 3.3125 1.34375q1.296875 1.328125 1.296875 3.671875q0 1.90625 -0.578125 3.0q-0.5625 1.078125 -1.65625 1.6875q-1.078125 0.59375 -2.375 0.59375q-2.0625 0 -3.34375 -1.328125q-1.28125 -1.328125 -1.28125 -3.8125zm1.71875 0q0 1.890625 0.828125 2.828125q0.828125 0.9375 2.078125 0.9375q1.25 0 2.0625 -0.9375q0.828125 -0.953125 0.828125 -2.890625q0 -1.828125 -0.828125 -2.765625q-0.828125 -0.9375 -2.0625 -0.9375q-1.25 0 -2.078125 0.9375q-0.828125 0.9375 -0.828125 2.828125zm14.605896 4.921875l0 -13.59375l5.109375 0q1.546875 0 2.484375 0.40625q0.953125 0.40625 1.484375 1.265625q0.53125 0.859375 0.53125 1.796875q0 0.875 -0.46875 1.65625q-0.46875 0.765625 -1.4375 1.234375q1.234375 0.359375 1.890625 1.234375q0.671875 0.875 0.671875 2.0625q0 0.953125 -0.40625 1.78125q-0.390625 0.8125 -0.984375 1.265625q-0.59375 0.4375 -1.5 0.671875q-0.890625 0.21875 -2.1875 0.21875l-5.1875 0zm1.796875 -7.890625l2.9375 0q1.203125 0 1.71875 -0.15625q0.6875 -0.203125 1.03125 -0.671875q0.359375 -0.46875 0.359375 -1.1875q0 -0.671875 -0.328125 -1.1875q-0.328125 -0.515625 -0.9375 -0.703125q-0.59375 -0.203125 -2.0625 -0.203125l-2.71875 0l0 4.109375zm0 6.28125l3.390625 0q0.875 0 1.21875 -0.0625q0.625 -0.109375 1.046875 -0.359375q0.421875 -0.265625 0.6875 -0.765625q0.265625 -0.5 0.265625 -1.140625q0 -0.765625 -0.390625 -1.328125q-0.390625 -0.5625 -1.078125 -0.78125q-0.6875 -0.234375 -1.984375 -0.234375l-3.15625 0l0 4.671875zm9.8811035 -3.3125q0 -2.734375 1.53125 -4.0625q1.265625 -1.09375 3.09375 -1.09375q2.03125 0 3.3125 1.34375q1.296875 1.328125 1.296875 3.671875q0 1.90625 -0.578125 3.0q-0.5625 1.078125 -1.65625 1.6875q-1.078125 0.59375 -2.375 0.59375q-2.0625 0 -3.34375 -1.328125q-1.28125 -1.328125 -1.28125 -3.8125zm1.71875 0q0 1.890625 0.828125 2.828125q0.828125 0.9375 2.078125 0.9375q1.25 0 2.0625 -0.9375q0.828125 -0.953125 0.828125 -2.890625q0 -1.828125 -0.828125 -2.765625q-0.828125 -0.9375 -2.0625 -0.9375q-1.25 0 -2.078125 0.9375q-0.828125 0.9375 -0.828125 2.828125zm15.672607 4.921875l0 -1.25q-0.9375 1.46875 -2.75 1.46875q-1.171875 0 -2.171875 -0.640625q-0.984375 -0.65625 -1.53125 -1.8125q-0.53125 -1.171875 -0.53125 -2.6875q0 -1.46875 0.484375 -2.671875q0.5 -1.203125 1.46875 -1.84375q0.984375 -0.640625 2.203125 -0.640625q0.890625 0 1.578125 0.375q0.703125 0.375 1.140625 0.984375l0 -4.875l1.65625 0l0 13.59375l-1.546875 0zm-5.28125 -4.921875q0 1.890625 0.796875 2.828125q0.8125 0.9375 1.890625 0.9375q1.09375 0 1.859375 -0.890625q0.765625 -0.890625 0.765625 -2.734375q0 -2.015625 -0.78125 -2.953125q-0.78125 -0.953125 -1.921875 -0.953125q-1.109375 0 -1.859375 0.90625q-0.75 0.90625 -0.75 2.859375zm9.188171 8.71875l-0.171875 -1.5625q0.546875 0.140625 0.953125 0.140625q0.546875 0 0.875 -0.1875q0.34375 -0.1875 0.5625 -0.515625q0.15625 -0.25 0.5 -1.25q0.046875 -0.140625 0.15625 -0.40625l-3.734375 -9.875l1.796875 0l2.046875 5.71875q0.40625 1.078125 0.71875 2.28125q0.28125 -1.15625 0.6875 -2.25l2.09375 -5.75l1.671875 0l-3.75 10.03125q-0.59375 1.625 -0.9375 2.234375q-0.4375 0.828125 -1.015625 1.203125q-0.578125 0.390625 -1.375 0.390625q-0.484375 0 -1.078125 -0.203125z" fill-rule="nonzero"></path><path fill="#000000" fill-opacity="0.0" d="m730.06036 255.8084l136.53546 0l0 42.07875l-136.53546 0z" fill-rule="nonzero"></path><path fill="#000000" d="m743.98224 282.7284l0 -12.0l-4.46875 0l0 -1.59375l10.765625 0l0 1.59375l-4.5 0l0 12.0l-1.796875 0zm7.099121 -4.921875q0 -2.734375 1.53125 -4.0625q1.265625 -1.09375 3.09375 -1.09375q2.03125 0 3.3125 1.34375q1.296875 1.328125 1.296875 3.671875q0 1.90625 -0.578125 3.0q-0.5625 1.078125 -1.65625 1.6875q-1.078125 0.59375 -2.375 0.59375q-2.0625 0 -3.34375 -1.328125q-1.28125 -1.328125 -1.28125 -3.8125zm1.71875 0q0 1.890625 0.828125 2.828125q0.828125 0.9375 2.078125 0.9375q1.25 0 2.0625 -0.9375q0.828125 -0.953125 0.828125 -2.890625q0 -1.828125 -0.828125 -2.765625q-0.828125 -0.9375 -2.0625 -0.9375q-1.25 0 -2.078125 0.9375q-0.828125 0.9375 -0.828125 2.828125zm14.605896 4.921875l0 -13.59375l1.796875 0l0 11.984375l6.703125 0l0 1.609375l-8.5 0zm16.688232 0l0 -1.453125q-1.140625 1.671875 -3.125 1.671875q-0.859375 0 -1.625 -0.328125q-0.75 -0.34375 -1.125 -0.84375q-0.359375 -0.5 -0.515625 -1.234375q-0.09375 -0.5 -0.09375 -1.5625l0 -6.109375l1.671875 0l0 5.46875q0 1.3125 0.09375 1.765625q0.15625 0.65625 0.671875 1.03125q0.515625 0.375 1.265625 0.375q0.75 0 1.40625 -0.375q0.65625 -0.390625 0.921875 -1.046875q0.28125 -0.671875 0.28125 -1.9375l0 -5.28125l1.671875 0l0 9.859375l-1.5 0zm3.9225464 0l0 -9.859375l1.5 0l0 1.40625q1.09375 -1.625 3.140625 -1.625q0.890625 0 1.640625 0.328125q0.75 0.3125 1.109375 0.84375q0.375 0.515625 0.53125 1.21875q0.09375 0.46875 0.09375 1.625l0 6.0625l-1.671875 0l0 -6.0q0 -1.015625 -0.203125 -1.515625q-0.1875 -0.515625 -0.6875 -0.8125q-0.5 -0.296875 -1.171875 -0.296875q-1.0625 0 -1.84375 0.671875q-0.765625 0.671875 -0.765625 2.578125l0 5.375l-1.671875 0zm10.078857 0.8125l1.609375 0.25q0.109375 0.75 0.578125 1.09375q0.609375 0.453125 1.6875 0.453125q1.171875 0 1.796875 -0.46875q0.625 -0.453125 0.859375 -1.28125q0.125 -0.515625 0.109375 -2.15625q-1.09375 1.296875 -2.71875 1.296875q-2.03125 0 -3.15625 -1.46875q-1.109375 -1.46875 -1.109375 -3.515625q0 -1.40625 0.515625 -2.59375q0.515625 -1.203125 1.484375 -1.84375q0.96875 -0.65625 2.265625 -0.65625q1.75 0 2.875 1.40625l0 -1.1875l1.546875 0l0 8.515625q0 2.3125 -0.46875 3.265625q-0.46875 0.96875 -1.484375 1.515625q-1.015625 0.5625 -2.5 0.5625q-1.765625 0 -2.859375 -0.796875q-1.078125 -0.796875 -1.03125 -2.390625zm1.375 -5.921875q0 1.953125 0.765625 2.84375q0.78125 0.890625 1.9375 0.890625q1.140625 0 1.921875 -0.890625q0.78125 -0.890625 0.78125 -2.78125q0 -1.8125 -0.8125 -2.71875q-0.796875 -0.921875 -1.921875 -0.921875q-1.109375 0 -1.890625 0.90625q-0.78125 0.890625 -0.78125 2.671875zm8.625732 2.171875l1.65625 -0.265625q0.140625 1.0 0.765625 1.53125q0.640625 0.515625 1.78125 0.515625q1.15625 0 1.703125 -0.46875q0.5625 -0.46875 0.5625 -1.09375q0 -0.5625 -0.484375 -0.890625q-0.34375 -0.21875 -1.703125 -0.5625q-1.84375 -0.46875 -2.5625 -0.796875q-0.703125 -0.34375 -1.078125 -0.9375q-0.359375 -0.609375 -0.359375 -1.328125q0 -0.65625 0.296875 -1.21875q0.3125 -0.5625 0.828125 -0.9375q0.390625 -0.28125 1.0625 -0.484375q0.671875 -0.203125 1.4375 -0.203125q1.171875 0 2.046875 0.34375q0.875 0.328125 1.28125 0.90625q0.421875 0.5625 0.578125 1.515625l-1.625 0.21875q-0.109375 -0.75 -0.65625 -1.171875q-0.53125 -0.4375 -1.5 -0.4375q-1.15625 0 -1.640625 0.390625q-0.484375 0.375 -0.484375 0.875q0 0.328125 0.203125 0.59375q0.203125 0.265625 0.640625 0.4375q0.25 0.09375 1.46875 0.4375q1.765625 0.46875 2.46875 0.765625q0.703125 0.296875 1.09375 0.875q0.40625 0.578125 0.40625 1.4375q0 0.828125 -0.484375 1.578125q-0.484375 0.734375 -1.40625 1.140625q-0.921875 0.390625 -2.078125 0.390625q-1.921875 0 -2.9375 -0.796875q-1.0 -0.796875 -1.28125 -2.359375z" fill-rule="nonzero"></path><path fill="#000000" fill-opacity="0.0" d="m18.682415 215.56955l111.40158 0l0 36.44095l-111.40158 0z" fill-rule="nonzero"></path><path fill="#000000" d="m32.60429 242.48955l0 -12.0l-4.46875 0l0 -1.59375l10.765625 0l0 1.59375l-4.5 0l0 12.0l-1.796875 0zm7.099106 -4.921875q0 -2.734375 1.53125 -4.0625q1.265625 -1.09375 3.09375 -1.09375q2.03125 0 3.3125 1.34375q1.296875 1.328125 1.296875 3.671875q0 1.90625 -0.578125 3.0q-0.5625 1.078125 -1.65625 1.6875q-1.078125 0.59375 -2.375 0.59375q-2.0625 0 -3.34375 -1.328125q-1.28125 -1.328125 -1.28125 -3.8125zm1.71875 0q0 1.890625 0.828125 2.828125q0.828125 0.9375 2.078125 0.9375q1.25 0 2.0625 -0.9375q0.828125 -0.953125 0.828125 -2.890625q0 -1.828125 -0.828125 -2.765625q-0.828125 -0.9375 -2.0625 -0.9375q-1.25 0 -2.078125 0.9375q-0.828125 0.9375 -0.828125 2.828125zm14.605896 4.921875l0 -13.59375l1.796875 0l0 11.984375l6.703121 0l0 1.609375l-8.499996 0zm16.688213 0l0 -1.453125q-1.140625 1.671875 -3.125 1.671875q-0.859375 0 -1.625 -0.328125q-0.75 -0.34375 -1.125 -0.84375q-0.359375 -0.5 -0.515625 -1.234375q-0.09375 -0.5 -0.09375 -1.5625l0 -6.109375l1.671875 0l0 5.46875q0 1.3125 0.09375 1.765625q0.15625 0.65625 0.671875 1.03125q0.515625 0.375 1.265625 0.375q0.75 0 1.40625 -0.375q0.65625 -0.390625 0.921875 -1.046875q0.28125 -0.671875 0.28125 -1.9375l0 -5.28125l1.671875 0l0 9.859375l-1.5 0zm3.9225922 0l0 -9.859375l1.5 0l0 1.40625q1.09375 -1.625 3.140625 -1.625q0.890625 0 1.640625 0.328125q0.75 0.3125 1.109375 0.84375q0.375 0.515625 0.53125 1.21875q0.09375 0.46875 0.09375 1.625l0 6.0625l-1.671875 0l0 -6.0q0 -1.015625 -0.203125 -1.515625q-0.1875 -0.515625 -0.6875 -0.8125q-0.5 -0.296875 -1.171875 -0.296875q-1.0625 0 -1.84375 0.671875q-0.765625 0.671875 -0.765625 2.578125l0 5.375l-1.671875 0zm10.078842 0.8125l1.609375 0.25q0.109375 0.75 0.578125 1.09375q0.609375 0.453125 1.6875 0.453125q1.171875 0 1.796875 -0.46875q0.625 -0.453125 0.859375 -1.28125q0.125 -0.515625 0.109375 -2.15625q-1.09375 1.296875 -2.71875 1.296875q-2.03125 0 -3.15625 -1.46875q-1.109375 -1.46875 -1.109375 -3.515625q0 -1.40625 0.515625 -2.59375q0.515625 -1.203125 1.484375 -1.84375q0.96875 -0.65625 2.265625 -0.65625q1.75 0 2.875 1.40625l0 -1.1875l1.546875 0l0 8.515625q0 2.3125 -0.46875 3.265625q-0.46875 0.96875 -1.484375 1.515625q-1.015625 0.5625 -2.5 0.5625q-1.765625 0 -2.859375 -0.796875q-1.078125 -0.796875 -1.03125 -2.390625zm1.375 -5.921875q0 1.953125 0.765625 2.84375q0.78125 0.890625 1.9375 0.890625q1.140625 0 1.921875 -0.890625q0.78125 -0.890625 0.78125 -2.78125q0 -1.8125 -0.8125 -2.71875q-0.796875 -0.921875 -1.921875 -0.921875q-1.109375 0 -1.890625 0.90625q-0.78125 0.890625 -0.78125 2.671875zm8.625717 2.171875l1.65625 -0.265625q0.140625 1.0 0.765625 1.53125q0.640625 0.515625 1.78125 0.515625q1.15625 0 1.703125 -0.46875q0.5625 -0.46875 0.5625 -1.09375q0 -0.5625 -0.484375 -0.890625q-0.34375 -0.21875 -1.703125 -0.5625q-1.84375 -0.46875 -2.5625 -0.796875q-0.703125 -0.34375 -1.078125 -0.9375q-0.359375 -0.609375 -0.359375 -1.328125q0 -0.65625 0.296875 -1.21875q0.3125 -0.5625 0.828125 -0.9375q0.390625 -0.28125 1.0625 -0.484375q0.671875 -0.203125 1.4375 -0.203125q1.171875 0 2.046875 0.34375q0.875 0.328125 1.28125 0.90625q0.421875 0.5625 0.578125 1.515625l-1.625 0.21875q-0.109375 -0.75 -0.65625 -1.171875q-0.53125 -0.4375 -1.5 -0.4375q-1.15625 0 -1.640625 0.390625q-0.484375 0.375 -0.484375 0.875q0 0.328125 0.203125 0.59375q0.203125 0.265625 0.640625 0.4375q0.25 0.09375 1.46875 0.4375q1.765625 0.46875 2.46875 0.765625q0.703125 0.296875 1.09375 0.875q0.40625 0.578125 0.40625 1.4375q0 0.828125 -0.484375 1.578125q-0.484375 0.734375 -1.40625 1.140625q-0.921875 0.390625 -2.078125 0.390625q-1.921875 0 -2.9375 -0.796875q-1.0 -0.796875 -1.28125 -2.359375z" fill-rule="nonzero"></path><path fill="#000000" fill-opacity="0.0" d="m7.186352 112.097115l97.76378 0l0 26.645668l-97.76378 0z" fill-rule="nonzero"></path><path fill="#000000" d="m21.108227 139.0171l0 -11.999992l-4.46875 0l0 -1.59375l10.765625 0l0 1.59375l-4.5 0l0 11.999992l-1.796875 0zm7.099106 -4.921875q0 -2.734375 1.53125 -4.0625q1.265625 -1.09375 3.09375 -1.09375q2.03125 0 3.3125 1.34375q1.296875 1.328125 1.296875 3.671875q0 1.90625 -0.578125 3.0q-0.5625 1.078125 -1.65625 1.6875q-1.078125 0.59375 -2.375 0.59375q-2.0625 0 -3.34375 -1.328125q-1.28125 -1.328125 -1.28125 -3.8125zm1.71875 0q0 1.890625 0.828125 2.828125q0.828125 0.9375 2.078125 0.9375q1.25 0 2.0625 -0.9375q0.828125 -0.953125 0.828125 -2.890625q0 -1.828125 -0.828125 -2.765625q-0.828125 -0.9375 -2.0625 -0.9375q-1.25 0 -2.078125 0.9375q-0.828125 0.9375 -0.828125 2.828125zm14.605896 4.921875l0 -13.593742l5.109375 0q1.546875 0 2.484375 0.40625q0.953125 0.40625 1.484375 1.265625q0.53125 0.859375 0.53125 1.7968674q0 0.875 -0.46875 1.65625q-0.46875 0.765625 -1.4375 1.234375q1.234375 0.359375 1.890625 1.234375q0.671875 0.875 0.671875 2.0625q0 0.953125 -0.40625 1.78125q-0.390625 0.8125 -0.984375 1.265625q-0.59375 0.4375 -1.5 0.671875q-0.890625 0.21875 -2.1875 0.21875l-5.1875 0zm1.796875 -7.890625l2.9375 0q1.203125 0 1.71875 -0.15625q0.6875 -0.203125 1.03125 -0.671875q0.359375 -0.46875 0.359375 -1.1875q0 -0.671875 -0.328125 -1.1874924q-0.328125 -0.515625 -0.9375 -0.703125q-0.59375 -0.203125 -2.0625 -0.203125l-2.71875 0l0 4.1093674zm0 6.28125l3.390625 0q0.875 0 1.21875 -0.0625q0.625 -0.109375 1.046875 -0.359375q0.421875 -0.265625 0.6875 -0.765625q0.265625 -0.5 0.265625 -1.140625q0 -0.765625 -0.390625 -1.328125q-0.390625 -0.5625 -1.078125 -0.78125q-0.6875 -0.234375 -1.984375 -0.234375l-3.15625 0l0 4.671875zm9.881073 -3.3125q0 -2.734375 1.53125 -4.0625q1.265625 -1.09375 3.09375 -1.09375q2.03125 0 3.3124962 1.34375q1.296875 1.328125 1.296875 3.671875q0 1.90625 -0.578125 3.0q-0.5625 1.078125 -1.6562462 1.6875q-1.078125 0.59375 -2.375 0.59375q-2.0625 0 -3.34375 -1.328125q-1.28125 -1.328125 -1.28125 -3.8125zm1.71875 0q0 1.890625 0.828125 2.828125q0.828125 0.9375 2.078125 0.9375q1.25 0 2.0625 -0.9375q0.828125 -0.953125 0.828125 -2.890625q0 -1.828125 -0.828125 -2.765625q-0.828125 -0.9375 -2.0625 -0.9375q-1.25 0 -2.078125 0.9375q-0.828125 0.9375 -0.828125 2.828125zm15.672588 4.921875l0 -1.25q-0.9375 1.46875 -2.75 1.46875q-1.171875 0 -2.171875 -0.640625q-0.984375 -0.65625 -1.53125 -1.8125q-0.53125 -1.171875 -0.53125 -2.6875q0 -1.46875 0.484375 -2.671875q0.5 -1.203125 1.46875 -1.84375q0.984375 -0.640625 2.203125 -0.640625q0.890625 0 1.578125 0.375q0.703125 0.375 1.140625 0.984375l0 -4.8749924l1.65625 0l0 13.593742l-1.546875 0zm-5.28125 -4.921875q0 1.890625 0.796875 2.828125q0.8125 0.9375 1.890625 0.9375q1.09375 0 1.859375 -0.890625q0.765625 -0.890625 0.765625 -2.734375q0 -2.015625 -0.78125 -2.953125q-0.78125 -0.953125 -1.921875 -0.953125q-1.109375 0 -1.859375 0.90625q-0.75 0.90625 -0.75 2.859375zm9.188217 8.71875l-0.171875 -1.5625q0.546875 0.140625 0.953125 0.140625q0.546875 0 0.875 -0.1875q0.34375 -0.1875 0.5625 -0.515625q0.15625 -0.25 0.5 -1.25q0.046875 -0.140625 0.15625 -0.40625l-3.734375 -9.875l1.796875 0l2.046875 5.71875q0.40625 1.078125 0.71875 2.28125q0.28125 -1.15625 0.6875 -2.25l2.09375 -5.75l1.671875 0l-3.75 10.03125q-0.59375 1.625 -0.9375 2.234375q-0.4375 0.828125 -1.015625 1.203125q-0.578125 0.390625 -1.375 0.390625q-0.484375 0 -1.078125 -0.203125z" fill-rule="nonzero"></path><path fill="#000000" fill-opacity="0.0" d="m21.55643 12.934383l97.76378 0l0 19.779526l-97.76378 0z" fill-rule="nonzero"></path><path fill="#000000" d="m35.478306 39.85438l0 -12.0l-4.46875 0l0 -1.59375l10.765625 0l0 1.59375l-4.5 0l0 12.0l-1.796875 0zm7.099106 -4.921875q0 -2.734375 1.53125 -4.0625q1.265625 -1.09375 3.09375 -1.09375q2.03125 0 3.3125 1.34375q1.296875 1.328125 1.296875 3.671875q0 1.90625 -0.578125 3.0q-0.5625 1.078125 -1.65625 1.6875q-1.078125 0.59375 -2.375 0.59375q-2.0625 0 -3.34375 -1.328125q-1.28125 -1.328125 -1.28125 -3.8125zm1.71875 0q0 1.890625 0.828125 2.828125q0.828125 0.9375 2.078125 0.9375q1.25 0 2.0625 -0.9375q0.828125 -0.953125 0.828125 -2.890625q0 -1.828125 -0.828125 -2.765625q-0.828125 -0.9375 -2.0625 -0.9375q-1.25 0 -2.078125 0.9375q-0.828125 0.9375 -0.828125 2.828125zm14.605896 4.921875l0 -13.59375l5.109371 0q1.546875 0 2.484375 0.40625q0.953125 0.40625 1.484375 1.265625q0.53125 0.859375 0.53125 1.796875q0 0.875 -0.46875 1.65625q-0.46875 0.765625 -1.4375 1.234375q1.234375 0.359375 1.890625 1.234375q0.671875 0.875 0.671875 2.0625q0 0.953125 -0.40625 1.78125q-0.390625 0.8125 -0.984375 1.265625q-0.59375 0.4375 -1.5 0.671875q-0.890625 0.21875 -2.1875 0.21875l-5.187496 0zm1.796875 -7.890625l2.9375 0q1.2031212 0 1.7187462 -0.15625q0.6875 -0.203125 1.03125 -0.671875q0.359375 -0.46875 0.359375 -1.1875q0 -0.671875 -0.328125 -1.1875q-0.328125 -0.515625 -0.9375 -0.703125q-0.59375 -0.203125 -2.0624962 -0.203125l-2.71875 0l0 4.109375zm0 6.28125l3.3906212 0q0.875 0 1.21875 -0.0625q0.625 -0.109375 1.046875 -0.359375q0.421875 -0.265625 0.6875 -0.765625q0.265625 -0.5 0.265625 -1.140625q0 -0.765625 -0.390625 -1.328125q-0.390625 -0.5625 -1.078125 -0.78125q-0.6875 -0.234375 -1.9843712 -0.234375l-3.15625 0l0 4.671875zm9.881069 -3.3125q0 -2.734375 1.53125 -4.0625q1.265625 -1.09375 3.09375 -1.09375q2.03125 0 3.3125 1.34375q1.296875 1.328125 1.296875 3.671875q0 1.90625 -0.578125 3.0q-0.5625 1.078125 -1.65625 1.6875q-1.078125 0.59375 -2.375 0.59375q-2.0625 0 -3.34375 -1.328125q-1.28125 -1.328125 -1.28125 -3.8125zm1.71875 0q0 1.890625 0.828125 2.828125q0.828125 0.9375 2.078125 0.9375q1.25 0 2.0625 -0.9375q0.828125 -0.953125 0.828125 -2.890625q0 -1.828125 -0.828125 -2.765625q-0.828125 -0.9375 -2.0625 -0.9375q-1.25 0 -2.078125 0.9375q-0.828125 0.9375 -0.828125 2.828125zm15.672592 4.921875l0 -1.25q-0.9375 1.46875 -2.75 1.46875q-1.171875 0 -2.171875 -0.640625q-0.984375 -0.65625 -1.53125 -1.8125q-0.53125 -1.171875 -0.53125 -2.6875q0 -1.46875 0.484375 -2.671875q0.5 -1.203125 1.46875 -1.84375q0.984375 -0.640625 2.203125 -0.640625q0.890625 0 1.578125 0.375q0.703125 0.375 1.140625 0.984375l0 -4.875l1.65625 0l0 13.59375l-1.546875 0zm-5.28125 -4.921875q0 1.890625 0.796875 2.828125q0.8125 0.9375 1.890625 0.9375q1.09375 0 1.859375 -0.890625q0.765625 -0.890625 0.765625 -2.734375q0 -2.015625 -0.78125 -2.953125q-0.78125 -0.953125 -1.921875 -0.953125q-1.109375 0 -1.859375 0.90625q-0.75 0.90625 -0.75 2.859375zm9.188217 8.71875l-0.171875 -1.5625q0.546875 0.140625 0.953125 0.140625q0.546875 0 0.875 -0.1875q0.34375 -0.1875 0.5625 -0.515625q0.15625 -0.25 0.5 -1.25q0.046875 -0.140625 0.15625 -0.40625l-3.734375 -9.875l1.796875 0l2.046875 5.71875q0.40625 1.078125 0.71875 2.28125q0.28125 -1.15625 0.6875 -2.25l2.09375 -5.75l1.671875 0l-3.75 10.03125q-0.59375 1.625 -0.9375 2.234375q-0.4375 0.828125 -1.015625 1.203125q-0.578125 0.390625 -1.375 0.390625q-0.484375 0 -1.078125 -0.203125z" fill-rule="nonzero"></path><path fill="#000000" fill-opacity="0.0" d="m561.9974 331.75067l30.677185 0l0 36.440918l-30.677185 0z" fill-rule="nonzero"></path><path fill="#000000" d="m583.138 360.72815l0 3.0625l-11.546875 0q0.1875 -1.734375 1.125 -3.28125q0.9375 -1.5625 3.703125 -4.125q2.234375 -2.078125 2.734375 -2.8125q0.6875 -1.015625 0.6875 -2.015625q0 -1.109375 -0.59375 -1.6875q-0.59375 -0.59375 -1.640625 -0.59375q-1.03125 0 -1.640625 0.625q-0.609375 0.609375 -0.703125 2.046875l-3.28125 -0.328125q0.296875 -2.71875 1.84375 -3.890625q1.546875 -1.1875 3.859375 -1.1875q2.546875 0 4.0 1.375q1.453125 1.359375 1.453125 3.40625q0 1.15625 -0.421875 2.203125q-0.40625 1.046875 -1.3125 2.203125q-0.59375 0.765625 -2.15625 2.203125q-1.5625 1.421875 -1.984375 1.890625q-0.40625 0.46875 -0.65625 0.90625l6.53125 0z" fill-rule="nonzero"></path><path fill="#000000" fill-opacity="0.0" d="m702.7533 583.4724l133.63776 0l0 26.64569l-133.63776 0z" fill-rule="nonzero"></path><path fill="#000000" fill-opacity="0.0" d="m708.50397 490.06036l202.61414 0l0 44.53546l-202.61414 0z" fill-rule="nonzero"></path><path fill="#000000" fill-opacity="0.0" d="m257.00525 344.88715l41.322845 0l0 51.212585l-41.322845 0z" fill-rule="nonzero"></path><path fill="#000000" d="m278.17712 363.9584l-3.1875 0.34375q-0.109375 -0.984375 -0.609375 -1.453125q-0.484375 -0.46875 -1.265625 -0.46875q-1.046875 0 -1.765625 0.9375q-0.71875 0.9375 -0.90625 3.90625q1.21875 -1.453125 3.046875 -1.453125q2.0625 0 3.53125 1.578125q1.484375 1.5625 1.484375 4.046875q0 2.640625 -1.546875 4.234375q-1.546875 1.59375 -3.984375 1.59375q-2.59375 0 -4.28125 -2.015625q-1.671875 -2.03125 -1.671875 -6.640625q0 -4.71875 1.75 -6.796875q1.75 -2.09375 4.53125 -2.09375q1.96875 0 3.25 1.09375q1.28125 1.09375 1.625 3.1875zm-7.453125 7.171875q0 1.609375 0.734375 2.484375q0.734375 0.875 1.6875 0.875q0.90625 0 1.515625 -0.71875q0.609375 -0.71875 0.609375 -2.34375q0 -1.671875 -0.65625 -2.453125q-0.65625 -0.78125 -1.640625 -0.78125q-0.9375 0 -1.59375 0.75q-0.65625 0.734375 -0.65625 2.1875z" fill-rule="nonzero"></path><path fill="#000000" fill-opacity="0.0" d="m370.55774 144.06824l44.81891 0l0 64.346466l-44.81891 0z" fill-rule="nonzero"></path><path fill="#000000" d="m380.62024 171.68637l3.28125 -0.34375q0.140625 1.125 0.828125 1.78125q0.703125 0.640625 1.609375 0.640625q1.03125 0 1.734375 -0.828125q0.71875 -0.84375 0.71875 -2.53125q0 -1.59375 -0.71875 -2.375q-0.703125 -0.796875 -1.828125 -0.796875q-1.421875 0 -2.546875 1.25l-2.671875 -0.375l1.6875 -8.953125l8.703125 0l0 3.09375l-6.203125 0l-0.515625 2.90625q1.09375 -0.546875 2.25 -0.546875q2.1875 0 3.703125 1.59375q1.53125 1.59375 1.53125 4.140625q0 2.125 -1.234375 3.78125q-1.671875 2.28125 -4.65625 2.28125q-2.375 0 -3.875 -1.28125q-1.5 -1.28125 -1.796875 -3.4375z" fill-rule="nonzero"></path><path fill="#000000" fill-opacity="0.0" d="m363.59317 375.08923l-5.7637634 -241.44882" fill-rule="nonzero"></path><path stroke="#cc0000" stroke-width="4.0" stroke-linejoin="round" stroke-linecap="butt" d="m363.59317 375.08923l-5.1910095 -217.45566" fill-rule="evenodd"></path><path fill="#cc0000" stroke="#cc0000" stroke-width="4.0" stroke-linecap="butt" d="m365.0072 157.4759l-7.0382385 -17.989548l-6.1718445 18.304901z" fill-rule="evenodd"></path><path fill="#000000" fill-opacity="0.0" d="m363.35828 233.05249l162.6142 -115.21259" fill-rule="nonzero"></path><path stroke="#cc0000" stroke-width="4.0" stroke-linejoin="round" stroke-linecap="butt" d="m363.35828 233.05249l143.03116 -101.33798" fill-rule="evenodd"></path><path fill="#cc0000" stroke="#cc0000" stroke-width="4.0" stroke-linecap="butt" d="m510.20895 137.1055l10.992096 -15.885048l-18.631165 5.1030807z" fill-rule="evenodd"></path><path fill="#000000" fill-opacity="0.0" d="m547.95667 304.52493l-41.322815 191.2756" fill-rule="nonzero"></path><path stroke="#cc0000" stroke-width="4.0" stroke-linejoin="round" stroke-linecap="butt" d="m547.95667 304.52493l-36.25482 167.8168" fill-rule="evenodd"></path><path fill="#cc0000" stroke="#cc0000" stroke-width="4.0" stroke-linecap="butt" d="m505.2439 470.94656l2.6247864 19.138214l10.291107 -16.3479z" fill-rule="evenodd"></path><path fill="#666666" d="m261.9265 307.95538l0 0c0 -14.141968 9.687561 -25.606293 21.637787 -25.606293l0 0c5.7387085 0 11.242371 2.6977844 15.300232 7.4999084c4.057892 4.8020935 6.337555 11.315155 6.337555 18.106384l0 0c0 14.141968 -9.687561 25.606293 -21.637787 25.606293l0 0c-11.950226 0 -21.637787 -11.464325 -21.637787 -25.606293z" fill-rule="nonzero"></path><path stroke="#000000" stroke-width="2.0" stroke-linejoin="round" stroke-linecap="butt" d="m261.9265 307.95538l0 0c0 -14.141968 9.687561 -25.606293 21.637787 -25.606293l0 0c5.7387085 0 11.242371 2.6977844 15.300232 7.4999084c4.057892 4.8020935 6.337555 11.315155 6.337555 18.106384l0 0c0 14.141968 -9.687561 25.606293 -21.637787 25.606293l0 0c-11.950226 0 -21.637787 -11.464325 -21.637787 -25.606293z" fill-rule="nonzero"></path><path fill="#000000" fill-opacity="0.0" d="m292.83072 304.99213l52.094482 -0.31497192" fill-rule="nonzero"></path><path stroke="#3c78d8" stroke-width="4.0" stroke-linejoin="round" stroke-linecap="butt" d="m292.83072 304.99213l52.094482 -0.31497192" fill-rule="nonzero"></path><path fill="#000000" fill-opacity="0.0" d="m479.13275 298.5762l-23.527557 151.43307" fill-rule="nonzero"></path><path stroke="#3c78d8" stroke-width="4.0" stroke-linejoin="round" stroke-linecap="butt" d="m479.13275 298.5762l-19.842957 127.71759" fill-rule="evenodd"></path><path fill="#3c78d8" stroke="#3c78d8" stroke-width="4.0" stroke-linecap="butt" d="m452.76117 425.27948l3.7417603 18.951508l9.31546 -16.922882z" fill-rule="evenodd"></path><path fill="#000000" fill-opacity="0.0" d="m467.0656 510.17847l-61.795258 -217.00787" fill-rule="nonzero"></path><path stroke="#674ea7" stroke-width="4.0" stroke-linejoin="round" stroke-linecap="butt" d="m467.0656 510.17847l-55.22232 -193.92548" fill-rule="evenodd"></path><path fill="#674ea7" stroke="#674ea7" stroke-width="4.0" stroke-linecap="butt" d="m418.1976 314.4435l-11.325745 -15.648865l-1.3828735 19.267792z" fill-rule="evenodd"></path><path fill="#000000" fill-opacity="0.0" d="m385.65244 466.45023l0 0" fill-rule="nonzero"></path><path stroke="#000000" stroke-width="2.0" stroke-linejoin="round" stroke-linecap="butt" d="m385.65244 466.45023l0 0" fill-rule="nonzero"></path><path fill="#000000" fill-opacity="0.0" d="m411.01837 278.80316l129.32281 -132.22049" fill-rule="nonzero"></path><path stroke="#674ea7" stroke-width="4.0" stroke-linejoin="round" stroke-linecap="butt" d="m411.01837 278.80316l112.54132 -115.06296" fill-rule="evenodd"></path><path fill="#674ea7" stroke="#674ea7" stroke-width="4.0" stroke-linecap="butt" d="m528.28296 168.35997l7.9694214 -17.596848l-17.415955 8.357315z" fill-rule="evenodd"></path><path fill="#000000" fill-opacity="0.0" d="m347.7848 221.31758l-41.480316 -69.51181" fill-rule="nonzero"></path><path stroke="#674ea7" stroke-width="4.0" stroke-linejoin="round" stroke-linecap="butt" d="m347.7848 221.31758l-29.181885 -48.902374" fill-rule="evenodd"></path><path fill="#674ea7" stroke="#674ea7" stroke-width="4.0" stroke-linecap="butt" d="m324.27643 169.02959l-14.975464 -12.202316l3.6283875 18.973557z" fill-rule="evenodd"></path><path fill="#000000" fill-opacity="0.0" d="m542.67456 292.06036l26.047241 0l0 26.64566l-26.047241 0z" fill-rule="nonzero"></path><path fill="#000000" d="m561.1277 324.10037l-3.296875 0l0 -12.40625q-1.8125 1.6875 -4.25 2.484375l0 -2.984375q1.28125 -0.421875 2.796875 -1.59375q1.515625 -1.1875 2.078125 -2.75l2.671875 0l0 17.25z" fill-rule="nonzero"></path><path fill="#000000" fill-opacity="0.0" d="m436.22702 339.05118l21.984253 0l0 26.64566l-21.984253 0z" fill-rule="nonzero"></path><path fill="#000000" d="m446.13327 366.5287l3.1875 -0.390625q0.15625 1.21875 0.8125 1.875q0.671875 0.640625 1.625 0.640625q1.015625 0 1.703125 -0.765625q0.703125 -0.78125 0.703125 -2.09375q0 -1.25 -0.671875 -1.96875q-0.65625 -0.734375 -1.625 -0.734375q-0.625 0 -1.5 0.25l0.359375 -2.6875q1.328125 0.046875 2.03125 -0.5625q0.703125 -0.625 0.703125 -1.640625q0 -0.875 -0.515625 -1.390625q-0.515625 -0.515625 -1.359375 -0.515625q-0.84375 0 -1.453125 0.59375q-0.59375 0.578125 -0.71875 1.703125l-3.03125 -0.515625q0.3125 -1.5625 0.953125 -2.484375q0.640625 -0.9375 1.78125 -1.46875q1.140625 -0.53125 2.5625 -0.53125q2.421875 0 3.890625 1.546875q1.203125 1.265625 1.203125 2.859375q0 2.265625 -2.46875 3.609375q1.46875 0.3125 2.34375 1.421875q0.890625 1.09375 0.890625 2.65625q0 2.265625 -1.65625 3.859375q-1.640625 1.59375 -4.109375 1.59375q-2.328125 0 -3.859375 -1.34375q-1.53125 -1.34375 -1.78125 -3.515625z" fill-rule="nonzero"></path><path fill="#000000" fill-opacity="0.0" d="m417.1378 535.75854l26.047241 0l0 42.078735l-26.047241 0z" fill-rule="nonzero"></path><path fill="#000000" d="m433.62216 567.7985l0 -3.453125l-7.03125 0l0 -2.890625l7.453125 -10.90625l2.765625 0l0 10.890625l2.125 0l0 2.90625l-2.125 0l0 3.453125l-3.1875 0zm0 -6.359375l0 -5.859375l-3.953125 5.859375l3.953125 0z" fill-rule="nonzero"></path><path fill="#000000" fill-opacity="0.0" d="m376.52756 254.37007l21.543304 28.755905" fill-rule="nonzero"></path><path stroke="#674ea7" stroke-width="4.0" stroke-linejoin="round" stroke-linecap="butt" d="m376.52756 254.37007l21.543304 28.755905" fill-rule="nonzero"></path><path fill="#000000" fill-opacity="0.0" d="m380.10498 543.2231l112.12601 -18.677124" fill-rule="nonzero"></path><path stroke="#cc0000" stroke-width="4.0" stroke-linejoin="round" stroke-linecap="butt" d="m380.10498 543.2231l112.12601 -18.677124" fill-rule="nonzero"></path><path fill="#000000" fill-opacity="0.0" d="m378.1136 542.8364l-26.047241 -119.55902" fill-rule="nonzero"></path><path stroke="#cc0000" stroke-width="4.0" stroke-linejoin="round" stroke-linecap="butt" d="m378.1136 542.8364l-20.938385 -96.1091" fill-rule="evenodd"></path><path fill="#cc0000" stroke="#cc0000" stroke-width="4.0" stroke-linecap="butt" d="m363.63068 445.32092l-10.31955 -16.329926l-2.5914612 19.14273z" fill-rule="evenodd"></path></g></svg>

