<?xml version="1.0" encoding="UTF-8" standalone="no"?>
<!-- Created with Inkscape (http://www.inkscape.org/) -->

<svg
   version="1.2"
   width="210mm"
   height="297mm"
   viewBox="0 0 793.70074 1122.5197"
   id="Layer_1"
   xml:space="preserve"
   style="overflow:visible"
   inkscape:version="1.1.2 (0a00cf5339, 2022-02-04, custom)"
   sodipodi:docname="PWVsimplified.svg"
   inkscape:export-filename="C:\Users\B\Google Drive\Shared Vascular Research\research output - conferences and presentations\image library\human pwv figure\PWVsimplified.png"
   inkscape:export-xdpi="600.32318"
   inkscape:export-ydpi="600.32318"
   xmlns:inkscape="http://www.inkscape.org/namespaces/inkscape"
   xmlns:sodipodi="http://sodipodi.sourceforge.net/DTD/sodipodi-0.dtd"
   xmlns="http://www.w3.org/2000/svg"
   xmlns:svg="http://www.w3.org/2000/svg"
   xmlns:rdf="http://www.w3.org/1999/02/22-rdf-syntax-ns#"
   xmlns:cc="http://creativecommons.org/ns#"
   xmlns:dc="http://purl.org/dc/elements/1.1/"><sodipodi:namedview
   pagecolor="#ffffff"
   bordercolor="#666666"
   borderopacity="1"
   objecttolerance="10"
   gridtolerance="10"
   guidetolerance="10"
   inkscape:pageopacity="0"
   inkscape:pageshadow="2"
   inkscape:window-width="1862"
   inkscape:window-height="1068"
   id="namedview56"
   showgrid="false"
   showguides="true"
   inkscape:guide-bbox="true"
   inkscape:zoom="5.6568542"
   inkscape:cx="44.724504"
   inkscape:cy="73.627494"
   inkscape:window-x="4"
   inkscape:window-y="-1080"
   inkscape:window-maximized="0"
   inkscape:current-layer="Layer_1"
   fit-margin-top="0"
   fit-margin-left="0"
   fit-margin-right="0"
   fit-margin-bottom="0"
   units="mm"
   borderlayer="false"
   inkscape:showpageshadow="true"
   inkscape:pagecheckerboard="0"
   inkscape:document-units="mm" /><metadata
   id="metadata7819"><rdf:RDF><cc:Work
       rdf:about=""><dc:format>image/svg+xml</dc:format><dc:type
         rdf:resource="http://purl.org/dc/dcmitype/StillImage" /></cc:Work></rdf:RDF></metadata><defs
   id="defs7817"><marker
     inkscape:stockid="DotS"
     orient="auto"
     refY="0"
     refX="0"
     id="DotS"
     style="overflow:visible"><path
       id="path4607"
       d="m -2.5,-1 c 0,2.76 -2.24,5 -5,5 -2.76,0 -5,-2.24 -5,-5 0,-2.76 2.24,-5 5,-5 2.76,0 5,2.24 5,5 z"
       style="fill-rule:evenodd;stroke:#000000;stroke-width:1pt"
       transform="matrix(0.2,0,0,0.2,1.48,0.2)"
       inkscape:connector-curvature="0" /></marker><marker
     inkscape:stockid="DotL"
     orient="auto"
     refY="0"
     refX="0"
     id="DotL"
     style="overflow:visible"><path
       id="path4601"
       d="m -2.5,-1 c 0,2.76 -2.24,5 -5,5 -2.76,0 -5,-2.24 -5,-5 0,-2.76 2.24,-5 5,-5 2.76,0 5,2.24 5,5 z"
       style="fill-rule:evenodd;stroke:#000000;stroke-width:1pt"
       transform="matrix(0.8,0,0,0.8,5.92,0.8)"
       inkscape:connector-curvature="0" /></marker><marker
     inkscape:stockid="Arrow2Mend"
     orient="auto"
     refY="0"
     refX="0"
     id="Arrow2Mend"
     style="overflow:visible"><path
       id="path4567"
       style="fill-rule:evenodd;stroke-width:0.625;stroke-linejoin:round"
       d="M 8.7185878,4.0337352 -2.2072895,0.01601326 8.7185884,-4.0017078 c -1.7454984,2.3720609 -1.7354408,5.6174519 -6e-7,8.035443 z"
       transform="scale(-0.6)"
       inkscape:connector-curvature="0" /></marker><marker
     inkscape:stockid="Arrow1Mend"
     orient="auto"
     refY="0"
     refX="0"
     id="Arrow1Mend"
     style="overflow:visible"><path
       id="path3899"
       d="M 0,0 5,-5 -12.5,0 5,5 Z"
       style="fill-rule:evenodd;stroke:#000000;stroke-width:1pt"
       transform="matrix(-0.4,0,0,-0.4,-4,0)"
       inkscape:connector-curvature="0" /></marker><marker
     inkscape:stockid="Arrow1Mstart"
     orient="auto"
     refY="0"
     refX="0"
     id="Arrow1Mstart"
     style="overflow:visible"><path
       id="path3896"
       d="M 0,0 5,-5 -12.5,0 5,5 Z"
       style="fill-rule:evenodd;stroke:#000000;stroke-width:1pt"
       transform="matrix(0.4,0,0,0.4,4,0)"
       inkscape:connector-curvature="0" /></marker><marker
     inkscape:stockid="Arrow1Lstart"
     orient="auto"
     refY="0"
     refX="0"
     id="Arrow1Lstart"
     style="overflow:visible"><path
       id="path3890"
       d="M 0,0 5,-5 -12.5,0 5,5 Z"
       style="fill-rule:evenodd;stroke:#000000;stroke-width:1pt"
       transform="matrix(0.8,0,0,0.8,10,0)"
       inkscape:connector-curvature="0" /></marker><marker
     inkscape:stockid="Arrow1Mstart"
     orient="auto"
     refY="0"
     refX="0"
     id="Arrow1Mstart-1"
     style="overflow:visible"><path
       id="path3896-7"
       d="M 0,0 5,-5 -12.5,0 5,5 Z"
       style="fill-rule:evenodd;stroke:#000000;stroke-width:1pt"
       transform="matrix(0.4,0,0,0.4,4,0)"
       inkscape:connector-curvature="0" /></marker><marker
     inkscape:stockid="Arrow1Mend"
     orient="auto"
     refY="0"
     refX="0"
     id="Arrow1Mend-4"
     style="overflow:visible"><path
       id="path3899-0"
       d="M 0,0 5,-5 -12.5,0 5,5 Z"
       style="fill-rule:evenodd;stroke:#000000;stroke-width:1pt"
       transform="matrix(-0.4,0,0,-0.4,-4,0)"
       inkscape:connector-curvature="0" /></marker><marker
     inkscape:stockid="Arrow1Mstart"
     orient="auto"
     refY="0"
     refX="0"
     id="Arrow1Mstart-0"
     style="overflow:visible"><path
       id="path3896-9"
       d="M 0,0 5,-5 -12.5,0 5,5 Z"
       style="fill-rule:evenodd;stroke:#000000;stroke-width:1pt"
       transform="matrix(0.4,0,0,0.4,4,0)"
       inkscape:connector-curvature="0" /></marker><marker
     inkscape:stockid="Arrow2Mend"
     orient="auto"
     refY="0"
     refX="0"
     id="Arrow2Mend-4"
     style="overflow:visible"><path
       inkscape:connector-curvature="0"
       id="path4567-5"
       style="fill-rule:evenodd;stroke-width:0.625;stroke-linejoin:round"
       d="M 8.7185878,4.0337352 -2.2072895,0.01601326 8.7185884,-4.0017078 c -1.7454984,2.3720609 -1.7354408,5.6174519 -6e-7,8.035443 z"
       transform="scale(-0.6)" /></marker></defs><g
   id="g7312"
   transform="translate(-0.20831459,1.6027901e-5)"><path
     inkscape:connector-curvature="0"
     id="path5198"
     d="m 31.287752,45.518222 c 0,0 -0.674441,-5.491878 1.926975,-5.202831 2.601415,0.289046 4.142995,5.29918 3.275856,12.043591 -0.867138,6.744411 -2.408718,19.847837 -2.601415,24.279879 -0.192698,4.432041 -0.481744,6.648062 -0.481744,6.648062"
     style="fill:none;stroke:#969696;stroke-width:2.31237;stroke-linecap:butt;stroke-linejoin:miter;stroke-miterlimit:4;stroke-dasharray:none;stroke-opacity:1" /><path
     sodipodi:nodetypes="csssc"
     inkscape:connector-curvature="0"
     id="path5200"
     d="m 33.69647,82.997877 c 0,0 2.266194,2.303606 4.142996,7.900596 1.166637,3.479141 1.897479,12.412247 2.601415,16.475627 0.285828,1.64991 -0.445127,5.13208 -1.521177,9.05816 -2.08849,7.62006 1.584934,17.21958 1.521177,18.11219"
     style="fill:none;stroke:#969696;stroke-width:1.54158;stroke-linecap:butt;stroke-linejoin:miter;stroke-miterlimit:4;stroke-dasharray:none;stroke-opacity:1" /><path
     sodipodi:nodetypes="csssc"
     inkscape:connector-curvature="0"
     id="path5200-7"
     d="m 33.024472,82.901528 c 0,0 -2.601415,4.239344 -4.239344,9.249478 -1.637928,5.010134 -2.601415,7.418852 -3.564903,9.345824 -0.416158,0.83232 -1.795804,5.69321 -0.777677,13.66596 1.040779,8.15014 1.01199,18.13365 1.066724,18.89991"
     style="overflow:visible;fill:none;stroke:#969696;stroke-width:1.54158;stroke-linecap:butt;stroke-linejoin:miter;stroke-miterlimit:4;stroke-dasharray:none;stroke-opacity:1" /><path
     inkscape:connector-curvature="0"
     id="path5231"
     d="m 34.563609,40.411739 c 0,0 -0.77079,-4.913784 1.348882,-5.395528 2.119672,-0.481743 9.249478,1.445231 10.887406,1.637929 1.637929,0.192697 4.721088,1.637928 5.29918,4.721087 0.578093,3.083159 1.926975,8.575036 2.119672,10.502011 0.192698,1.926975 2.119672,7.707898 2.119672,7.707898"
     style="fill:none;stroke:#969696;stroke-width:1.15618;stroke-linecap:butt;stroke-linejoin:miter;stroke-miterlimit:4;stroke-dasharray:none;stroke-opacity:1" /><path
     inkscape:connector-curvature="0"
     id="path5233"
     d="m 33.022029,40.604437 c 0,0 -4.239344,-5.010133 -6.359016,-5.202831 -2.119672,-0.192697 -3.275857,2.697765 -6.840759,2.601416 -3.564903,-0.09635 -5.973622,-0.385395 -7.61155,3.661251 -1.637928,4.046646 -1.445231,9.634873 -1.445231,11.561847 0,1.926975 -1.348882,9.82757 -2.2160206,10.887406"
     style="fill:none;stroke:#969696;stroke-width:1.15618;stroke-linecap:butt;stroke-linejoin:miter;stroke-miterlimit:4;stroke-dasharray:none;stroke-opacity:1" /><path
     inkscape:connector-curvature="0"
     id="path5235"
     d="m 29.553475,36.846837 c 0,0 -2.505067,-13.296124 -2.505067,-15.993889"
     style="fill:none;stroke:#969696;stroke-width:0.77079;stroke-linecap:butt;stroke-linejoin:miter;stroke-miterlimit:4;stroke-dasharray:none;stroke-opacity:1" /><path
     sodipodi:nodetypes="csc"
     inkscape:connector-curvature="0"
     id="path5237"
     d="m 33.440449,40.131021 c 0,0 -0.186676,-8.463561 1.02681,-12.244615 1.100076,-3.427684 0.77079,-9.634873 0.674441,-10.59836"
     style="fill:none;stroke:#969696;stroke-width:0.77079;stroke-linecap:butt;stroke-linejoin:miter;stroke-miterlimit:4;stroke-dasharray:none;stroke-opacity:1" /><path
     inkscape:connector-curvature="0"
     id="path5239"
     d="m 40.53723,111.7098 c 0,0 1.926974,10.50201 1.637928,12.81438"
     style="fill:none;stroke:#969696;stroke-width:0.77079;stroke-linecap:butt;stroke-linejoin:miter;stroke-miterlimit:4;stroke-dasharray:none;stroke-opacity:1" /><path
     inkscape:connector-curvature="0"
     id="path5241"
     d="m 24.254295,108.91568 c 0,0 -3.179508,9.34583 -2.986811,12.62169"
     style="fill:none;stroke:#969696;stroke-width:0.77079;stroke-linecap:butt;stroke-linejoin:miter;stroke-miterlimit:4;stroke-dasharray:none;stroke-opacity:1" /></g><path
   d="m 38.677512,17.249476 h 0.803132 c 0,0 1.796811,-0.91746 1.605609,-5.2761 0,0 0,-1.07078 -0.764365,-1.07078 0,0 -0.764808,-0.11454 -1.013388,1.01339 0,0 0.592656,-2.4280101 0.401234,-4.1483901 0,0 -0.458619,-2.25565 -1.5675,-3.93769 -1.108662,-1.68249 -3.785041,-2.63827 -3.785041,-2.63827 0,0 -1.261315,-0.68793996 -3.364092,-0.68793996 -2.102778,0 -3.823589,0.80269996 -3.823589,0.80269996 0,0 -3.17289,1.87325 -3.746713,4.7025 0,0 -0.840805,3.17355 -0.305747,5.6585101 0,0 -0.840804,-0.53528 -1.3763,-0.53528 0,0 -1.223206,0.53528 -0.45862,3.21188 l 1.5675,3.02046 c 0,0 1.070335,0.91746 1.070335,-0.61172 0,0 0.535276,3.55551 0.382401,3.70861 0,0 0.45906,3.05856 0.305968,5.12323 0,0 0.344292,1.72037 -2.52329,3.05834 0,0 -3.173329,1.45318 -5.505416,3.05879 -2.332087,1.60583 -2.905909,0.95557 -5.62018,2.06467 0,0 -3.2499844,0.57338 -4.9703584,6.23189 0,0 -1.6820461,4.35842 -0.3440748,7.5703 0,0 0.6114942,4.09101 -0.4588392,6.04069 0,0 -1.4148464,4.16722 -1.1469892,8.90805 0.2717469,0.8016 7.7993936,5.31378 7.7993936,5.31378 l 0.267638,-3.3262 c 0,0 1.567501,-3.13522 1.835138,-5.58207 l 0.305967,-0.87935 c 0,0 1.032224,4.7025 1.376299,6.30833 0,0 0.45862,4.05246 0.03811,6.8436 0,0 -0.535057,6.34688 -0.267638,7.03481 0.267638,0.68837 0,0.15287 0,0.15287 0,0 -0.993897,5.39065 -1.185098,7.95249 0,0 -0.497167,10.39912 0.841242,14.834424 0,0 3.440529,16.05785 4.817047,16.89865 0,0 1.032443,4.35843 1.223426,6.23189 l 0.267638,5.77306 c 0,0 0.382402,2.02612 0.114546,3.5174 0.280853,-0.2891 10.131917,3.4414 10.131917,3.4414 -0.535275,-2.1411 -0.993896,-3.28809 -0.993896,-3.28809 0,0 0.592,-2.69521 0.305746,-2.98213 l 0.726477,-2.71448 -0.114763,-7.49365 c 0,0 -0.420512,-11.58487 -0.07666,-11.92851 v -6.69073 l 0.344295,6.61407 c 0,0 0.420293,8.373 0,11.77564 l 0.114545,7.68485 c 0,0 0.305966,3.09689 0.649822,4.05268 v 2.40852 c 0,0 -0.745094,2.2942 -0.745094,2.77165 l 10.991997,-3.15405 c 0,0 -0.764804,-4.77894 -0.535494,-6.19335 0,0 0.573602,-3.59384 0.573602,-5.77305 0,0 3.823372,-11.54633 3.823372,-12.23426 0,0 2.370194,-8.14369 2.178996,-9.978834 l 0.497167,-11.69941 -0.305745,-0.34386 c 0,0 -0.382408,-1.79703 -0.382408,-2.90591 0,-1.10888 0,-3.28787 0,-3.28787 0,0 -1.184878,-2.75261 -1.184878,-3.44097 0,-0.68815 0.267422,-0.95579 0.267422,-0.95579 0,0 0.229746,-1.7587 -0.726261,-4.16744 -0.955787,-2.40853 -0.764589,-3.55552 -0.764589,-3.55552 l 0.07644,-3.59384 0.993891,-4.05245 v -5.73495 c 0,0 1.376519,1.41462 2.064672,4.54962 0.673925,0.0635 10.628425,-0.80269 10.628425,-0.80269 -0.267418,-0.72648 -1.52895,-6.80571 -2.064664,-8.25845 -0.534836,-1.45274 -0.68837,-1.7206 -0.68837,-1.7206 l -0.385395,-1.50262 c 0,0 -0.417297,-0.82946 -0.417297,-1.2502 0,-0.42028 0.267857,-7.18789 -4.702504,-12.61643 0,0 -0.993895,-1.52917 -6.270222,-2.59994 l -6.614078,-4.54941 -0.344073,-0.1912 c 0,0 -0.191421,-0.42052 -0.191421,-0.65027 0,-0.22931 -0.72604,-0.95556 -0.72604,-0.95556 v -5.35255 c -5.79e-4,0 1.069677,-0.45971 1.069677,-3.02089 z"
   id="path5479"
   style="fill:none;stroke:#323232;stroke-width:0.578092;stroke-miterlimit:4;stroke-dasharray:none;stroke-opacity:1"
   inkscape:connector-curvature="0"
   sodipodi:nodetypes="ccccccccsccccccccccccccccccccccccccccccccccccccccccccccccccscscccccccccccsccccsccc" /><path
   d="m 41.21657,70.696046 c -0.03592,0.0175 -0.0714,0.0335 -0.107541,0.051 0.03419,-0.009 0.07052,-0.0274 0.107541,-0.051 z"
   id="path5553"
   style="opacity:0.28;fill:#0060b6;stroke:#3ac6dd;stroke-width:0.578092;stroke-miterlimit:4;stroke-dasharray:none"
   inkscape:connector-curvature="0" /><path
   inkscape:connector-curvature="0"
   style="fill:none;stroke:#000000;stroke-width:1.34888;stroke-linecap:butt;stroke-linejoin:miter;stroke-miterlimit:4;stroke-dasharray:none;stroke-dashoffset:0;stroke-opacity:1;marker-end:url(#DotS)"
   id="path10104"
   d="M 31.038957,34.725796 34.27447,24.595506"
   sodipodi:nodetypes="cc" /><path
   inkscape:connector-curvature="0"
   style="fill:none;stroke:#000000;stroke-width:1.34888;stroke-linecap:butt;stroke-linejoin:miter;stroke-miterlimit:4;stroke-dasharray:none;stroke-dashoffset:0;stroke-opacity:1;marker-start:url(#DotS);marker-mid:none;marker-end:url(#DotS)"
   id="path10106"
   d="m 30.898983,36.020236 8.08059,63.58001"
   sodipodi:nodetypes="cc" /><text
   id="text3065"
   y="29.45545"
   x="3.2424593"
   style="font-style:normal;font-variant:normal;font-weight:normal;font-stretch:normal;line-height:0%;font-family:sans-serif;-inkscape-font-specification:Sans;text-align:start;letter-spacing:0px;word-spacing:0px;writing-mode:lr-tb;text-anchor:start;fill:#000000;fill-opacity:1;stroke:none"
   xml:space="preserve"><tspan
     sodipodi:role="line"
     id="tspan3842"
     x="3.2424593"
     y="29.45545"
     style="font-size:8.76066px;line-height:1.25;font-family:sans-serif">c</tspan></text>
<flowRoot
   transform="matrix(0.21901642,0,0,0.21901642,-8.4856068,13.021496)"
   style="font-style:normal;font-variant:normal;font-weight:normal;font-stretch:normal;line-height:0.01%;font-family:sans-serif;-inkscape-font-specification:Sans;text-align:start;letter-spacing:0px;word-spacing:0px;writing-mode:lr-tb;text-anchor:start;fill:#000000;fill-opacity:1;stroke:none"
   id="flowRoot3069"
   xml:space="preserve"><flowRegion
     id="flowRegion3071"
     style="font-family:sans-serif"><rect
       style="font-style:normal;font-variant:normal;font-weight:normal;font-stretch:normal;font-size:40px;line-height:125%;font-family:Sans;-inkscape-font-specification:Sans;text-align:start;writing-mode:lr-tb;text-anchor:start"
       y="93.973618"
       x="36.576012"
       height="89.167885"
       width="106.41873"
       id="rect3073" /></flowRegion><flowPara
     id="flowPara3033"
     style="font-size:40px;line-height:1.25;font-family:sans-serif">s</flowPara></flowRoot><flowRoot
   transform="matrix(0.21901642,0,0,0.21901642,-5.8821921,18.103856)"
   style="font-style:normal;font-variant:normal;font-weight:normal;font-stretch:normal;line-height:0.01%;font-family:sans-serif;-inkscape-font-specification:Sans;text-align:start;letter-spacing:0px;word-spacing:0px;writing-mode:lr-tb;text-anchor:start;fill:#000000;fill-opacity:1;stroke:none"
   id="flowRoot3077"
   xml:space="preserve"
   inkscape:transform-center-x="-2.5001705"
   inkscape:transform-center-y="3.1889953"><flowRegion
     id="flowRegion3079"
     style="font-family:sans-serif"><rect
       style="font-style:normal;font-variant:normal;font-weight:normal;font-stretch:normal;font-size:40px;line-height:125%;font-family:Sans;-inkscape-font-specification:Sans;text-align:start;writing-mode:lr-tb;text-anchor:start"
       y="367.66309"
       x="66.845818"
       height="56.755882"
       width="54.233398"
       id="rect3081" /></flowRegion><flowPara
     id="flowPara3057"
     style="font-size:40px;line-height:1.25;font-family:sans-serif">f</flowPara></flowRoot><path
   style="fill:none;stroke:#000000;stroke-width:0.578092;stroke-linecap:butt;stroke-linejoin:miter;stroke-miterlimit:4;stroke-dasharray:none;stroke-opacity:1"
   d="M 4.7957012,38.798296 28.206691,35.692926"
   id="path3096"
   inkscape:connector-curvature="0"
   sodipodi:nodetypes="cc" /><path
   style="fill:none;stroke:#000000;stroke-width:0.578092;stroke-linecap:butt;stroke-linejoin:miter;stroke-miterlimit:4;stroke-dasharray:none;stroke-opacity:1;marker-start:url(#Arrow1Mstart);marker-end:url(#Arrow1Mend)"
   d="m 19.625777,38.218196 8.720008,61.7149"
   id="path3884"
   inkscape:connector-curvature="0"
   sodipodi:nodetypes="cc" /><rect
   style="overflow:visible;fill:#ffffff;fill-opacity:1;stroke:none"
   id="rect5722-5"
   width="7.8629398"
   height="8.5466738"
   x="43.617638"
   y="67.084175"
   ry="0.17093347" /><path
   style="overflow:visible;fill:none;stroke:#000000;stroke-width:0.578092;stroke-linecap:butt;stroke-linejoin:miter;stroke-miterlimit:4;stroke-dasharray:none;stroke-opacity:1;marker-start:url(#Arrow1Mstart);marker-end:url(#Arrow1Mend-4)"
   d="m 19.778125,35.817186 3.557914,-9.43723"
   id="path4756-9"
   inkscape:connector-curvature="0"
   sodipodi:nodetypes="cc" /><path
   style="fill:none;stroke:#000000;stroke-width:0.77079;stroke-linecap:butt;stroke-linejoin:miter;stroke-miterlimit:4;stroke-dasharray:1.54158, 0.77079;stroke-dashoffset:0;stroke-opacity:1"
   d="m 35.4572,24.236926 23.480384,0.10423"
   id="path3090"
   inkscape:connector-curvature="0"
   sodipodi:nodetypes="cc" /><path
   style="fill:none;stroke:#000000;stroke-width:0.77079;stroke-linecap:butt;stroke-linejoin:miter;stroke-miterlimit:4;stroke-dasharray:1.54158, 0.77079;stroke-dashoffset:0;stroke-opacity:1"
   d="m 40.548754,99.542736 22.725435,-0.0681"
   id="path3891"
   inkscape:connector-curvature="0"
   sodipodi:nodetypes="cc" /><path
   style="fill:none;stroke:#ff0000;stroke-width:0.77079;stroke-linecap:butt;stroke-linejoin:miter;stroke-miterlimit:4;stroke-dasharray:none;stroke-opacity:1"
   d="m 63.186246,99.507236 c 0,0 3.815213,0.36804 4.769019,1.389974 0.953802,1.02194 2.680402,1.19326 4.656137,1.73829 1.975739,0.54503 5.086284,0.68329 5.97196,1.02394 0.885676,0.34064 3.474571,-3.33831 4.22399,-7.902954 0.749416,-4.56463 3.065797,-13.83015 4.223986,-13.89828 1.158193,-0.0681 3.678957,3.40644 5.382179,7.69856 1.703222,4.29211 4.22399,4.42837 5.859082,4.36024 1.635096,-0.0681 5.177801,3.20206 6.881011,5.24593 1.70323,2.043864 6.1316,2.793284 7.76669,3.270184 1.6351,0.4769 2.38451,1.63509 3.5427,1.56696 1.15819,-0.0681 1.77135,-1.29445 1.77135,-1.29445"
   id="path4526"
   inkscape:connector-curvature="0"
   sodipodi:nodetypes="cssssssssssc" /><path
   style="fill:none;stroke:#ff0000;stroke-width:0.77079;stroke-linecap:butt;stroke-linejoin:miter;stroke-miterlimit:4;stroke-dasharray:none;stroke-opacity:1"
   d="m 59.062498,24.359546 c 0,0 5.975968,3.46088 7.815447,3.59714 1.839478,0.13625 4.926649,1.5202 6.698001,1.38395 1.771349,-0.13626 2.180122,-1.83948 3.406441,-11.71816 1.226318,-9.8786801 2.111995,-17.30473006 3.406444,-17.23660006 1.294445,0.0681 0.681285,0.95380996 1.362575,1.15818996 0.681289,0.20439 1.975735,0.4769 2.725154,2.31638 0.749416,1.83948 2.111991,7.2216601 2.452638,11.8544201 0.340643,4.63276 0.749416,6.6085 1.362575,6.81288 0.61316,0.20439 1.021933,-0.20438 1.839479,0.40878 0.817546,0.61316 1.362579,0.81754 2.793284,1.02193 1.430706,0.20439 1.294445,1.22632 2.248252,1.97573 0.953802,0.74942 2.316381,0.88568 3.065797,1.49884 0.749416,0.61316 2.248255,0.68129 3.747095,0.68129 1.49883,0 1.29444,0.9538 2.58889,1.15819 1.29445,0.20438 2.92954,0.0681 4.08773,-0.0681 1.15819,-0.13626 2.04387,0.61316 2.5889,0.61316 0.54503,0 1.63509,-0.61316 1.63509,-0.61316"
   id="path4528"
   inkscape:connector-curvature="0"
   sodipodi:nodetypes="cssssssssssssssssc" /><path
   style="fill:none;stroke:#000000;stroke-width:0.77079;stroke-linecap:butt;stroke-linejoin:miter;stroke-miterlimit:4;stroke-dasharray:0.77079, 0.77079;stroke-dashoffset:0;stroke-opacity:1"
   d="m 74.078111,30.291316 0.192698,32.37318"
   id="path4530"
   inkscape:connector-curvature="0" /><path
   style="fill:none;stroke:#000000;stroke-width:0.77079;stroke-linecap:butt;stroke-linejoin:miter;stroke-miterlimit:4;stroke-dasharray:0.77079, 0.77079;stroke-dashoffset:0;stroke-opacity:1"
   d="M 78.895548,103.39668 79.088245,52.331856"
   id="path4532"
   inkscape:connector-curvature="0"
   sodipodi:nodetypes="cc" /><path
   style="fill:none;stroke:#000000;stroke-width:0.77079;stroke-linecap:butt;stroke-linejoin:miter;stroke-miterlimit:4;stroke-dasharray:none;stroke-opacity:1;marker-end:url(#Arrow2Mend)"
   d="m 65.021331,58.305476 h 7.900595"
   id="path4534"
   inkscape:connector-curvature="0" /><path
   style="overflow:visible;fill:none;stroke:#000000;stroke-width:0.77079;stroke-linecap:butt;stroke-linejoin:miter;stroke-miterlimit:4;stroke-dasharray:none;stroke-opacity:1;marker-end:url(#Arrow2Mend)"
   d="M 88.173687,58.312876 H 80.273092"
   id="path4534-5"
   inkscape:connector-curvature="0" /><text
   xml:space="preserve"
   style="font-style:normal;font-variant:normal;font-weight:normal;font-stretch:normal;line-height:0%;font-family:sans-serif;-inkscape-font-specification:Sans;text-align:start;letter-spacing:0px;word-spacing:0px;writing-mode:lr-tb;text-anchor:start;fill:#000000;fill-opacity:1;stroke:none"
   x="80.567833"
   y="65.776161"
   id="text5027"><tspan
     sodipodi:role="line"
     id="tspan5029"
     x="80.567833"
     y="65.776161"
     style="font-size:6.93711px;line-height:1.25;font-family:sans-serif">transit time</tspan></text>
<text
   xml:space="preserve"
   style="font-style:normal;font-weight:normal;line-height:0%;font-family:sans-serif;letter-spacing:0px;word-spacing:0px;fill:#000000;fill-opacity:1;stroke:none"
   x="114.03245"
   y="116.05524"
   id="text5035"><tspan
     sodipodi:role="line"
     id="tspan5037"
     x="114.03245"
     y="116.05524"
     style="font-size:15.4158px;line-height:1.25;font-family:sans-serif"> </tspan></text>
<text
   xml:space="preserve"
   style="font-style:normal;font-variant:normal;font-weight:normal;font-stretch:normal;line-height:0%;font-family:sans-serif;-inkscape-font-specification:Sans;text-align:start;letter-spacing:0px;word-spacing:0px;writing-mode:lr-tb;text-anchor:start;fill:#000000;fill-opacity:1;stroke:none"
   x="57.49754"
   y="131.75156"
   id="text5031"><tspan
     sodipodi:role="line"
     id="tspan5033"
     x="57.49754"
     y="131.75156"
     style="font-size:6.93711px;line-height:1.25;font-family:sans-serif">PWV  =</tspan></text>
<text
   style="font-style:normal;font-variant:normal;font-weight:normal;font-stretch:normal;font-size:7.00853px;line-height:0%;font-family:sans-serif;-inkscape-font-specification:Sans;text-align:start;letter-spacing:0px;word-spacing:0px;writing-mode:lr-tb;text-anchor:start;overflow:visible;fill:#000000;fill-opacity:1;stroke:none"
   xml:space="preserve"
   id="text10112-0-1"
   y="126.13367"
   x="87.860291"><tspan
     id="tspan10114-9-7"
     y="126.13367"
     x="87.860291"
     style="font-family:sans-serif">distance</tspan></text>
<text
   xml:space="preserve"
   style="font-style:normal;font-variant:normal;font-weight:normal;font-stretch:normal;line-height:0%;font-family:sans-serif;-inkscape-font-specification:Sans;text-align:start;letter-spacing:0px;word-spacing:0px;writing-mode:lr-tb;text-anchor:start;fill:#000000;fill-opacity:1;stroke:none"
   x="74.434975"
   y="142.95934"
   id="text5117"
   transform="scale(1.1196992,0.89309699)"><tspan
     sodipodi:role="line"
     id="tspan5119"
     x="74.434975"
     y="142.95934"
     style="font-size:7.76748px;line-height:1.25;font-family:sans-serif">_________</tspan></text>
<text
   xml:space="preserve"
   style="font-style:normal;font-variant:normal;font-weight:normal;font-stretch:normal;line-height:0%;font-family:sans-serif;-inkscape-font-specification:Sans;text-align:start;letter-spacing:0px;word-spacing:0px;writing-mode:lr-tb;text-anchor:start;overflow:visible;fill:#000000;fill-opacity:1;stroke:none"
   x="83.206779"
   y="135.707"
   id="text5027-2"><tspan
     sodipodi:role="line"
     id="tspan5029-2"
     x="83.206779"
     y="135.707"
     style="font-size:6.93711px;line-height:1.25;font-family:sans-serif">transit time</tspan></text>
<text
   style="font-style:normal;font-variant:normal;font-weight:normal;font-stretch:normal;line-height:0%;font-family:sans-serif;-inkscape-font-specification:Sans;text-align:start;letter-spacing:0px;word-spacing:0px;writing-mode:lr-tb;text-anchor:start;overflow:visible;fill:#000000;fill-opacity:1;stroke:none"
   xml:space="preserve"
   id="text10156-4-1-1"
   y="133.9912"
   x="72.05455"><tspan
     sodipodi:role="line"
     id="tspan3092-1-6"
     x="72.05455"
     y="133.9912"
     style="font-size:5.25639px;line-height:1.25;font-family:sans-serif">cf</tspan></text>
<path
   style="fill:none;stroke:#646464;stroke-width:1.15618;stroke-linecap:butt;stroke-linejoin:miter;stroke-miterlimit:4;stroke-dasharray:none;stroke-opacity:0"
   d="m 32.235622,40.122706 c 0,0 -4.046647,-4.91378 -5.491878,-4.81743 -1.445231,0.0964 -2.794113,1.44523 -3.853949,1.73427 -1.059836,0.28905 -6.937108,-0.77079 -7.996944,0.86714 -1.059836,1.63793 -2.31237,3.9503 -2.505067,5.01014 -0.192698,1.05983 -1.445231,7.03345 -1.637929,9.63487 -0.192697,2.60141 -1.2525324,9.53852 -2.1196709,10.40566 -0.8671386,0.86714 -1.2525335,1.54158 -1.2525335,1.54158"
   id="path5229"
   inkscape:connector-curvature="0" /><path
   style="overflow:visible;fill:none;stroke:#000000;stroke-width:0.578092;stroke-linecap:butt;stroke-linejoin:miter;stroke-miterlimit:4;stroke-dasharray:none;stroke-opacity:1"
   d="M 8.7705981,27.352656 32.181587,24.247296"
   id="path3096-6"
   inkscape:connector-curvature="0"
   sodipodi:nodetypes="cc" /><path
   style="overflow:visible;fill:none;stroke:#000000;stroke-width:0.578092;stroke-linecap:butt;stroke-linejoin:miter;stroke-miterlimit:4;stroke-dasharray:none;stroke-opacity:1"
   d="m 12.858328,103.18006 23.41099,-3.10536"
   id="path3096-18"
   inkscape:connector-curvature="0"
   sodipodi:nodetypes="cc" /><text
   style="font-style:normal;font-variant:normal;font-weight:normal;font-stretch:normal;font-size:7.00853px;line-height:0%;font-family:sans-serif;-inkscape-font-specification:Sans;text-align:start;letter-spacing:0px;word-spacing:0px;writing-mode:lr-tb;text-anchor:start;overflow:visible;fill:#000000;fill-opacity:1;stroke:none"
   xml:space="preserve"
   id="text10112-0-1-0"
   y="73.499245"
   x="37.782177"><tspan
     id="tspan10114-9-7-2"
     y="73.499245"
     x="37.782177"
     style="font-family:sans-serif">distance</tspan></text>
</svg>
