<?xml version="1.0" encoding="UTF-8" standalone="no"?>
<!-- Generator: Adobe Illustrator 12.0.0, SVG Export Plug-In . SVG Version: 6.00 Build 51448)  -->

<svg
   xmlns:dc="http://purl.org/dc/elements/1.1/"
   xmlns:cc="http://creativecommons.org/ns#"
   xmlns:rdf="http://www.w3.org/1999/02/22-rdf-syntax-ns#"
   xmlns:svg="http://www.w3.org/2000/svg"
   xmlns="http://www.w3.org/2000/svg"
   xmlns:sodipodi="http://sodipodi.sourceforge.net/DTD/sodipodi-0.dtd"
   xmlns:inkscape="http://www.inkscape.org/namespaces/inkscape"
   version="1.1"
   id="Layer_1"
   width="800.098"
   height="909.377"
   viewBox="0 0 800.098 909.377"
   overflow="visible"
   enable-background="new 0 0 800.098 909.377"
   xml:space="preserve"
   sodipodi:version="0.32"
   inkscape:version="0.48.1 "
   sodipodi:docname="Respiratory_system_pharynx.svg"
   inkscape:output_extension="org.inkscape.output.svg.inkscape"><metadata
   id="metadata2044"><rdf:RDF><cc:Work
       rdf:about=""><dc:format>image/svg+xml</dc:format><dc:type
         rdf:resource="http://purl.org/dc/dcmitype/StillImage" /></cc:Work></rdf:RDF></metadata><defs
   id="defs2042"><inkscape:perspective
   sodipodi:type="inkscape:persp3d"
   inkscape:vp_x="0 : 454.68851 : 1"
   inkscape:vp_y="0 : 1000 : 0"
   inkscape:vp_z="800.09802 : 454.68851 : 1"
   inkscape:persp3d-origin="400.04901 : 303.12567 : 1"
   id="perspective2046" />
	
	
	
	
	
	
	
	
	
	
	
	
	
	
	
	
	
	
	
	
	
	
	
	
	
	
	
	
	
	
	
	
	
	
	
	
	
	
	
	
	
	
	
	
	
	
	
	
	
	
	
	
	
</defs><sodipodi:namedview
   inkscape:window-height="962"
   inkscape:window-width="1280"
   inkscape:pageshadow="2"
   inkscape:pageopacity="0.0"
   guidetolerance="10.0"
   gridtolerance="10.0"
   objecttolerance="10.0"
   borderopacity="1.0"
   bordercolor="#666666"
   pagecolor="#ffffff"
   id="base"
   showgrid="false"
   inkscape:zoom="0.8829471"
   inkscape:cx="404.28061"
   inkscape:cy="657.44142"
   inkscape:window-x="-8"
   inkscape:window-y="-8"
   inkscape:current-layer="Layer_1"
   inkscape:window-maximized="1" />
<path
   fill="none"
   stroke="#E2E2E2"
   stroke-width="1.9108"
   d="M482.313,26.572c6.892,11.263,15.486,19.323,19.663,31.902  c4.492,13.531,8.883,28.38,10.095,42.634c2.737,32.098-13.053,57.779-28.025,85.178c-16.923,30.964-43.366,60.888-39.017,98.428  c9.938,85.786,157.249,111.608,220.453,144.819"
   id="path3" />


<radialGradient
   id="XMLID_25_"
   cx="671.4736"
   cy="150.2441"
   r="110.619"
   gradientUnits="userSpaceOnUse">
	<stop
   offset="0.0056"
   style="stop-color: rgb(63, 63, 63);"
   id="stop10" />
	<stop
   offset="0.3287"
   style="stop-color: rgb(104, 104, 104);"
   id="stop12" />
	<stop
   offset="1"
   style="stop-color: rgb(200, 200, 200);"
   id="stop14" />
</radialGradient>

<path
   style="fill:#047391;stroke:#0060b6;stroke-width:0.95190001"
   inkscape:connector-curvature="0"
   id="path32"
   d="m 344.513,340.805 c -1.519,0.723 -0.77,2.329 -1.079,3.567 -0.333,1.331 -1.952,2.175 -3.086,2.761 -1.013,0.522 -2.117,0.793 -3.172,1.215 -2.851,1.14 -5.25,3.072 -8.527,2.111 -2.62,-0.767 -3.75,-4.282 -5.306,-6.248 -0.308,-0.387 -2.379,-2.993 -2.289,-1.295 0.037,0.691 1.316,1.864 1.594,2.618 0.81,2.197 0.558,4.479 1.062,6.7 1.15,5.075 2.579,10.181 3.981,15.193 0.905,3.233 1.576,6.542 2.68,9.709 1.356,3.896 1.66,8.033 3.043,11.952 1.673,4.741 3.245,9.391 4.392,14.331 4.284,18.481 8.593,35.192 9.631,54.265 0.371,6.8 -1.233,13.504 -1.962,20.225 -0.605,5.589 0.738,11.671 -1.045,16.886 -3.308,9.672 -11.781,16.812 -17.455,25.072 -4.718,6.87 -7.231,15.073 -9.772,22.939 -2.991,9.265 -2.108,19.158 -3.759,28.66 -0.872,5.021 -5.008,10.284 -5.129,15.271 5.648,2.827 7.148,-5.027 11.803,-4.766 4.018,0.226 5.321,6.807 6.668,9.764 -0.01,-0.023 3.238,-10.034 3.435,-11.347 1.005,-6.616 3.548,-12.889 4.14,-19.582 0.493,-5.556 0.74,-9.02 3.364,-14.176 6.932,-13.621 13.242,-25.196 23.812,-36.131 3.746,0.745 4.615,4.651 7.01,7.094 8.605,8.777 22.503,13.343 33.667,17.615 8.751,3.353 16.154,5.144 23.304,12.083 4.808,4.668 12.579,11.948 10.278,19.267 3.964,-6.97 7.823,-13.134 15.537,-6.117 1.064,0.966 -0.076,-6.507 -0.465,-7.212 -1.988,-3.579 -5.151,-6.664 -7.992,-9.563 -3.364,-3.431 -6.904,-6.42 -10.962,-8.791 -3.404,-1.983 -6.82,-5.37 -10.633,-6.476 5.243,1.52 17.643,-6.287 17.559,-11.855 -0.067,-4.542 -3.553,-6.613 -7.804,-5.24 -6.333,2.05 -10.104,7.481 -17.53,7.387 -4.977,-0.063 -10.835,-3.897 -15.345,-5.962 -6.191,-2.835 -12.18,-6.542 -16.887,-11.516 -7.815,-8.262 -10.958,-18.604 -11.084,-29.707 -0.309,-27.294 -5.841,-52.931 -10.547,-79.716 -0.239,-1.367 -0.509,-2.725 -0.798,-4.077 -1.671,-7.815 -4.033,-15.416 -5.541,-23.22 -0.634,-3.281 -1.178,-6.636 -2.921,-9.479 -1.74,-2.835 -2.239,-6.744 -3.293,-9.812 -0.369,-1.073 -0.599,-5.337 -2.577,-4.397 z" /><path
   style="fill:#e8f2f7;stroke:#626366;stroke-width:0.95539999"
   inkscape:connector-curvature="0"
   id="path46"
   d="m 325.822,364.625 c 0.004,0.017 0.009,0.034 0.013,0.05 0.27,0.949 0.229,2.068 0.713,2.948 0.63,1.147 2.645,0.893 2.758,-0.6 0.106,-1.409 -0.864,-3.034 -1.219,-4.373 -0.213,-0.803 -0.423,-2.809 -1.124,-3.316 -1.207,-0.875 -2.493,0.6 -2.458,1.706 0.042,1.266 0.963,2.397 1.317,3.585 z" /><path
   style="fill:#e8f2f7;stroke:#626366;stroke-width:0.95539999"
   inkscape:connector-curvature="0"
   id="path48"
   d="m 353.05,361.205 c -0.127,-0.522 -0.428,-1.123 -0.61,-1.693 -0.367,-1.149 -0.356,-2.617 -0.547,-3.958 -0.115,-0.798 -0.3,-1.55 -0.681,-2.165 -0.517,-0.832 -2.05,-0.147 -2.219,0.594 -0.169,0.748 0.578,2.816 0.761,3.625 0.303,1.339 0.225,2.714 0.44,4.055 0.899,0.065 1.963,-0.304 2.856,-0.458 z" /><path
   style="fill:#e8f2f7;stroke:#626366;stroke-width:0.95539999"
   inkscape:connector-curvature="0"
   id="path54"
   d="m 359.427,387.275 c 0.003,-0.046 0.004,-0.093 0.008,-0.139 0.034,-0.512 0.428,-2.004 -0.292,-2.261 -0.568,-0.2 -4.252,1.429 -4.624,1.914 -0.644,0.839 0.266,2.208 0.562,3.042 0.258,0.726 0.592,4.089 -0.403,4.424 1.404,-0.474 3.167,-0.864 4.5,-1.575 2.26,-1.204 0.18,-3.484 0.249,-5.405 z" /><path
   style="fill:#e8f2f7;stroke:#626366;stroke-width:0.95539999"
   inkscape:connector-curvature="0"
   id="path58"
   d="m 357.733,400.101 c -2.985,1.415 -5.878,2.353 -9.05,3.147 -3.091,0.773 -6.211,1.546 -9.418,1.111 -0.781,-0.106 -1.432,-0.591 -2.23,-0.515 -0.237,0.689 0.341,1.487 0.64,2.167 0.382,0.87 0.482,1.645 0.531,2.587 0.028,0.555 -0.208,1.701 0.154,2.126 0.815,0.958 3.545,0.781 4.61,0.66 1.379,-0.155 2.752,-0.269 4.138,-0.431 2.879,-0.336 5.763,-0.809 8.523,-1.72 2.425,-0.802 5.481,-1.762 7.123,-3.82 0.586,-0.735 0.398,-0.794 0.167,-1.486 -0.458,-1.361 -0.744,-2.361 -0.831,-3.822 -0.063,-1.033 -0.255,-2.355 -1.592,-1.831 -0.157,0.062 -0.521,0.496 -0.689,0.627 -0.656,0.508 -1.309,0.836 -2.076,1.2 z" /><path
   style="fill:#e8f2f7;stroke:#626366;stroke-width:0.95539999"
   inkscape:connector-curvature="0"
   id="path60"
   d="m 360.826,421.296 c 1.592,-0.929 3.053,-2.045 4.224,-3.277 1.338,-1.409 0.217,-2.348 -0.272,-3.886 -0.286,-0.9 -0.158,-2.405 -0.723,-3.129 -0.589,0.27 -1.031,0.863 -1.463,1.31 -2.634,2.725 -6.091,4.182 -9.765,4.886 -3.934,0.753 -7.966,1.042 -11.768,-0.709 -0.215,-0.099 -0.94,-0.98 -0.885,-0.969 -1.166,-0.229 -0.817,0.936 -0.605,1.539 0.516,1.471 0.569,2.795 0.883,4.281 0.269,1.27 0.334,1.439 1.6,1.595 1.958,0.245 3.676,0.846 5.667,1.01 2.085,0.172 4.198,0.276 6.271,-0.082 2.263,-0.39 4.672,-1.307 6.836,-2.569 z" /><path
   style="fill:#e8f2f7;stroke:#626366;stroke-width:0.95539999"
   inkscape:connector-curvature="0"
   id="path62"
   d="m 359.807,434.815 c 0.373,-0.101 0.74,-0.21 1.099,-0.332 1.597,-0.536 4.188,-1.806 5.271,-3.18 1.347,-1.706 0.69,-3.905 0.423,-5.826 -0.073,-0.525 -0.126,-2.671 -1.171,-1.851 0.778,1.765 -5.4,4.496 -6.627,4.756 -4.246,0.902 -8.919,1.27 -13.168,0.149 -0.48,-0.127 -2.174,-0.822 -2.613,-0.669 -1.422,0.494 0.182,3.479 0.331,4.388 0.316,1.922 0.291,2.184 2.39,2.628 4.341,0.921 9.65,1.124 14.065,-0.063 z" /><path
   style="fill:#e8f2f7;stroke:#626366;stroke-width:0.95539999"
   inkscape:connector-curvature="0"
   id="path64"
   d="m 366.55,439.998 c -0.917,0.636 -2.026,1.103 -2.702,1.376 -2.442,0.986 -5.092,1.462 -7.722,1.602 -1.936,0.103 -4.012,-0.047 -5.917,-0.404 -1.414,-0.266 -5.127,-0.631 -4.858,-2.768 0.032,-0.26 -0.656,-0.036 -0.737,0.028 -0.249,0.197 -0.132,0.847 -0.123,1.107 0.033,0.963 0.24,2.046 0.45,2.985 0.176,0.786 0.216,1.566 0.299,2.359 0.096,0.924 -0.03,0.828 0.67,1.426 1.096,0.939 2.885,1.253 4.258,1.468 5.558,0.865 12.021,0.583 17.072,-2.137 1.984,-1.068 2.191,-2.354 1.942,-4.453 -0.113,-0.956 0.26,-6.468 -1.236,-5.566 0.533,1.206 -0.294,2.213 -1.396,2.977 z" /><path
   style="fill:#e8f2f7;stroke:#626366;stroke-width:0.95539999"
   inkscape:connector-curvature="0"
   id="path66"
   d="m 370.592,457.375 c 0.123,-0.178 0.225,-0.367 0.308,-0.569 0.584,-1.455 0.46,-3.356 0.318,-4.875 -0.059,-0.625 -0.047,-1.631 -0.438,-2.164 -0.167,-0.23 -1.162,-0.599 -1.076,-0.438 1.362,2.552 -6.734,4.347 -7.949,4.578 -3.289,0.623 -6.727,0.657 -10.023,0.079 -1.263,-0.221 -5.351,-1.154 -4.92,-3.177 0.048,-0.227 -0.888,0.544 -0.984,0.786 -0.224,0.558 -0.095,1.315 -0.093,1.901 0.003,1.354 -0.319,3.996 0.262,5.166 0.532,1.067 1.668,1.13 2.657,1.445 1.262,0.402 2.423,0.866 3.732,1.149 1.81,0.394 3.881,0.71 5.743,0.563 3.279,-0.259 6.615,-0.686 9.546,-2.264 1.012,-0.547 2.242,-1.195 2.917,-2.18 z" /><path
   style="fill:#e8f2f7;stroke:#626366;stroke-width:0.95539999"
   inkscape:connector-curvature="0"
   id="path68"
   d="m 371.427,485.145 c 0.21,-0.227 0.406,-0.475 0.581,-0.743 0.712,-1.084 0.344,-2.282 0.198,-3.462 -0.137,-1.093 0.006,-2.217 -0.149,-3.301 -0.075,-0.517 -0.372,-2.025 -0.893,-2.251 -1.052,-0.456 -0.452,0.784 -0.527,1.256 -0.1,0.624 -0.182,0.701 -0.72,1.099 -0.818,0.602 -1.967,0.819 -2.911,1.153 -2.617,0.924 -5.41,1.567 -8.193,1.621 -1.287,0.024 -2.394,-0.25 -3.624,-0.458 -1.429,-0.242 -2.782,-0.124 -4.132,-0.792 -1.389,-0.686 -3.249,-0.831 -4.512,-1.761 -0.601,-0.442 -0.975,-1.44 -1.582,-0.405 -0.194,0.331 -0.186,1.518 -0.225,1.923 -0.139,1.448 -0.277,3.105 -0.193,4.551 0.073,1.233 0.417,1.319 1.608,2.084 1.184,0.759 2.501,1.021 3.771,1.508 1.216,0.469 2.283,0.959 3.593,1.177 2.65,0.437 5.426,0.311 8.071,-0.095 3.155,-0.487 7.491,-0.573 9.839,-3.104 z" /><path
   style="fill:#e8f2f7;stroke:#626366;stroke-width:0.95539999"
   inkscape:connector-curvature="0"
   id="path70"
   d="m 367.884,493.887 c -0.414,0.18 -0.812,0.33 -1.176,0.441 -3.283,1.015 -7.339,1.273 -10.751,1.058 -2.102,-0.134 -4,-0.922 -5.889,-1.792 -1.228,-0.566 -3.293,-1.424 -4.1,-2.535 -0.431,-0.593 -0.424,-1.591 -1.336,-1.752 -2.082,-0.367 -0.76,3.834 -1.08,4.88 -0.857,2.785 2.307,3.502 4.188,4.869 2.345,1.703 4.765,3.356 6.798,5.437 2.048,2.094 3.398,4.723 4.629,7.309 0.288,0.602 0.095,1.323 0.883,1.461 0.48,0.083 1.098,-0.393 1.541,-0.531 0.936,-0.295 2.619,0.457 3.121,-0.063 0.517,-0.536 0.307,-2.762 0.478,-3.553 0.55,-2.554 1.779,-4.934 3.403,-6.968 1.286,-1.612 2.606,-3.176 4.249,-4.418 1.052,-0.796 2.84,-1.575 3.608,-2.596 1.042,-1.385 -0.265,-1.869 -0.784,-2.947 -0.266,-0.552 -0.199,-1.382 -0.291,-1.979 -0.138,-0.89 -0.377,-2.309 -1.318,-2.399 -0.193,-0.018 -0.417,0.02 -0.675,0.13 0.419,-0.178 0.008,1.691 -0.076,1.833 -0.944,1.61 -3.389,3.231 -5.422,4.115 z" /><path
   style="fill:#e8f2f7;stroke:#626366;stroke-width:0.95539999"
   inkscape:connector-curvature="0"
   id="path72"
   d="m 363.631,466.407 c -2.285,0.317 -4.681,0.303 -6.769,0.222 -2.178,-0.085 -4.371,-0.294 -6.528,-0.624 -0.834,-0.126 -1.527,-0.326 -2.282,-0.697 -0.051,-0.026 -1.873,-1.175 -1.401,-1.297 -1.353,0.349 -0.45,2.292 -0.483,3.208 -0.062,1.658 -1.56,3.513 0.26,4.742 1.18,0.797 2.922,0.907 4.259,1.353 3.209,1.067 7.654,1.06 10.986,0.603 2.852,-0.392 8.117,-0.821 9.753,-3.664 0.681,-1.184 0.056,-2.659 -0.018,-3.895 -0.067,-1.105 0.404,-2.255 0.214,-3.332 -0.352,-0.168 -0.761,-0.227 -1.165,-0.136 1.397,2.205 -5.687,3.36 -6.826,3.517 z" /><path
   style="fill:#e8f2f7;stroke:#626366;stroke-width:0.95539999"
   inkscape:connector-curvature="0"
   id="path78"
   d="m 372.273,513.794 c 1.771,-2.803 3.195,-5.655 5.377,-8.197 1.101,-1.284 2.123,-2.44 3.581,-3.286 1.15,-0.667 1.278,-0.491 0.525,-1.527 -0.496,-0.683 -1.301,-2.926 -2.011,-3.261 -1.276,-0.604 -4.104,1.524 -4.917,2.227 -2.869,2.483 -4.849,5.5 -6.472,8.901 -0.655,1.371 -1.311,2.75 -1.81,4.188 -0.271,0.779 -1.21,2.84 -0.746,3.539 0.397,0.604 1.356,0.753 1.819,1.456 0.373,0.567 0.446,1.561 1.233,1.732 1.006,0.221 1.183,-1.707 1.574,-2.539 0.53,-1.123 1.184,-2.184 1.847,-3.233 z" />
<path
   fill="#92D8F7"
   stroke="#0060B6"
   stroke-width="1.5923"
   d="M351.73,376.825c0.057,0.447,0.113,0.895,0.166,1.343  c0.695,5.829,3.404,11.787,1.948,17.603c-1.045,4.182-3.811,9.395-9.003,8.474c-6.87-1.22-9.164-12.929-10.454-18.37  c-2.088-8.798-3.896-17.805-6.586-26.483c-0.954-3.076-2.378-6.014-2.955-9.15c-0.44-2.387,0.273-4.422-1.385-6.63  c-2.264-3.014-5.724-2.414-8.763-4.104c-1.649-0.918-2.062-1.936-3.075-3.59c-9.48-15.466,1.662-27.213,13.709-36.502  c7.975-6.151,14.824-13.651,20.039-22.306c1.315-2.184,8.734-14.31,3.583-13.465c-3.489,0.573-14.604,16.604-12.587,5.322  c1.617-9.046,12.709-13.184,12.897-22.21c0.073-3.525-3.128-4.262-5.875-5.782c-6.622-3.668-15.074-3.683-22.38-4.787  c-12.378-1.871-25.98,0.048-37.637,4.688c-5.66,2.253-11.723,3.485-16.832,6.27c-2.692,1.466-5.367,1.607-8.349,0.917  c-4.605-1.065-5.289-4.88-9.095-6.648c-0.383,2.042,0.974,3.916,0.667,5.819c-1.139,7.026-9.243-1.464-10.237-4.371  c-1.03-3.013-0.173-5.757-0.821-8.773c-0.69-3.21-2.557-3.522-3.819-5.692c-3.587-6.172-2.671-23.333,2.773-28.336  c7.295-6.702,7.776,2.76,12.514,4.449c5.61,2,13.633-4.856,18.727-6.447c8.31-2.596,16.42-4.697,24.884-6.107  c9.731-1.62,21.586-1.728,30.892,1.508c7.666,2.666,18.27,12.06,25.411,7.248c-5.852,8.495,6.625,11.679,7.364,20.598  c4.986-3.045,3.419-13.017,5.178-18.251c2.9-8.627,0.157-10.09-2.925-19.108c-5.154-15.082-11.737-10.117-23.086-7.207  c-9.982,2.56-19.998-3.909-29.621-5.554c-14.696-2.511-29.039,2.364-43.361,4.886c-6.433,1.133-11.355,1.742-17.224-0.223  c-2.658-0.891-3.901-2.308-7.087-2.292c-2.94,0.014-5.581,2.209-8.597,1.667c-3.188-0.578-5.379-3.439-8.418-4.003  c-4.961-0.922-9.824,3.639-15.687,3.055c0.059,0.006-7.952-5.27-7.625-4c-0.727-2.821,1.445-8.459,2.68-11.033  c2.09-4.353,5.557-8.023,8.35-11.919c6.461-9.011,13.131-18.942,20.703-27.088c5.17-5.562,10.675-12.921,16.917-17.279  c5.955-4.158,8.518-1.001,14.927,1.197c19.258,6.607,39.167,12.977,59.679,13.712c6.205,0.223,14.447-1.969,19.705,1.988  c4.68,3.522,5.768,10.825,8.771,15.564c4.68,7.386,13.968,7.982,19.238,14.234c6.098,7.232,7.938,21.266,5.659,30.058  c-4.407,17.005-5.285,34.549-6.51,51.991c-0.443,6.317-0.958,12.76-1.893,19.024c-0.829,5.555-2.676,10.906-3.545,16.441  c-0.621,3.941-1.268,7.479-0.776,11.425c0.694,5.574,1.029,10.988,2.28,16.42c3.558,15.464,6.877,31.423,9.19,47.228  c1.393,9.518,5.548,24.845-6.206,29.61c-5.964,2.417-7.175-1.565-8.05-6.668c-1.647-9.597-1.831-19.564-2.787-29.266  c-0.585-5.917-0.482-11.925-0.921-17.859c-0.54-7.315-1.202-15.034-2.523-22.245c-0.331-1.811-1.013-5.824-3.534-5.82  c-3.376,0.003-2.493,4.969-2.876,6.912c-0.939,4.75-2.757,9.064-1.005,13.925c1.796,4.98-0.291,9.99-1.096,14.926  c-1.356,8.308-0.573,16.689,1.245,24.861C348.561,359.367,350.574,367.918,351.73,376.825z"
   id="path126" />
<path
   fill="none"
   stroke="#B2B2B2"
   stroke-width="1.9108"
   d="M271.495,15.426c-14,5.596-26.521,23.775-28.605,38.301  c-1.759,12.261-0.783,24.766-3.877,36.855c-2.006,7.835-8.907,14.407-14.013,21.162c-7.739,10.239-16.208,20.697-23.103,31.527  c-9.265,14.554-14.839,24.411,3.5,30.89c5.592,1.977,14.184,4.033,17.53,9.589c3.142,5.219,0.22,10.265-0.476,15.762  c-0.7,5.554-0.051,14.584,8.774,11.306c6.144-2.282,5.331-13.373,11.609-13.869"
   id="path128" />
<path
   fill="none"
   stroke="#B2B2B2"
   stroke-width="1.9108"
   d="M242.833,247.267c-7.526,2.571-3.762-8.76-4.444-12.738  c-0.8-4.667-4.213-10.173-8.931-11.958c-18.256-6.907-7.204,14.549-6.37,22.115c1.327,12.045-5.63,22.753-5.11,34.537  c1.07,24.163,33.258,31.75,52.783,34.143c10.031,1.23,20.128-2.641,23.807,9.028c3.368,10.684-1.108,19.246,3.678,29.966"
   id="path130" />
<path
   fill="none"
   stroke="#B2B2B2"
   stroke-width="1.9108"
   d="M42.19,444.822c49.055-71.383,181.432-53.881,246.515-114.658"
   id="path132" />
<path
   fill="#FFFFFF"
   stroke="#231F20"
   stroke-width="0.9554"
   d="M245.391,228.928c-4.134,3.426-4.817,13.179-4.223,18.166  c0.309,2.594,2.362,11.094,6.047,11.004c3.688-0.088,3.061-12.584,2.777-15.023c-0.657-5.654-4.082-10.806-4.601-16.255"
   id="path134" />
<path
   fill="#FFFFFF"
   stroke="#231F20"
   stroke-width="0.9554"
   d="M244.187,188.855c-5.154,4.28-5.679,8.231-5.439,14.991  c0.066,1.898,0.518,12.254,3.933,11.802c2.764-0.368,5.792-12.807,6.099-15.049c0.464-3.395-0.054-11.516-5.196-11.14"
   id="path136" />
<linearGradient
   id="XMLID_26_"
   gradientUnits="userSpaceOnUse"
   x1="296.6138"
   y1="206.2886"
   x2="299.6099"
   y2="245.2385">
	<stop
   offset="0"
   style="stop-color: rgb(248, 179, 154);"
   id="stop139" />
	<stop
   offset="1"
   style="stop-color: rgb(255, 255, 255);"
   id="stop141" />
</linearGradient>
<path
   fill="url(#XMLID_26_)"
   d="M336.366,212.736c4.094,4.312,6.135,10.693,7.914,16.267c1.632,5.113,4.2,13.963,1.368,19.12  c-3.306,6.021-10.062,3.302-14.96,1.5c-9.15-3.367-22.148,2.51-31.048,4.792c-12.045,3.091-23.787,1.651-35.878,0.698  c0.145-2.016,5.01-10.779,4.261-12.031c-3.929-6.574-14.735-4.287-16.79-9.573c-1.516-3.903,5.677-9.478,8.339-11.329  c5.523-3.839,11.941-6.819,17.867-9.948c6.242-3.295,12.882-5.922,19.818-7.308c10.221-2.042,21.041-1.019,30.758,2.717  C331.697,209.059,334.186,210.442,336.366,212.736z"
   id="path143" />
<path
   fill="#92D8F7"
   stroke="#0060B6"
   stroke-width="1.5923"
   d="M255.405,82.042c-5.25,2.871-5.76,8.222-7.882,13.373  c0.716-1.738,14.76,3.958,16.463,3.983c11.112,0.172-1.09-16.488-6.988-17.356"
   id="path145" />
<path
   fill="#92D8F7"
   stroke="#0060B6"
   stroke-width="1.5923"
   d="M350.944,114.685c-1.34,9.813,8.097,22.669,18.131,23.923  c11.103,1.387,10.338-9.229,12.84-17.572c-2.364-1.081-5.696-2.083-7.724-3.924c-2.284-2.075-2.442-5.171-5.693-6.623  c-6.42-2.866-13.905,4.038-18.351,2.604"
   id="path147" />
<linearGradient
   id="XMLID_27_"
   gradientUnits="userSpaceOnUse"
   x1="357.0278"
   y1="301.7114"
   x2="370.6006"
   y2="374.677">
	<stop
   offset="0.0056"
   style="stop-color: rgb(146, 216, 247);"
   id="stop150" />
	<stop
   offset="0.0507"
   style="stop-color: rgb(149, 212, 240);"
   id="stop152" />
	<stop
   offset="0.1153"
   style="stop-color: rgb(157, 202, 221);"
   id="stop154" />
	<stop
   offset="0.1917"
   style="stop-color: rgb(171, 185, 190);"
   id="stop156" />
	<stop
   offset="0.2771"
   style="stop-color: rgb(191, 161, 147);"
   id="stop158" />
	<stop
   offset="0.3689"
   style="stop-color: rgb(215, 132, 92);"
   id="stop160" />
	<stop
   offset="0.4551"
   style="stop-color: rgb(241, 100, 34);"
   id="stop162" />
	<stop
   offset="0.511"
   style="stop-color: rgb(243, 121, 65);"
   id="stop164" />
	<stop
   offset="0.6433"
   style="stop-color: rgb(247, 168, 132);"
   id="stop166" />
	<stop
   offset="0.763"
   style="stop-color: rgb(251, 206, 185);"
   id="stop168" />
	<stop
   offset="0.8662"
   style="stop-color: rgb(253, 233, 223);"
   id="stop170" />
	<stop
   offset="0.9486"
   style="stop-color: rgb(254, 249, 246);"
   id="stop172" />
	<stop
   offset="1"
   style="stop-color: rgb(255, 255, 255);"
   id="stop174" />
</linearGradient>
<path
   fill="url(#XMLID_27_)"
   d="M366.888,307.65c-0.347-2.479-0.644-6.495-3.668-6.93c-2.251-0.325-4.718,2.108-5.526,3.963  c-1.33,3.056-1.474,7.371-0.985,10.639c0.57,3.819,1.201,7.79,1.197,11.667c-0.004,4.854,0.333,9.873,0.8,14.881  c0.44,4.713,0.994,9.414,1.481,13.955c0.54,5.025-2.155,21.629,5.864,22.705c4.616,0.617,8.207-4.946,9.087-8.61  c0.866-3.604,0.91-6.864,0.475-10.417c-1.459-11.979-3.862-23.742-5.252-35.834C369.719,318.079,367.656,313.13,366.888,307.65z"
   id="path176" />
<path
   fill="none"
   stroke="#626366"
   stroke-width="0.9554"
   d="M264.163,248.438c11.085-10.695-8.769-8.847-12.22-14.065  c-5.281-7.988,16.221-18.342,20.87-20.691c14.5-7.328,28.978-11.915,45.383-8.225c7.542,1.696,15.916,4.16,20.574,11.034  c3.56,5.251,5.898,11.312,7.428,17.442c1.4,5.605,3.558,12.04,1.562,17.69"
   id="path178" />
<path
   fill="#047391"
   d="M323.887,320.021c1.785-0.663,3.554-1.167,5.163-1.497c3.344-0.685,9.659-0.945,12.597,0.817  c-2.566-1.54-9.134,2.778-11.568,3.598c-5.496,1.85-11.44,3.943-17.307,4.283C315.21,324.106,319.592,321.613,323.887,320.021z"
   id="path180" />
<path
   fill="none"
   stroke="#C1E9F7"
   stroke-width="1.5923"
   stroke-linecap="round"
   d="M339.4,319.234  c-4.055,0.817-7.383,3.54-11.32,4.741c-4.892,1.494-10.106,1.552-14.953,3.221"
   id="path182" />
<path
   fill="#047391"
   d="M329.316,357.38c3.632-1.584,7.56-2.389,11.521-2.388c-3.631,0.01-6.847,1.244-10.327,1.99"
   id="path184" />



<path
   opacity="0.35"
   fill="#047391"
   d="M345.452,394.101c0.104-0.169,0.18-0.357,0.222-0.564c0.45-2.233-3.217-2.921-4.667-2.108  c2.87-1.608,5.662-0.766,4.636-4.917c-0.924-3.735-1.86-3.392-4.875-4.585c1.645-1.879,4.136-0.47,3.413-3.992  c-0.26-1.271-0.938-2.377-1.138-3.718c-0.191-1.269,0.329-3.07-1.241-3.495c0.832,0.226,2.743-3.304,2.99-3.959  c0.585-1.547,0.57-3.193,0.429-4.816c-0.291-3.358-0.085-7.311-4.567-7.262c1.09-0.795,2.35-0.645,2.974-1.906  c0.448-0.906,0.3-2.499,0.151-3.481c-0.324-2.126,0.279-5.768-0.742-7.563c-0.938-1.646-5.04-0.795-5.006-2.335  c0.019-0.735,2.675-2.626,3.121-3.313c0.44-0.68,1.286-4.63,2.02-4.627c1.607,0.009,0.893,8.784,1.12,10.085  c0.603,3.458,1.088,6.972,2.081,10.317c2.129,7.177,2.553,14.791,4.047,22.105c0.757,3.709,1.185,7.231,2.457,10.741  c1.805,4.98,1.018,19.09-6.579,18.981c-3.051-0.043-7.836-4.369-7.723-7.467C340.047,396.826,344.586,395.509,345.452,394.101z"
   id="path192" />
<linearGradient
   id="XMLID_28_"
   gradientUnits="userSpaceOnUse"
   x1="158.1675"
   y1="644.8457"
   x2="195.9845"
   y2="651.6129">
	<stop
   offset="0"
   style="stop-color: rgb(239, 146, 159);"
   id="stop195" />
	<stop
   offset="0.2584"
   style="stop-color: rgb(255, 255, 255);"
   id="stop197" />
	<stop
   offset="0.4013"
   style="stop-color: rgb(251, 228, 232);"
   id="stop199" />
	<stop
   offset="0.6701"
   style="stop-color: rgb(245, 184, 192);"
   id="stop201" />
	<stop
   offset="0.8787"
   style="stop-color: rgb(241, 156, 168);"
   id="stop203" />
	<stop
   offset="1"
   style="stop-color: rgb(239, 146, 159);"
   id="stop205" />
</linearGradient>

<linearGradient
   id="XMLID_29_"
   gradientUnits="userSpaceOnUse"
   x1="163.1743"
   y1="612.5469"
   x2="339.9787"
   y2="655.811">
	<stop
   offset="0"
   style="stop-color: rgb(239, 146, 159);"
   id="stop210" />
	<stop
   offset="0.2584"
   style="stop-color: rgb(255, 255, 255);"
   id="stop212" />
	<stop
   offset="0.4013"
   style="stop-color: rgb(251, 228, 232);"
   id="stop214" />
	<stop
   offset="0.6701"
   style="stop-color: rgb(245, 184, 192);"
   id="stop216" />
	<stop
   offset="0.8787"
   style="stop-color: rgb(241, 156, 168);"
   id="stop218" />
	<stop
   offset="1"
   style="stop-color: rgb(239, 146, 159);"
   id="stop220" />
</linearGradient>

<linearGradient
   id="XMLID_30_"
   gradientUnits="userSpaceOnUse"
   x1="312.5396"
   y1="410.1523"
   x2="333.6378"
   y2="520.0229">
	<stop
   offset="0.0112"
   style="stop-color: rgb(239, 146, 159);"
   id="stop225" />
	<stop
   offset="0.6461"
   style="stop-color: rgb(80, 28, 31);"
   id="stop227" />
	<stop
   offset="1"
   style="stop-color: rgb(143, 0, 0);"
   id="stop229" />
</linearGradient>

<linearGradient
   id="XMLID_31_"
   gradientUnits="userSpaceOnUse"
   x1="183.8428"
   y1="454.3423"
   x2="349.2823"
   y2="505.5395">
	<stop
   offset="0"
   style="stop-color: rgb(239, 146, 159);"
   id="stop234" />
	<stop
   offset="0.1208"
   style="stop-color: rgb(244, 183, 191);"
   id="stop236" />
	<stop
   offset="0.3315"
   style="stop-color: rgb(255, 255, 255);"
   id="stop238" />
	<stop
   offset="0.3346"
   style="stop-color: rgb(255, 254, 254);"
   id="stop240" />
	<stop
   offset="0.5489"
   style="stop-color: rgb(248, 208, 213);"
   id="stop242" />
	<stop
   offset="0.7389"
   style="stop-color: rgb(243, 174, 184);"
   id="stop244" />
	<stop
   offset="0.8957"
   style="stop-color: rgb(240, 153, 166);"
   id="stop246" />
	<stop
   offset="1"
   style="stop-color: rgb(239, 146, 159);"
   id="stop248" />
</linearGradient>

<linearGradient
   id="XMLID_32_"
   gradientUnits="userSpaceOnUse"
   x1="223.8403"
   y1="548.6885"
   x2="277.003"
   y2="743.6184">
	<stop
   offset="0"
   style="stop-color: rgb(143, 0, 0);"
   id="stop253" />
	<stop
   offset="0.6854"
   style="stop-color: rgb(42, 0, 0);"
   id="stop255" />
	<stop
   offset="0.7253"
   style="stop-color: rgb(45, 4, 4);"
   id="stop257" />
	<stop
   offset="0.7648"
   style="stop-color: rgb(55, 16, 16);"
   id="stop259" />
	<stop
   offset="0.8043"
   style="stop-color: rgb(72, 36, 36);"
   id="stop261" />
	<stop
   offset="0.8436"
   style="stop-color: rgb(95, 64, 64);"
   id="stop263" />
	<stop
   offset="0.883"
   style="stop-color: rgb(125, 100, 100);"
   id="stop265" />
	<stop
   offset="0.9224"
   style="stop-color: rgb(162, 144, 144);"
   id="stop267" />
	<stop
   offset="0.9612"
   style="stop-color: rgb(205, 196, 196);"
   id="stop269" />
	<stop
   offset="1"
   style="stop-color: rgb(255, 255, 255);"
   id="stop271" />
</linearGradient>

<linearGradient
   id="XMLID_33_"
   gradientUnits="userSpaceOnUse"
   x1="569.2188"
   y1="641.2373"
   x2="490.6959"
   y2="661.8753">
	<stop
   offset="0"
   style="stop-color: rgb(239, 146, 159);"
   id="stop276" />
	<stop
   offset="0.6629"
   style="stop-color: rgb(255, 255, 255);"
   id="stop278" />
	<stop
   offset="0.6697"
   style="stop-color: rgb(254, 251, 251);"
   id="stop280" />
	<stop
   offset="0.7377"
   style="stop-color: rgb(249, 213, 218);"
   id="stop282" />
	<stop
   offset="0.8056"
   style="stop-color: rgb(245, 184, 192);"
   id="stop284" />
	<stop
   offset="0.8724"
   style="stop-color: rgb(241, 163, 174);"
   id="stop286" />
	<stop
   offset="0.9378"
   style="stop-color: rgb(240, 150, 163);"
   id="stop288" />
	<stop
   offset="1"
   style="stop-color: rgb(239, 146, 159);"
   id="stop290" />
</linearGradient>

<linearGradient
   id="XMLID_34_"
   gradientUnits="userSpaceOnUse"
   x1="-352.209"
   y1="551.168"
   x2="-300.3011"
   y2="741.4972"
   gradientTransform="matrix(-1, 0, 0, 1, 178.155, 0)">
	<stop
   offset="0"
   style="stop-color: rgb(143, 0, 0);"
   id="stop295" />
	<stop
   offset="0.6854"
   style="stop-color: rgb(42, 0, 0);"
   id="stop297" />
	<stop
   offset="0.7253"
   style="stop-color: rgb(45, 4, 4);"
   id="stop299" />
	<stop
   offset="0.7648"
   style="stop-color: rgb(55, 16, 16);"
   id="stop301" />
	<stop
   offset="0.8043"
   style="stop-color: rgb(72, 36, 36);"
   id="stop303" />
	<stop
   offset="0.8436"
   style="stop-color: rgb(95, 64, 64);"
   id="stop305" />
	<stop
   offset="0.883"
   style="stop-color: rgb(125, 100, 100);"
   id="stop307" />
	<stop
   offset="0.9224"
   style="stop-color: rgb(162, 144, 144);"
   id="stop309" />
	<stop
   offset="0.9612"
   style="stop-color: rgb(205, 196, 196);"
   id="stop311" />
	<stop
   offset="1"
   style="stop-color: rgb(255, 255, 255);"
   id="stop313" />
</linearGradient>

<linearGradient
   id="XMLID_35_"
   gradientUnits="userSpaceOnUse"
   x1="425.1494"
   y1="619.0107"
   x2="389.5212"
   y2="699.0026">
	<stop
   offset="0.0056"
   style="stop-color: rgb(69, 0, 0);"
   id="stop318" />
	<stop
   offset="0.1356"
   style="stop-color: rgb(108, 34, 37);"
   id="stop320" />
	<stop
   offset="0.3108"
   style="stop-color: rgb(155, 74, 80);"
   id="stop322" />
	<stop
   offset="0.4783"
   style="stop-color: rgb(191, 105, 114);"
   id="stop324" />
	<stop
   offset="0.634"
   style="stop-color: rgb(218, 128, 139);"
   id="stop326" />
	<stop
   offset="0.7731"
   style="stop-color: rgb(233, 141, 154);"
   id="stop328" />
	<stop
   offset="0.882"
   style="stop-color: rgb(239, 146, 159);"
   id="stop330" />
</linearGradient>

<linearGradient
   id="XMLID_36_"
   gradientUnits="userSpaceOnUse"
   x1="382.1245"
   y1="543.9629"
   x2="559.4117"
   y2="537.5933">
	<stop
   offset="0"
   style="stop-color: rgb(239, 146, 159);"
   id="stop335" />
	<stop
   offset="0.2584"
   style="stop-color: rgb(255, 255, 255);"
   id="stop337" />
	<stop
   offset="0.2733"
   style="stop-color: rgb(254, 251, 251);"
   id="stop339" />
	<stop
   offset="0.423"
   style="stop-color: rgb(249, 213, 218);"
   id="stop341" />
	<stop
   offset="0.5723"
   style="stop-color: rgb(245, 184, 192);"
   id="stop343" />
	<stop
   offset="0.7194"
   style="stop-color: rgb(241, 163, 174);"
   id="stop345" />
	<stop
   offset="0.8632"
   style="stop-color: rgb(240, 150, 163);"
   id="stop347" />
	<stop
   offset="1"
   style="stop-color: rgb(239, 146, 159);"
   id="stop349" />
</linearGradient>

<linearGradient
   id="XMLID_37_"
   gradientUnits="userSpaceOnUse"
   x1="398.9604"
   y1="387.062"
   x2="382.0352"
   y2="503.022">
	<stop
   offset="0.0112"
   style="stop-color: rgb(239, 146, 159);"
   id="stop354" />
	<stop
   offset="0.1561"
   style="stop-color: rgb(236, 143, 156);"
   id="stop356" />
	<stop
   offset="0.2825"
   style="stop-color: rgb(225, 136, 148);"
   id="stop358" />
	<stop
   offset="0.4021"
   style="stop-color: rgb(207, 122, 133);"
   id="stop360" />
	<stop
   offset="0.5175"
   style="stop-color: rgb(182, 103, 113);"
   id="stop362" />
	<stop
   offset="0.6298"
   style="stop-color: rgb(149, 79, 87);"
   id="stop364" />
	<stop
   offset="0.7384"
   style="stop-color: rgb(110, 50, 55);"
   id="stop366" />
	<stop
   offset="0.809"
   style="stop-color: rgb(80, 28, 31);"
   id="stop368" />
	<stop
   offset="1"
   style="stop-color: rgb(143, 0, 0);"
   id="stop370" />
</linearGradient>
















<path
   fill="#E8F2F7"
   stroke="#626366"
   stroke-width="0.9554"
   d="M307.237,332.481c-3.328-5.272-5.333-10.395-5.472-16.819  c-0.444-0.098-0.889-0.112-1.337-0.045c-0.076,1.431-0.046,3.054-0.214,4.6c-1.316,12.092,7.316,21.607,13.71,30.883  c3.024-7.019-2.059-11.726-5.589-16.942C307.955,333.597,307.588,333.038,307.237,332.481z"
   id="path676" />
<path
   fill="#E8F2F7"
   stroke="#626366"
   stroke-width="0.9554"
   d="M347.601,266.963c-0.046-0.36-0.149-0.691-0.314-0.986  c-0.617-1.108-9.125,12.998-9.782,13.721c-3.873,4.257-10.039,6.932-14.31,10.925c-3.58,3.346-6.572,9.031-7.584,13.666  c3.062-5.647,10.333-7.314,14.819-11.512c4.261-3.988,8.26-8.734,11.405-13.664C343.414,276.639,348.057,270.449,347.601,266.963z"
   id="path678" />
<path
   fill="#E8F2F7"
   stroke="#626366"
   stroke-width="0.9554"
   d="M350.148,328.32c-4.435,1.02-4.873,15.364-1.488,17.407  c3.075,1.855,1.046-7.032,0.957-8.384c-0.174-2.655,0.949-6.657,0-8.492"
   id="path680" />
<path
   fill="#E8F2F7"
   stroke="#626366"
   stroke-width="0.9554"
   d="M350.678,301.25c-5.6,1.539-1.783,17.689-1.511,22.223  c5.977-0.43,2.94-17.335,2.043-21.162"
   id="path682" />

<g
   id="g718">
	<path
   d="M51.353,217.614c0-1.892,0.507-3.374,1.522-4.444c1.015-1.071,2.325-1.606,3.931-1.606c1.051,0,1.999,0.251,2.843,0.754   c0.844,0.503,1.488,1.204,1.931,2.104c0.442,0.899,0.664,1.919,0.664,3.06c0,1.156-0.233,2.19-0.699,3.103   c-0.466,0.913-1.126,1.604-1.98,2.073s-1.776,0.704-2.766,0.704c-1.072,0-2.03-0.259-2.874-0.777   c-0.844-0.519-1.484-1.227-1.919-2.123C51.57,219.564,51.353,218.615,51.353,217.614z M52.907,217.638   c0,1.375,0.369,2.457,1.106,3.248s1.663,1.187,2.776,1.187c1.134,0,2.067-0.399,2.8-1.198c0.732-0.798,1.099-1.932,1.099-3.399   c0-0.928-0.157-1.739-0.47-2.431c-0.313-0.692-0.771-1.229-1.375-1.61s-1.28-0.572-2.031-0.572c-1.066,0-1.984,0.367-2.753,1.101   C53.292,214.696,52.907,215.921,52.907,217.638z"
   id="path720" />
	<path
   d="M63.996,223.166v-8.258h1.258v1.25c0.322-0.585,0.62-0.971,0.893-1.158c0.272-0.187,0.573-0.28,0.9-0.28   c0.473,0,0.954,0.15,1.442,0.452l-0.493,1.294c-0.341-0.2-0.683-0.301-1.024-0.301c-0.305,0-0.58,0.092-0.823,0.276   c-0.243,0.184-0.417,0.439-0.52,0.766c-0.156,0.498-0.234,1.042-0.234,1.634v4.324H63.996z"
   id="path722" />
	<path
   d="M74.697,222.15c-0.518,0.44-1.016,0.75-1.494,0.932c-0.479,0.181-0.992,0.271-1.541,0.271   c-0.905,0-1.601-0.222-2.087-0.665s-0.729-1.01-0.729-1.7c0-0.405,0.092-0.774,0.275-1.108s0.424-0.603,0.722-0.805   s0.632-0.355,1.005-0.459c0.274-0.073,0.688-0.143,1.242-0.21c1.127-0.135,1.958-0.296,2.491-0.482   c0.005-0.192,0.008-0.314,0.008-0.366c0-0.571-0.132-0.973-0.396-1.207c-0.356-0.316-0.887-0.475-1.589-0.475   c-0.657,0-1.141,0.115-1.454,0.346c-0.313,0.231-0.544,0.639-0.694,1.225l-1.367-0.188c0.124-0.585,0.329-1.057,0.613-1.417   c0.284-0.36,0.695-0.637,1.233-0.831c0.538-0.194,1.162-0.291,1.87-0.291c0.704,0,1.275,0.083,1.715,0.249   c0.44,0.166,0.763,0.374,0.97,0.625s0.352,0.568,0.435,0.951c0.046,0.238,0.07,0.668,0.07,1.292v1.869   c0,1.303,0.03,2.126,0.09,2.471c0.06,0.344,0.178,0.674,0.355,0.99h-1.461C74.833,222.876,74.739,222.538,74.697,222.15z    M74.58,219.018c-0.507,0.208-1.267,0.385-2.28,0.53c-0.574,0.083-0.979,0.176-1.217,0.28s-0.421,0.256-0.551,0.456   s-0.194,0.422-0.194,0.666c0,0.375,0.141,0.686,0.423,0.936c0.281,0.25,0.694,0.374,1.237,0.374c0.538,0,1.016-0.118,1.435-0.354   c0.418-0.236,0.726-0.56,0.923-0.97c0.149-0.317,0.225-0.785,0.225-1.403V219.018z"
   id="path724" />
	<path
   d="M78.139,223.166v-11.398h1.398v11.398H78.139z"
   id="path726" />
	<path
   d="M91.522,220.143l1.375,0.188c-0.15,0.946-0.535,1.686-1.154,2.221c-0.619,0.535-1.379,0.802-2.281,0.802   c-1.129,0-2.037-0.369-2.723-1.108c-0.687-0.739-1.03-1.798-1.03-3.177c0-0.892,0.147-1.672,0.443-2.341   c0.295-0.669,0.745-1.171,1.348-1.505c0.603-0.335,1.26-0.502,1.969-0.502c0.896,0,1.629,0.227,2.199,0.68s0.935,1.096,1.096,1.93   l-1.359,0.211c-0.129-0.555-0.359-0.972-0.688-1.252c-0.329-0.28-0.727-0.42-1.193-0.42c-0.705,0-1.277,0.253-1.717,0.759   c-0.44,0.506-0.661,1.307-0.661,2.401c0,1.11,0.212,1.917,0.637,2.421s0.979,0.755,1.663,0.755c0.549,0,1.007-0.168,1.375-0.506   C91.19,221.362,91.423,220.843,91.522,220.143z"
   id="path728" />
	<path
   d="M99.476,222.15c-0.518,0.44-1.016,0.75-1.494,0.932c-0.479,0.181-0.992,0.271-1.541,0.271   c-0.905,0-1.601-0.222-2.087-0.665s-0.729-1.01-0.729-1.7c0-0.405,0.092-0.774,0.275-1.108s0.424-0.603,0.722-0.805   s0.632-0.355,1.005-0.459c0.274-0.073,0.688-0.143,1.242-0.21c1.127-0.135,1.958-0.296,2.491-0.482   c0.005-0.192,0.008-0.314,0.008-0.366c0-0.571-0.132-0.973-0.396-1.207c-0.356-0.316-0.887-0.475-1.589-0.475   c-0.657,0-1.141,0.115-1.454,0.346c-0.313,0.231-0.544,0.639-0.694,1.225l-1.367-0.188c0.124-0.585,0.329-1.057,0.613-1.417   c0.284-0.36,0.695-0.637,1.233-0.831c0.538-0.194,1.162-0.291,1.87-0.291c0.704,0,1.275,0.083,1.715,0.249   c0.44,0.166,0.763,0.374,0.97,0.625s0.352,0.568,0.435,0.951c0.046,0.238,0.07,0.668,0.07,1.292v1.869   c0,1.303,0.03,2.126,0.09,2.471c0.06,0.344,0.178,0.674,0.355,0.99h-1.461C99.611,222.876,99.517,222.538,99.476,222.15z    M99.358,219.018c-0.507,0.208-1.267,0.385-2.28,0.53c-0.574,0.083-0.979,0.176-1.217,0.28s-0.421,0.256-0.551,0.456   s-0.194,0.422-0.194,0.666c0,0.375,0.141,0.686,0.423,0.936c0.281,0.25,0.694,0.374,1.237,0.374c0.538,0,1.016-0.118,1.435-0.354   c0.418-0.236,0.726-0.56,0.923-0.97c0.149-0.317,0.225-0.785,0.225-1.403V219.018z"
   id="path730" />
	<path
   d="M105.237,223.166l-3.132-8.258h1.477l1.772,4.945c0.191,0.534,0.368,1.089,0.528,1.664   c0.124-0.436,0.298-0.959,0.521-1.571l1.834-5.039h1.438l-3.122,8.258H105.237z"
   id="path732" />
	<path
   d="M110.917,213.377v-1.609h1.398v1.609H110.917z M110.917,223.166v-8.258h1.398v8.258H110.917z"
   id="path734" />
	<path
   d="M117.502,221.915l0.203,1.236c-0.394,0.083-0.746,0.124-1.057,0.124c-0.508,0-0.901-0.081-1.181-0.241   s-0.477-0.372-0.591-0.634s-0.171-0.813-0.171-1.653v-4.753h-1.031v-1.086h1.031v-2.045l1.398-0.839v2.884h1.398v1.086h-1.398   v4.833c0,0.399,0.024,0.656,0.073,0.771s0.129,0.205,0.24,0.272s0.269,0.101,0.475,0.101   C117.046,221.971,117.25,221.952,117.502,221.915z"
   id="path736" />
	<path
   d="M118.809,226.347l-0.156-1.313c0.307,0.083,0.574,0.125,0.802,0.125c0.312,0,0.561-0.052,0.748-0.155   c0.187-0.104,0.34-0.249,0.46-0.436c0.088-0.14,0.231-0.488,0.428-1.042c0.026-0.078,0.067-0.192,0.125-0.342l-3.133-8.274h1.508   l1.716,4.759c0.223,0.604,0.422,1.238,0.598,1.904c0.161-0.621,0.354-1.237,0.578-1.849l1.764-4.814h1.399l-3.128,8.402   c-0.338,0.906-0.601,1.53-0.789,1.872c-0.25,0.46-0.536,0.798-0.859,1.013s-0.708,0.322-1.155,0.322   C119.443,226.518,119.142,226.46,118.809,226.347z"
   id="path738" />
</g>

<g
   id="g770">
	<path
   d="M42.298,136.834v-11.398h1.546l5.993,8.951v-8.951h1.445v11.398h-1.546l-5.993-8.965v8.965H42.298z"
   id="path772" />
	<path
   d="M59.016,135.819c-0.518,0.44-1.016,0.75-1.494,0.932s-0.992,0.271-1.541,0.271c-0.905,0-1.601-0.222-2.087-0.665   s-0.729-1.01-0.729-1.7c0-0.404,0.092-0.774,0.275-1.108s0.424-0.603,0.722-0.805s0.632-0.355,1.005-0.459   c0.274-0.073,0.688-0.143,1.242-0.21c1.127-0.135,1.958-0.295,2.491-0.482c0.005-0.192,0.008-0.314,0.008-0.366   c0-0.571-0.132-0.973-0.396-1.207c-0.357-0.316-0.886-0.475-1.589-0.475c-0.657,0-1.141,0.115-1.454,0.346   c-0.313,0.23-0.544,0.639-0.694,1.224l-1.367-0.188c0.124-0.585,0.329-1.057,0.613-1.417c0.285-0.36,0.696-0.637,1.234-0.831   c0.538-0.194,1.162-0.292,1.87-0.292c0.704,0,1.275,0.083,1.715,0.249c0.439,0.166,0.763,0.374,0.97,0.625s0.352,0.568,0.435,0.951   c0.046,0.238,0.07,0.668,0.07,1.292v1.869c0,1.303,0.03,2.127,0.09,2.471c0.06,0.344,0.178,0.674,0.355,0.99h-1.461   C59.151,136.545,59.058,136.207,59.016,135.819z M58.899,132.686c-0.507,0.208-1.267,0.384-2.28,0.53   c-0.574,0.083-0.98,0.177-1.218,0.281s-0.421,0.256-0.551,0.456c-0.129,0.2-0.194,0.422-0.194,0.667   c0,0.374,0.141,0.686,0.422,0.935c0.282,0.25,0.694,0.374,1.237,0.374c0.538,0,1.016-0.118,1.435-0.354   c0.419-0.236,0.727-0.56,0.923-0.971c0.15-0.317,0.225-0.785,0.225-1.403V132.686z"
   id="path774" />
	<path
   d="M61.934,134.374l1.383-0.219c0.078,0.555,0.294,0.98,0.65,1.275s0.852,0.443,1.49,0.443c0.644,0,1.121-0.131,1.432-0.393   c0.311-0.263,0.467-0.57,0.467-0.923c0-0.317-0.138-0.566-0.413-0.748c-0.192-0.125-0.669-0.283-1.432-0.476   c-1.027-0.259-1.738-0.483-2.134-0.672c-0.396-0.189-0.697-0.451-0.901-0.785c-0.205-0.334-0.307-0.704-0.307-1.108   c0-0.368,0.084-0.709,0.252-1.022c0.169-0.313,0.398-0.574,0.688-0.782c0.217-0.161,0.514-0.296,0.89-0.408   c0.376-0.112,0.779-0.167,1.209-0.167c0.648,0,1.217,0.093,1.707,0.28s0.851,0.44,1.084,0.759c0.233,0.319,0.394,0.746,0.482,1.281   l-1.367,0.188c-0.062-0.427-0.243-0.76-0.541-1c-0.298-0.24-0.72-0.359-1.264-0.359c-0.643,0-1.102,0.106-1.377,0.319   s-0.412,0.462-0.412,0.748c0,0.182,0.057,0.345,0.171,0.491c0.114,0.15,0.293,0.275,0.537,0.374   c0.14,0.052,0.552,0.171,1.237,0.358c0.99,0.264,1.681,0.48,2.073,0.649c0.391,0.168,0.699,0.414,0.921,0.735   s0.334,0.721,0.334,1.197c0,0.467-0.136,0.906-0.408,1.318c-0.272,0.412-0.665,0.73-1.178,0.956   c-0.514,0.226-1.094,0.338-1.742,0.338c-1.073,0-1.891-0.223-2.454-0.668S62.09,135.249,61.934,134.374z"
   id="path776" />
	<path
   d="M75.833,135.819c-0.518,0.44-1.016,0.75-1.494,0.932s-0.992,0.271-1.541,0.271c-0.905,0-1.601-0.222-2.087-0.665   s-0.729-1.01-0.729-1.7c0-0.404,0.092-0.774,0.275-1.108s0.424-0.603,0.722-0.805s0.632-0.355,1.005-0.459   c0.274-0.073,0.688-0.143,1.242-0.21c1.127-0.135,1.958-0.295,2.491-0.482c0.005-0.192,0.008-0.314,0.008-0.366   c0-0.571-0.132-0.973-0.396-1.207c-0.356-0.316-0.887-0.475-1.589-0.475c-0.657,0-1.141,0.115-1.454,0.346   c-0.313,0.23-0.544,0.639-0.694,1.224l-1.367-0.188c0.124-0.585,0.329-1.057,0.613-1.417c0.284-0.36,0.695-0.637,1.233-0.831   c0.538-0.194,1.162-0.292,1.87-0.292c0.704,0,1.275,0.083,1.715,0.249c0.44,0.166,0.763,0.374,0.97,0.625s0.352,0.568,0.435,0.951   c0.046,0.238,0.07,0.668,0.07,1.292v1.869c0,1.303,0.03,2.127,0.09,2.471c0.06,0.344,0.178,0.674,0.355,0.99h-1.461   C75.968,136.545,75.875,136.207,75.833,135.819z M75.716,132.686c-0.507,0.208-1.267,0.384-2.28,0.53   c-0.574,0.083-0.979,0.177-1.217,0.281s-0.421,0.256-0.551,0.456c-0.129,0.2-0.194,0.422-0.194,0.667   c0,0.374,0.141,0.686,0.423,0.935c0.281,0.25,0.694,0.374,1.237,0.374c0.538,0,1.016-0.118,1.435-0.354   c0.418-0.236,0.726-0.56,0.923-0.971c0.149-0.317,0.225-0.785,0.225-1.403V132.686z"
   id="path778" />
	<path
   d="M79.274,136.834v-11.398h1.398v11.398H79.274z"
   id="path780" />
	<path
   d="M92.658,133.811l1.375,0.188c-0.15,0.946-0.535,1.686-1.154,2.221c-0.619,0.535-1.379,0.802-2.281,0.802   c-1.129,0-2.037-0.37-2.723-1.108c-0.687-0.739-1.03-1.798-1.03-3.177c0-0.892,0.147-1.672,0.443-2.341   c0.295-0.668,0.745-1.17,1.348-1.505c0.603-0.334,1.26-0.501,1.969-0.501c0.896,0,1.629,0.227,2.199,0.68   c0.57,0.453,0.935,1.096,1.096,1.93l-1.359,0.211c-0.129-0.555-0.359-0.972-0.688-1.252c-0.329-0.28-0.727-0.42-1.193-0.42   c-0.705,0-1.277,0.253-1.717,0.759c-0.44,0.506-0.661,1.307-0.661,2.401c0,1.111,0.212,1.917,0.637,2.421s0.979,0.755,1.663,0.755   c0.549,0,1.007-0.168,1.375-0.506C92.326,135.03,92.559,134.512,92.658,133.811z"
   id="path782" />
	<path
   d="M100.611,135.819c-0.518,0.44-1.016,0.75-1.494,0.932s-0.992,0.271-1.541,0.271c-0.905,0-1.601-0.222-2.087-0.665   s-0.729-1.01-0.729-1.7c0-0.404,0.092-0.774,0.275-1.108s0.424-0.603,0.722-0.805s0.632-0.355,1.005-0.459   c0.274-0.073,0.688-0.143,1.242-0.21c1.127-0.135,1.958-0.295,2.491-0.482c0.005-0.192,0.008-0.314,0.008-0.366   c0-0.571-0.132-0.973-0.396-1.207c-0.356-0.316-0.887-0.475-1.589-0.475c-0.657,0-1.141,0.115-1.454,0.346   c-0.313,0.23-0.544,0.639-0.694,1.224l-1.367-0.188c0.124-0.585,0.329-1.057,0.613-1.417c0.284-0.36,0.695-0.637,1.233-0.831   c0.538-0.194,1.162-0.292,1.87-0.292c0.704,0,1.275,0.083,1.715,0.249c0.44,0.166,0.763,0.374,0.97,0.625s0.352,0.568,0.435,0.951   c0.046,0.238,0.07,0.668,0.07,1.292v1.869c0,1.303,0.03,2.127,0.09,2.471c0.06,0.344,0.178,0.674,0.355,0.99h-1.461   C100.747,136.545,100.653,136.207,100.611,135.819z M100.494,132.686c-0.507,0.208-1.267,0.384-2.28,0.53   c-0.574,0.083-0.979,0.177-1.217,0.281s-0.421,0.256-0.551,0.456c-0.129,0.2-0.194,0.422-0.194,0.667   c0,0.374,0.141,0.686,0.423,0.935c0.281,0.25,0.694,0.374,1.237,0.374c0.538,0,1.016-0.118,1.435-0.354   c0.418-0.236,0.726-0.56,0.923-0.971c0.149-0.317,0.225-0.785,0.225-1.403V132.686z"
   id="path784" />
	<path
   d="M106.373,136.834l-3.132-8.258h1.477l1.772,4.945c0.191,0.534,0.368,1.088,0.528,1.664   c0.124-0.436,0.298-0.959,0.521-1.571l1.834-5.039h1.438l-3.122,8.258H106.373z"
   id="path786" />
	<path
   d="M112.053,127.045v-1.609h1.398v1.609H112.053z M112.053,136.834v-8.258h1.398v8.258H112.053z"
   id="path788" />
	<path
   d="M118.638,135.583l0.203,1.236c-0.394,0.083-0.746,0.125-1.057,0.125c-0.508,0-0.901-0.081-1.181-0.241   s-0.477-0.372-0.591-0.634c-0.114-0.262-0.171-0.813-0.171-1.653v-4.753h-1.031v-1.086h1.031v-2.044l1.398-0.84v2.884h1.398v1.086   h-1.398v4.833c0,0.399,0.024,0.656,0.073,0.771s0.129,0.205,0.24,0.272s0.269,0.101,0.475,0.101   C118.182,135.639,118.385,135.621,118.638,135.583z"
   id="path790" />
	<path
   d="M119.944,140.015l-0.156-1.313c0.307,0.083,0.574,0.125,0.802,0.125c0.312,0,0.561-0.052,0.748-0.156   c0.187-0.104,0.34-0.249,0.46-0.436c0.088-0.14,0.231-0.487,0.428-1.042c0.026-0.078,0.067-0.191,0.125-0.342l-3.133-8.275h1.508   l1.716,4.759c0.223,0.604,0.422,1.238,0.598,1.903c0.161-0.621,0.354-1.237,0.578-1.849l1.764-4.814h1.399l-3.128,8.403   c-0.338,0.905-0.601,1.529-0.789,1.871c-0.25,0.46-0.536,0.798-0.859,1.013s-0.708,0.322-1.155,0.322   C120.579,140.186,120.277,140.129,119.944,140.015z"
   id="path792" />
</g>


<g
   id="g850">
	<g
   id="g852">
		<path
   d="M68.993,252.048v-11.398h4.297c0.756,0,1.334,0.036,1.732,0.109c0.56,0.093,1.028,0.271,1.407,0.533    s0.683,0.629,0.913,1.101s0.346,0.99,0.346,1.555c0,0.969-0.308,1.79-0.925,2.461c-0.616,0.671-1.73,1.007-3.341,1.007H70.5v4.633    H68.993z M70.5,246.071h2.945c0.974,0,1.665-0.182,2.074-0.545s0.614-0.874,0.614-1.533c0-0.477-0.121-0.886-0.361-1.226    s-0.558-0.564-0.952-0.673c-0.254-0.067-0.723-0.101-1.406-0.101H70.5V246.071z"
   id="path854" />
		<path
   d="M79.434,252.048v-11.398h1.398v4.086c0.653-0.755,1.478-1.133,2.474-1.133c0.612,0,1.143,0.121,1.594,0.362    c0.451,0.241,0.774,0.574,0.968,0.999c0.195,0.425,0.292,1.042,0.292,1.851v5.233h-1.398v-5.235c0-0.7-0.152-1.209-0.455-1.528    c-0.304-0.319-0.733-0.479-1.288-0.479c-0.415,0-0.805,0.107-1.171,0.323s-0.626,0.507-0.782,0.875s-0.233,0.876-0.233,1.524v4.52    H79.434z"
   id="path856" />
		<path
   d="M93.672,251.032c-0.518,0.44-1.016,0.75-1.494,0.932c-0.479,0.181-0.992,0.271-1.541,0.271    c-0.905,0-1.601-0.222-2.087-0.665s-0.729-1.01-0.729-1.7c0-0.405,0.092-0.774,0.275-1.108s0.424-0.603,0.722-0.805    s0.632-0.355,1.005-0.459c0.274-0.073,0.688-0.143,1.242-0.21c1.127-0.135,1.958-0.296,2.491-0.482    c0.005-0.192,0.008-0.314,0.008-0.366c0-0.571-0.132-0.973-0.396-1.207c-0.356-0.316-0.887-0.475-1.589-0.475    c-0.657,0-1.141,0.115-1.454,0.346c-0.313,0.231-0.544,0.639-0.694,1.225l-1.367-0.188c0.124-0.585,0.329-1.057,0.613-1.417    c0.284-0.36,0.695-0.637,1.233-0.831c0.538-0.194,1.162-0.291,1.87-0.291c0.704,0,1.275,0.083,1.715,0.249    c0.44,0.166,0.763,0.374,0.97,0.625s0.352,0.568,0.435,0.951c0.046,0.238,0.07,0.668,0.07,1.292v1.869    c0,1.303,0.03,2.126,0.09,2.471c0.06,0.344,0.178,0.674,0.355,0.99h-1.461C93.807,251.758,93.713,251.42,93.672,251.032z     M93.555,247.899c-0.507,0.208-1.267,0.385-2.28,0.53c-0.574,0.083-0.979,0.176-1.217,0.28s-0.421,0.256-0.551,0.456    s-0.194,0.422-0.194,0.666c0,0.375,0.141,0.686,0.423,0.936c0.281,0.25,0.694,0.374,1.237,0.374c0.538,0,1.016-0.118,1.435-0.354    c0.418-0.236,0.726-0.56,0.923-0.97c0.149-0.317,0.225-0.785,0.225-1.403V247.899z"
   id="path858" />
		<path
   d="M97.129,252.048v-8.258h1.258v1.25c0.322-0.585,0.62-0.971,0.893-1.158c0.272-0.187,0.573-0.28,0.9-0.28    c0.473,0,0.954,0.15,1.442,0.452l-0.493,1.294c-0.341-0.2-0.683-0.301-1.024-0.301c-0.305,0-0.58,0.092-0.823,0.276    c-0.243,0.184-0.417,0.439-0.52,0.766c-0.156,0.498-0.234,1.042-0.234,1.634v4.324H97.129z"
   id="path860" />
		<path
   d="M102.385,255.229l-0.156-1.313c0.307,0.083,0.574,0.125,0.802,0.125c0.312,0,0.561-0.052,0.748-0.155    c0.187-0.104,0.34-0.249,0.46-0.436c0.088-0.14,0.231-0.488,0.428-1.042c0.026-0.078,0.067-0.192,0.125-0.342l-3.133-8.274h1.508    l1.716,4.759c0.223,0.604,0.422,1.238,0.598,1.904c0.161-0.621,0.354-1.237,0.578-1.849l1.764-4.814h1.399l-3.128,8.402    c-0.338,0.906-0.601,1.53-0.789,1.872c-0.25,0.46-0.536,0.798-0.859,1.013s-0.708,0.322-1.155,0.322    C103.02,255.399,102.718,255.342,102.385,255.229z"
   id="path862" />
		<path
   d="M110.409,252.048v-8.258h1.258v1.174c0.607-0.907,1.483-1.361,2.629-1.361c0.498,0,0.956,0.089,1.373,0.269    c0.417,0.179,0.729,0.413,0.938,0.704c0.207,0.291,0.353,0.635,0.436,1.034c0.052,0.259,0.078,0.713,0.078,1.361v5.078h-1.398    v-5.025c0-0.57-0.055-0.997-0.164-1.279s-0.302-0.508-0.58-0.677s-0.603-0.253-0.977-0.253c-0.597,0-1.111,0.189-1.544,0.568    c-0.434,0.378-0.65,1.097-0.65,2.155v4.512H110.409z"
   id="path864" />
		<path
   d="M118.334,252.048l3.018-4.271l-2.792-3.987h1.737l1.289,1.929c0.238,0.369,0.429,0.674,0.573,0.916    c0.23-0.325,0.439-0.621,0.627-0.888l1.383-1.957h1.685l-2.794,3.96l3,4.298h-1.718l-1.706-2.558l-0.396-0.62l-2.213,3.178    H118.334z"
   id="path866" />
	</g>
</g>
<g
   id="g868">
	<g
   id="g870">
		<path
   d="M63.074,282.409v-11.398h8.242v1.344h-6.734v3.484h6.305v1.344h-6.305v3.883h7v1.344H63.074z"
   id="path872" />
		<path
   d="M73.484,285.573v-11.422h1.273v1.07c0.301-0.419,0.641-0.733,1.019-0.943c0.379-0.209,0.838-0.314,1.378-0.314    c0.705,0,1.328,0.182,1.867,0.544s0.947,0.875,1.222,1.536s0.413,1.385,0.413,2.173c0,0.846-0.152,1.606-0.455,2.283    c-0.304,0.676-0.745,1.195-1.323,1.555c-0.579,0.36-1.187,0.541-1.825,0.541c-0.467,0-0.886-0.099-1.257-0.295    c-0.371-0.196-0.675-0.445-0.914-0.745v4.017H73.484z M74.75,278.327c0,1.063,0.215,1.85,0.645,2.358    c0.43,0.508,0.951,0.763,1.562,0.763c0.622,0,1.154-0.263,1.597-0.79s0.665-1.343,0.665-2.448c0-1.053-0.216-1.842-0.649-2.366    c-0.433-0.524-0.949-0.786-1.551-0.786c-0.596,0-1.123,0.279-1.581,0.837C74.979,276.452,74.75,277.263,74.75,278.327z"
   id="path874" />
		<path
   d="M82.347,272.62v-1.609h1.398v1.609H82.347z M82.347,282.409v-8.258h1.398v8.258H82.347z"
   id="path876" />
		<path
   d="M85.623,283.097l1.359,0.203c0.057,0.419,0.215,0.725,0.474,0.917c0.347,0.259,0.821,0.388,1.422,0.388    c0.647,0,1.147-0.13,1.5-0.389c0.352-0.259,0.59-0.622,0.715-1.089c0.073-0.285,0.106-0.884,0.101-1.796    c-0.611,0.719-1.373,1.078-2.285,1.078c-1.135,0-2.013-0.41-2.634-1.229c-0.622-0.819-0.933-1.802-0.933-2.947    c0-0.788,0.143-1.515,0.427-2.182c0.285-0.666,0.698-1.181,1.24-1.543s1.178-0.544,1.908-0.544c0.974,0,1.777,0.394,2.409,1.18    v-0.992h1.289v7.138c0,1.286-0.131,2.197-0.393,2.733c-0.261,0.537-0.676,0.96-1.243,1.271c-0.567,0.312-1.265,0.467-2.094,0.467    c-0.984,0-1.779-0.222-2.385-0.664C85.895,284.654,85.603,283.987,85.623,283.097z M86.779,278.132    c0,1.085,0.215,1.876,0.645,2.374s0.969,0.747,1.617,0.747c0.643,0,1.181-0.248,1.617-0.743c0.435-0.496,0.653-1.272,0.653-2.331    c0-1.012-0.224-1.774-0.672-2.288s-0.988-0.771-1.621-0.771c-0.622,0-1.15,0.253-1.585,0.759S86.779,277.136,86.779,278.132z"
   id="path878" />
		<path
   d="M94.701,282.409v-11.398H96.1v11.398H94.701z"
   id="path880" />
		<path
   d="M97.754,278.28c0-1.529,0.424-2.662,1.273-3.398c0.709-0.612,1.574-0.918,2.594-0.918c1.134,0,2.06,0.372,2.78,1.116    s1.08,1.771,1.08,3.083c0,1.063-0.159,1.899-0.478,2.508s-0.782,1.082-1.39,1.419c-0.608,0.337-1.272,0.505-1.992,0.505    c-1.155,0-2.087-0.371-2.799-1.112C98.11,280.743,97.754,279.675,97.754,278.28z M99.192,278.28c0,1.059,0.23,1.852,0.691,2.378    c0.46,0.527,1.04,0.79,1.739,0.79c0.693,0,1.271-0.265,1.731-0.794s0.691-1.336,0.691-2.421c0-1.022-0.232-1.796-0.695-2.323    c-0.463-0.526-1.039-0.79-1.727-0.79c-0.699,0-1.278,0.262-1.739,0.786C99.422,276.431,99.192,277.222,99.192,278.28z"
   id="path882" />
		<path
   d="M110.18,281.158l0.203,1.236c-0.394,0.083-0.746,0.124-1.057,0.124c-0.508,0-0.901-0.081-1.181-0.241    s-0.477-0.372-0.591-0.634s-0.171-0.813-0.171-1.653v-4.753h-1.031v-1.086h1.031v-2.045l1.398-0.839v2.884h1.398v1.086h-1.398    v4.833c0,0.399,0.024,0.656,0.073,0.771c0.049,0.114,0.129,0.205,0.24,0.272c0.11,0.067,0.269,0.101,0.475,0.101    C109.725,281.214,109.928,281.195,110.18,281.158z"
   id="path884" />
		<path
   d="M114.604,281.158l0.203,1.236c-0.394,0.083-0.746,0.124-1.057,0.124c-0.508,0-0.901-0.081-1.181-0.241    s-0.477-0.372-0.591-0.634s-0.171-0.813-0.171-1.653v-4.753h-1.031v-1.086h1.031v-2.045l1.398-0.839v2.884h1.398v1.086h-1.398    v4.833c0,0.399,0.024,0.656,0.073,0.771c0.049,0.114,0.129,0.205,0.24,0.272c0.11,0.067,0.269,0.101,0.475,0.101    C114.148,281.214,114.352,281.195,114.604,281.158z"
   id="path886" />
		<path
   d="M115.981,272.62v-1.609h1.398v1.609H115.981z M115.981,282.409v-8.258h1.398v8.258H115.981z"
   id="path888" />
		<path
   d="M118.956,279.948l1.383-0.219c0.078,0.555,0.294,0.98,0.65,1.275c0.355,0.296,0.852,0.443,1.49,0.443    c0.643,0,1.121-0.131,1.432-0.394c0.311-0.262,0.467-0.57,0.467-0.923c0-0.316-0.138-0.566-0.413-0.748    c-0.192-0.124-0.669-0.283-1.432-0.475c-1.027-0.259-1.738-0.483-2.135-0.673c-0.396-0.189-0.696-0.451-0.901-0.785    c-0.204-0.334-0.307-0.704-0.307-1.108c0-0.368,0.084-0.709,0.253-1.022c0.168-0.314,0.397-0.574,0.688-0.782    c0.218-0.161,0.515-0.296,0.891-0.408c0.375-0.111,0.778-0.167,1.208-0.167c0.648,0,1.217,0.094,1.707,0.28    c0.49,0.187,0.851,0.44,1.084,0.759c0.233,0.319,0.394,0.746,0.482,1.281l-1.367,0.188c-0.063-0.427-0.243-0.76-0.541-1    c-0.298-0.239-0.72-0.359-1.264-0.359c-0.643,0-1.102,0.106-1.377,0.319s-0.412,0.462-0.412,0.748    c0,0.182,0.057,0.345,0.171,0.491c0.114,0.15,0.293,0.275,0.537,0.374c0.14,0.052,0.552,0.172,1.237,0.358    c0.99,0.265,1.681,0.481,2.073,0.649c0.391,0.168,0.698,0.414,0.921,0.735s0.334,0.721,0.334,1.198    c0,0.466-0.136,0.905-0.408,1.317c-0.272,0.412-0.665,0.731-1.178,0.957c-0.513,0.226-1.094,0.338-1.742,0.338    c-1.073,0-1.891-0.223-2.454-0.668S119.111,280.823,118.956,279.948z"
   id="path890" />
	</g>
</g>
<g
   id="g892">
	<g
   id="g894">
		<path
   d="M61.545,324.013l-4.404-11.398h1.633l2.96,8.279c0.238,0.664,0.438,1.285,0.598,1.866    c0.176-0.622,0.381-1.244,0.614-1.866l3.078-8.279h1.54l-4.456,11.398H61.545z"
   id="path896" />
		<path
   d="M67.344,319.884c0-1.53,0.424-2.663,1.273-3.399c0.709-0.611,1.574-0.917,2.594-0.917c1.134,0,2.061,0.372,2.78,1.116    c0.72,0.744,1.08,1.772,1.08,3.083c0,1.063-0.159,1.899-0.478,2.508c-0.318,0.609-0.782,1.083-1.39,1.419    s-1.272,0.505-1.992,0.505c-1.154,0-2.088-0.371-2.799-1.112C67.7,322.347,67.344,321.279,67.344,319.884z M68.781,319.884    c0,1.059,0.23,1.851,0.691,2.378s1.04,0.79,1.739,0.79c0.693,0,1.271-0.265,1.731-0.794s0.691-1.336,0.691-2.42    c0-1.022-0.231-1.797-0.695-2.324s-1.039-0.79-1.727-0.79c-0.699,0-1.278,0.262-1.739,0.786S68.781,318.826,68.781,319.884z"
   id="path898" />
		<path
   d="M82.105,320.99l1.375,0.188c-0.15,0.946-0.535,1.686-1.154,2.221c-0.619,0.535-1.379,0.802-2.281,0.802    c-1.129,0-2.037-0.37-2.724-1.108c-0.686-0.739-1.029-1.798-1.029-3.177c0-0.892,0.147-1.672,0.443-2.341    c0.295-0.668,0.745-1.17,1.348-1.505c0.604-0.334,1.26-0.501,1.969-0.501c0.896,0,1.629,0.227,2.199,0.68    c0.57,0.453,0.935,1.096,1.096,1.93l-1.359,0.211c-0.129-0.555-0.359-0.972-0.688-1.252c-0.329-0.28-0.727-0.42-1.193-0.42    c-0.705,0-1.277,0.253-1.717,0.759c-0.44,0.506-0.66,1.307-0.66,2.401c0,1.111,0.212,1.917,0.637,2.421s0.979,0.755,1.663,0.755    c0.549,0,1.007-0.168,1.375-0.506C81.774,322.209,82.007,321.69,82.105,320.99z"
   id="path900" />
		<path
   d="M90.059,322.998c-0.518,0.44-1.016,0.75-1.494,0.932s-0.992,0.271-1.541,0.271c-0.905,0-1.601-0.222-2.087-0.665    s-0.729-1.01-0.729-1.7c0-0.404,0.092-0.774,0.275-1.108s0.424-0.603,0.722-0.805s0.632-0.355,1.005-0.459    c0.274-0.073,0.688-0.143,1.242-0.21c1.127-0.135,1.958-0.295,2.491-0.482c0.005-0.192,0.008-0.314,0.008-0.366    c0-0.571-0.132-0.973-0.396-1.207c-0.357-0.316-0.886-0.475-1.589-0.475c-0.657,0-1.141,0.115-1.454,0.346    c-0.313,0.23-0.544,0.639-0.694,1.224l-1.367-0.188c0.124-0.585,0.329-1.057,0.613-1.417c0.285-0.36,0.696-0.637,1.234-0.831    c0.538-0.194,1.162-0.292,1.87-0.292c0.704,0,1.275,0.083,1.715,0.249c0.439,0.166,0.763,0.374,0.97,0.625    s0.352,0.568,0.435,0.951c0.046,0.238,0.07,0.668,0.07,1.292v1.869c0,1.303,0.03,2.127,0.09,2.471    c0.06,0.344,0.178,0.674,0.355,0.99H90.34C90.194,323.724,90.101,323.385,90.059,322.998z M89.942,319.865    c-0.507,0.208-1.267,0.384-2.28,0.53c-0.574,0.083-0.98,0.177-1.218,0.281s-0.421,0.256-0.551,0.456    c-0.129,0.2-0.194,0.422-0.194,0.667c0,0.374,0.141,0.686,0.422,0.935c0.282,0.25,0.694,0.374,1.237,0.374    c0.538,0,1.016-0.118,1.435-0.354c0.419-0.236,0.727-0.56,0.923-0.971c0.15-0.317,0.225-0.785,0.225-1.403V319.865z"
   id="path902" />
		<path
   d="M93.5,324.013v-11.398h1.398v11.398H93.5z"
   id="path904" />
		<path
   d="M101.83,324.013v-7.172h-1.234v-1.086h1.234v-0.878c0-0.555,0.049-0.967,0.147-1.237c0.135-0.363,0.372-0.657,0.711-0.882    s0.814-0.338,1.426-0.338c0.394,0,0.83,0.046,1.306,0.14l-0.21,1.219c-0.29-0.052-0.565-0.078-0.824-0.078    c-0.425,0-0.726,0.091-0.902,0.272s-0.264,0.521-0.264,1.02v0.763h1.609v1.086h-1.602v7.172H101.83z"
   id="path906" />
		<path
   d="M105.401,319.884c0-1.53,0.424-2.663,1.273-3.399c0.709-0.611,1.574-0.917,2.594-0.917c1.134,0,2.061,0.372,2.78,1.116    c0.72,0.744,1.08,1.772,1.08,3.083c0,1.063-0.159,1.899-0.478,2.508c-0.318,0.609-0.782,1.083-1.39,1.419    s-1.272,0.505-1.992,0.505c-1.154,0-2.088-0.371-2.799-1.112C105.757,322.347,105.401,321.279,105.401,319.884z M106.839,319.884    c0,1.059,0.23,1.851,0.691,2.378s1.04,0.79,1.739,0.79c0.693,0,1.271-0.265,1.731-0.794s0.691-1.336,0.691-2.42    c0-1.022-0.231-1.797-0.695-2.324s-1.039-0.79-1.727-0.79c-0.699,0-1.278,0.262-1.739,0.786S106.839,318.826,106.839,319.884z"
   id="path908" />
		<path
   d="M114.741,324.013v-11.398h1.398v11.398H114.741z"
   id="path910" />
		<path
   d="M123.677,324.013v-1.039c-0.524,0.817-1.294,1.226-2.311,1.226c-0.659,0-1.265-0.182-1.817-0.544    c-0.553-0.363-0.98-0.87-1.284-1.521c-0.303-0.65-0.455-1.398-0.455-2.244c0-0.824,0.137-1.572,0.412-2.244    s0.687-1.186,1.235-1.544c0.549-0.357,1.163-0.537,1.842-0.537c0.498,0,0.94,0.105,1.329,0.314    c0.388,0.209,0.704,0.482,0.948,0.818v-4.086h1.398v11.398H123.677z M119.248,319.892c0,1.059,0.223,1.85,0.669,2.374    s0.973,0.786,1.581,0.786c0.612,0,1.132-0.25,1.561-0.751c0.428-0.501,0.642-1.265,0.642-2.292c0-1.131-0.218-1.961-0.654-2.491    c-0.436-0.529-0.973-0.794-1.612-0.794c-0.623,0-1.143,0.254-1.561,0.763C119.457,317.996,119.248,318.797,119.248,319.892z"
   id="path912" />
	</g>
</g>
<g
   id="g914"
   transform="translate(-1.698856,41.33883)">
	<g
   id="g916">
		<path
   d="M 73.297,365.572 L 73.297,355.517 L 69.54,355.517 L 69.54,354.173 L 78.579,354.173 L 78.579,355.517 L 74.806,355.517 L 74.806,365.572 L 73.297,365.572 z"
   id="path918" />
		<path
   d="M 79.339,365.572 L 79.339,357.314 L 80.597,357.314 L 80.597,358.564 C 80.919,357.979 81.217,357.593 81.489,357.406 C 81.762,357.219 82.062,357.126 82.389,357.126 C 82.862,357.126 83.342,357.276 83.831,357.578 L 83.338,358.873 C 82.996,358.672 82.655,358.572 82.314,358.572 C 82.009,358.572 81.735,358.664 81.492,358.848 C 81.249,359.033 81.075,359.287 80.971,359.615 C 80.815,360.113 80.737,360.657 80.737,361.248 L 80.737,365.573 L 79.339,365.573 L 79.339,365.572 z"
   id="path920" />
		<path
   d="M 90.041,364.556 C 89.523,364.996 89.025,365.306 88.547,365.488 C 88.069,365.67 87.555,365.759 87.006,365.759 C 86.101,365.759 85.405,365.537 84.919,365.094 C 84.433,364.651 84.19,364.084 84.19,363.394 C 84.19,362.99 84.282,362.62 84.465,362.286 C 84.648,361.952 84.889,361.683 85.187,361.481 C 85.485,361.279 85.819,361.126 86.192,361.022 C 86.466,360.949 86.88,360.879 87.434,360.812 C 88.561,360.677 89.392,360.517 89.925,360.33 C 89.93,360.138 89.933,360.016 89.933,359.964 C 89.933,359.393 89.801,358.991 89.537,358.757 C 89.18,358.441 88.651,358.282 87.948,358.282 C 87.291,358.282 86.807,358.397 86.494,358.628 C 86.181,358.858 85.95,359.267 85.8,359.852 L 84.433,359.664 C 84.557,359.079 84.762,358.607 85.046,358.247 C 85.331,357.887 85.742,357.61 86.28,357.416 C 86.818,357.222 87.442,357.124 88.15,357.124 C 88.854,357.124 89.425,357.207 89.865,357.373 C 90.304,357.539 90.628,357.747 90.835,357.998 C 91.042,358.249 91.187,358.566 91.27,358.949 C 91.316,359.187 91.34,359.617 91.34,360.241 L 91.34,362.11 C 91.34,363.413 91.37,364.237 91.43,364.581 C 91.49,364.925 91.608,365.255 91.785,365.571 L 90.324,365.571 C 90.176,365.282 90.082,364.944 90.041,364.556 z M 89.923,361.423 C 89.416,361.631 88.656,361.807 87.643,361.953 C 87.069,362.036 86.663,362.13 86.425,362.234 C 86.187,362.338 86.004,362.49 85.874,362.69 C 85.745,362.89 85.68,363.112 85.68,363.357 C 85.68,363.731 85.821,364.043 86.102,364.292 C 86.384,364.542 86.796,364.666 87.339,364.666 C 87.877,364.666 88.355,364.548 88.774,364.312 C 89.193,364.076 89.501,363.752 89.697,363.341 C 89.847,363.024 89.922,362.556 89.922,361.938 L 89.922,361.423 L 89.923,361.423 z"
   id="path922" />
		<path
   d="M 98.904,362.548 L 100.279,362.736 C 100.129,363.682 99.744,364.422 99.125,364.957 C 98.506,365.492 97.746,365.759 96.844,365.759 C 95.715,365.759 94.807,365.389 94.121,364.651 C 93.434,363.912 93.091,362.853 93.091,361.474 C 93.091,360.582 93.238,359.802 93.534,359.133 C 93.829,358.465 94.279,357.963 94.882,357.628 C 95.485,357.294 96.142,357.127 96.851,357.127 C 97.747,357.127 98.48,357.354 99.05,357.807 C 99.62,358.26 99.985,358.903 100.146,359.737 L 98.787,359.948 C 98.658,359.393 98.428,358.976 98.099,358.696 C 97.77,358.416 97.372,358.276 96.906,358.276 C 96.201,358.276 95.629,358.529 95.189,359.035 C 94.749,359.541 94.528,360.342 94.528,361.436 C 94.528,362.547 94.74,363.353 95.165,363.857 C 95.59,364.361 96.144,364.612 96.828,364.612 C 97.377,364.612 97.835,364.444 98.203,364.106 C 98.572,363.768 98.805,363.249 98.904,362.548 z"
   id="path924" />
		<path
   d="M 101.475,365.572 L 101.475,354.174 L 102.873,354.174 L 102.873,358.26 C 103.526,357.505 104.351,357.127 105.347,357.127 C 105.959,357.127 106.49,357.248 106.941,357.489 C 107.392,357.73 107.715,358.063 107.909,358.488 C 108.104,358.913 108.201,359.53 108.201,360.339 L 108.201,365.573 L 106.803,365.573 L 106.803,360.338 C 106.803,359.638 106.651,359.129 106.348,358.81 C 106.044,358.491 105.615,358.331 105.06,358.331 C 104.645,358.331 104.255,358.439 103.889,358.654 C 103.523,358.869 103.263,359.161 103.107,359.529 C 102.951,359.897 102.874,360.406 102.874,361.054 L 102.874,365.574 L 101.475,365.574 L 101.475,365.572 z"
   id="path926" />
		<path
   d="M 115.979,362.908 L 117.424,363.096 C 117.196,363.94 116.775,364.595 116.158,365.061 C 115.542,365.527 114.756,365.76 113.798,365.76 C 112.592,365.76 111.636,365.388 110.929,364.644 C 110.223,363.9 109.869,362.856 109.869,361.513 C 109.869,360.124 110.226,359.045 110.94,358.278 C 111.655,357.511 112.581,357.127 113.72,357.127 C 114.823,357.127 115.723,357.502 116.422,358.254 C 117.121,359.005 117.47,360.063 117.47,361.425 C 117.47,361.508 117.467,361.633 117.462,361.798 L 111.306,361.798 C 111.358,362.707 111.615,363.403 112.076,363.886 C 112.537,364.369 113.113,364.611 113.802,364.611 C 114.315,364.611 114.753,364.476 115.116,364.205 C 115.479,363.934 115.766,363.501 115.979,362.908 z M 111.385,360.65 L 115.994,360.65 C 115.931,359.954 115.756,359.433 115.466,359.085 C 115.02,358.545 114.443,358.275 113.733,358.275 C 113.09,358.275 112.55,358.49 112.112,358.921 C 111.674,359.352 111.432,359.928 111.385,360.65 z"
   id="path928" />
		<path
   d="M 124.568,364.556 C 124.05,364.996 123.552,365.306 123.074,365.488 C 122.596,365.67 122.082,365.759 121.533,365.759 C 120.628,365.759 119.932,365.537 119.446,365.094 C 118.96,364.651 118.717,364.084 118.717,363.394 C 118.717,362.99 118.809,362.62 118.992,362.286 C 119.175,361.952 119.416,361.683 119.714,361.481 C 120.012,361.279 120.346,361.126 120.719,361.022 C 120.993,360.949 121.407,360.879 121.961,360.812 C 123.088,360.677 123.919,360.517 124.452,360.33 C 124.457,360.138 124.46,360.016 124.46,359.964 C 124.46,359.393 124.328,358.991 124.064,358.757 C 123.708,358.441 123.177,358.282 122.475,358.282 C 121.818,358.282 121.334,358.397 121.021,358.628 C 120.708,358.858 120.477,359.267 120.327,359.852 L 118.96,359.664 C 119.084,359.079 119.289,358.607 119.573,358.247 C 119.857,357.887 120.268,357.61 120.806,357.416 C 121.344,357.222 121.968,357.124 122.676,357.124 C 123.38,357.124 123.951,357.207 124.391,357.373 C 124.831,357.539 125.154,357.747 125.361,357.998 C 125.568,358.249 125.713,358.566 125.796,358.949 C 125.842,359.187 125.866,359.617 125.866,360.241 L 125.866,362.11 C 125.866,363.413 125.896,364.237 125.956,364.581 C 126.016,364.925 126.134,365.255 126.311,365.571 L 124.85,365.571 C 124.704,365.282 124.61,364.944 124.568,364.556 z M 124.451,361.423 C 123.944,361.631 123.184,361.807 122.171,361.953 C 121.597,362.036 121.192,362.13 120.954,362.234 C 120.716,362.338 120.533,362.49 120.403,362.69 C 120.274,362.89 120.209,363.112 120.209,363.357 C 120.209,363.731 120.35,364.043 120.632,364.292 C 120.913,364.542 121.326,364.666 121.869,364.666 C 122.407,364.666 122.885,364.548 123.304,364.312 C 123.722,364.076 124.03,363.752 124.227,363.341 C 124.376,363.024 124.452,362.556 124.452,361.938 L 124.452,361.423 L 124.451,361.423 z"
   id="path930" />
	</g>
</g>




<line
   fill="none"
   stroke="#8F0000"
   stroke-width="1.2738"
   x1="132.098"
   y1="132.871"
   x2="256.998"
   y2="132.996"
   id="line1074" />

<line
   fill="none"
   stroke="#8F0000"
   stroke-width="1.2738"
   x1="247.444"
   y1="219.777"
   x2="132.051"
   y2="219.777"
   id="line1078" />


<line
   fill="none"
   stroke="#8F0000"
   stroke-width="1.2738"
   x1="132.598"
   y1="320.562"
   x2="322.558"
   y2="320.562"
   id="line1084" />
<line
   x1="129.94856"
   y1="403.09424"
   x2="341.02319"
   y2="368.59274"
   id="line1086"
   style="fill:none;stroke:#8f0000;stroke-width:1.27399993;stroke-miterlimit:4;stroke-dasharray:none" />
<line
   fill="none"
   stroke="#8F0000"
   stroke-width="1.2738"
   x1="132.098"
   y1="278.833"
   x2="340.933"
   y2="278.958"
   id="line1088" />


























<line
   fill="none"
   stroke="#8F0000"
   stroke-width="1.2738"
   x1="132.098"
   y1="249.11"
   x2="359.245"
   y2="249.235"
   id="line1384"
   style="stroke-width:1.27399998;stroke-miterlimit:4;stroke-dasharray:none" />

















<rect
   fill="none"
   width="800.098"
   height="909.377"
   id="rect1857" />














</svg>