<?xml version="1.0" encoding="UTF-8" standalone="no"?>
<!DOCTYPE svg PUBLIC "-//W3C//DTD SVG 1.1//EN"
 "http://www.w3.org/Graphics/SVG/1.1/DTD/svg11.dtd">
<!-- Generated by graphviz version 2.40.1 (20161225.0304)
 -->
<!-- Title: %0 Pages: 1 -->
<svg width="1266pt" height="438pt"
 viewBox="0.00 0.00 1266.00 437.80" xmlns="http://www.w3.org/2000/svg" xmlns:xlink="http://www.w3.org/1999/xlink">
<g id="graph0" class="graph" transform="scale(1 1) rotate(0) translate(4 433.8)">
<title>%0</title>
<polygon fill="#ffffff" stroke="transparent" points="-4,4 -4,-433.8 1262,-433.8 1262,4 -4,4"/>
<g id="clust2" class="cluster">
<title>cluster_DIAGNOSE</title>
<polygon fill="none" stroke="#c0c0c0" points="8,-204.8 8,-281.6 1250,-281.6 1250,-204.8 8,-204.8"/>
<text text-anchor="middle" x="629" y="-265" font-family="Times,serif" font-size="14.00" fill="#000000">diagnosis</text>
</g>
<g id="clust3" class="cluster">
<title>cluster_TREAT</title>
<polygon fill="none" stroke="#ff0000" points="626,-8 626,-84.8 1062,-84.8 1062,-8 626,-8"/>
<text text-anchor="middle" x="844" y="-68.2" font-family="Times,serif" font-size="14.00" fill="#000000">treatment</text>
</g>
<!-- MEASURE -->
<g id="node1" class="node">
<title>MEASURE</title>
<ellipse fill="none" stroke="#000000" cx="668" cy="-411.8" rx="182.8217" ry="18"/>
<text text-anchor="middle" x="668" y="-407.6" font-family="Times,serif" font-size="14.00" fill="#000000">measure blood pressure and arterial stiffness</text>
</g>
<!-- BPHIGH -->
<g id="node2" class="node">
<title>BPHIGH</title>
<ellipse fill="none" stroke="#000000" cx="200" cy="-230.8" rx="183.9675" ry="18"/>
<text text-anchor="middle" x="200" y="-226.6" font-family="Times,serif" font-size="14.00" fill="#000000">blood pressure high, arterial stiffness normal</text>
</g>
<!-- MEASURE&#45;&gt;BPHIGH -->
<g id="edge1" class="edge">
<title>MEASURE&#45;&gt;BPHIGH</title>
<path fill="none" stroke="#000000" d="M622.701,-394.2805C536.2949,-360.8628 348.2454,-288.1342 254.8728,-252.0222"/>
<polygon fill="#000000" stroke="#000000" points="255.9133,-248.672 245.324,-248.3292 253.3883,-255.2007 255.9133,-248.672"/>
</g>
<!-- ALLHIGH -->
<g id="node3" class="node">
<title>ALLHIGH</title>
<ellipse fill="none" stroke="#000000" cx="570" cy="-230.8" rx="167.8175" ry="18"/>
<text text-anchor="middle" x="570" y="-226.6" font-family="Times,serif" font-size="14.00" fill="#000000">blood pressure and arterial stiffness high</text>
</g>
<!-- MEASURE&#45;&gt;ALLHIGH -->
<g id="edge2" class="edge">
<title>MEASURE&#45;&gt;ALLHIGH</title>
<path fill="none" stroke="#000000" d="M658.2451,-393.7833C640.9727,-361.8822 604.9247,-295.3038 584.6536,-257.8643"/>
<polygon fill="#000000" stroke="#000000" points="587.7,-256.1398 579.8609,-249.0125 581.5444,-259.4727 587.7,-256.1398"/>
</g>
<!-- ASHIGH -->
<g id="node4" class="node">
<title>ASHIGH</title>
<ellipse fill="none" stroke="#000000" cx="940" cy="-230.8" rx="183.9675" ry="18"/>
<text text-anchor="middle" x="940" y="-226.6" font-family="Times,serif" font-size="14.00" fill="#000000">blood pressure normal, arterial stiffness high</text>
</g>
<!-- MEASURE&#45;&gt;ASHIGH -->
<g id="edge3" class="edge">
<title>MEASURE&#45;&gt;ASHIGH</title>
<path fill="none" stroke="#000000" d="M695.0748,-393.7833C744.5641,-360.8511 849.5881,-290.9638 904.6438,-254.3275"/>
<polygon fill="#000000" stroke="#000000" points="906.6484,-257.1976 913.0347,-248.7438 902.7705,-251.37 906.6484,-257.1976"/>
</g>
<!-- NORMAL -->
<g id="node5" class="node">
<title>NORMAL</title>
<ellipse fill="none" stroke="#000000" cx="1192" cy="-230.8" rx="50.4181" ry="18"/>
<text text-anchor="middle" x="1192" y="-226.6" font-family="Times,serif" font-size="14.00" fill="#000000">all normal</text>
</g>
<!-- MEASURE&#45;&gt;NORMAL -->
<g id="edge4" class="edge">
<title>MEASURE&#45;&gt;NORMAL</title>
<path fill="none" stroke="#000000" d="M718.2433,-394.445C819.781,-359.3718 1048.0569,-280.5208 1145.9722,-246.6989"/>
<polygon fill="#000000" stroke="#000000" points="1147.2795,-249.9503 1155.5888,-243.3771 1144.9941,-243.3339 1147.2795,-249.9503"/>
</g>
<!-- TREAT -->
<g id="node6" class="node">
<title>TREAT</title>
<ellipse fill="none" stroke="#000000" cx="721" cy="-34" rx="87.3789" ry="18"/>
<text text-anchor="middle" x="721" y="-29.8" font-family="Times,serif" font-size="14.00" fill="#000000">treat blood pressure</text>
</g>
<!-- BPHIGH&#45;&gt;TREAT -->
<g id="edge5" class="edge">
<title>BPHIGH&#45;&gt;TREAT</title>
<path fill="none" stroke="#000000" d="M246.2353,-213.3353C343.3412,-176.655 567.8974,-91.8322 669.4605,-53.4683"/>
<polygon fill="#000000" stroke="#000000" points="670.7788,-56.7118 678.8968,-49.9038 668.3052,-50.1634 670.7788,-56.7118"/>
</g>
<!-- ALLHIGH&#45;&gt;TREAT -->
<g id="edge6" class="edge">
<title>ALLHIGH&#45;&gt;TREAT</title>
<path fill="none" stroke="#000000" d="M583.9351,-212.6383C610.8591,-177.5479 670.1033,-100.3342 701.1431,-59.8798"/>
<polygon fill="#000000" stroke="#000000" points="704.0061,-61.8979 707.3167,-51.8336 698.4525,-57.6367 704.0061,-61.8979"/>
</g>
<!-- ASHIGH&#45;&gt;TREAT -->
<g id="edge7" class="edge">
<title>ASHIGH&#45;&gt;TREAT</title>
<path fill="none" stroke="#000000" d="M919.7896,-212.6383C880.2324,-177.0911 792.572,-98.3167 748.062,-58.3187"/>
<polygon fill="#000000" stroke="#000000" points="750.3085,-55.6319 740.5311,-51.5512 745.6297,-60.8386 750.3085,-55.6319"/>
<text text-anchor="middle" x="855.6599" y="-128.2" font-family="Times,serif" font-size="14.00" fill="#000000">maybe</text>
</g>
<!-- NOTREAT -->
<g id="node7" class="node">
<title>NOTREAT</title>
<ellipse fill="none" stroke="#000000" cx="940" cy="-34" rx="114.0305" ry="18"/>
<text text-anchor="middle" x="940" y="-29.8" font-family="Times,serif" font-size="14.00" fill="#000000">do not treat blood pressure</text>
</g>
<!-- ASHIGH&#45;&gt;NOTREAT -->
<g id="edge8" class="edge">
<title>ASHIGH&#45;&gt;NOTREAT</title>
<path fill="none" stroke="#000000" d="M940,-212.6383C940,-178.2225 940,-103.2876 940,-62.2533"/>
<polygon fill="#000000" stroke="#000000" points="943.5001,-62.1178 940,-52.1178 936.5001,-62.1179 943.5001,-62.1178"/>
<text text-anchor="middle" x="958.6599" y="-128.2" font-family="Times,serif" font-size="14.00" fill="#000000">maybe</text>
</g>
<!-- NORMAL&#45;&gt;NOTREAT -->
<g id="edge9" class="edge">
<title>NORMAL&#45;&gt;NOTREAT</title>
<path fill="none" stroke="#000000" d="M1170.9481,-214.3594C1126.4626,-179.6184 1022.7318,-98.6096 970.7867,-58.043"/>
<polygon fill="#000000" stroke="#000000" points="972.6477,-55.0554 962.612,-51.6589 968.3392,-60.5724 972.6477,-55.0554"/>
</g>
</g>
</svg>
