<?xml version="1.0" encoding="UTF-8" standalone="no"?>
<!DOCTYPE svg PUBLIC "-//W3C//DTD SVG 1.1//EN"
 "http://www.w3.org/Graphics/SVG/1.1/DTD/svg11.dtd">
<!-- Generated by graphviz version 2.40.1 (20161225.0304)
 -->
<!-- Title: %0 Pages: 1 -->
<svg width="460pt" height="420pt"
 viewBox="0.00 0.00 460.00 420.00" xmlns="http://www.w3.org/2000/svg" xmlns:xlink="http://www.w3.org/1999/xlink">
<g id="graph0" class="graph" transform="scale(1 1) rotate(0) translate(4 416)">
<title>%0</title>
<polygon fill="#ffffff" stroke="transparent" points="-4,4 -4,-416 456,-416 456,4 -4,4"/>
<g id="clust2" class="cluster">
<title>cluster_DIAGNOSE</title>
<polygon fill="none" stroke="#c0c0c0" points="33,-188 33,-264.8 436,-264.8 436,-188 33,-188"/>
<text text-anchor="middle" x="234.5" y="-248.2" font-family="Times,serif" font-size="14.00" fill="#000000">diagnosis</text>
</g>
<g id="clust3" class="cluster">
<title>cluster_TREAT</title>
<polygon fill="none" stroke="#ff0000" points="8,-8 8,-84.8 444,-84.8 444,-8 8,-8"/>
<text text-anchor="middle" x="226" y="-68.2" font-family="Times,serif" font-size="14.00" fill="#000000">treatment</text>
</g>
<!-- MEASURE -->
<g id="node1" class="node">
<title>MEASURE</title>
<ellipse fill="none" stroke="#000000" cx="239" cy="-394" rx="181.1157" ry="18"/>
<text text-anchor="middle" x="239" y="-389.8" font-family="Times,serif" font-size="14.00" fill="#000000">measure blood pressure not arterial stiffness</text>
</g>
<!-- BPHIGH -->
<g id="node2" class="node">
<title>BPHIGH</title>
<ellipse fill="none" stroke="#000000" cx="341" cy="-214" rx="87.406" ry="18"/>
<text text-anchor="middle" x="341" y="-209.8" font-family="Times,serif" font-size="14.00" fill="#000000">blood pressure high</text>
</g>
<!-- MEASURE&#45;&gt;BPHIGH -->
<g id="edge1" class="edge">
<title>MEASURE&#45;&gt;BPHIGH</title>
<path fill="none" stroke="#000000" d="M249.3416,-375.7501C267.4108,-343.8633 304.8024,-277.8781 325.8151,-240.7969"/>
<polygon fill="#000000" stroke="#000000" points="328.8976,-242.4564 330.7827,-232.0306 322.8074,-239.0053 328.8976,-242.4564"/>
</g>
<!-- NORMAL -->
<g id="node3" class="node">
<title>NORMAL</title>
<ellipse fill="none" stroke="#000000" cx="138" cy="-214" rx="97.276" ry="18"/>
<text text-anchor="middle" x="138" y="-209.8" font-family="Times,serif" font-size="14.00" fill="#000000">blood pressure normal</text>
</g>
<!-- MEASURE&#45;&gt;NORMAL -->
<g id="edge2" class="edge">
<title>MEASURE&#45;&gt;NORMAL</title>
<path fill="none" stroke="#000000" d="M228.7598,-375.7501C210.8677,-343.8633 173.8427,-277.8781 153.0361,-240.7969"/>
<polygon fill="#000000" stroke="#000000" points="156.063,-239.0388 148.1172,-232.0306 149.9583,-242.4643 156.063,-239.0388"/>
</g>
<!-- TREAT -->
<g id="node4" class="node">
<title>TREAT</title>
<ellipse fill="none" stroke="#000000" cx="349" cy="-34" rx="87.3789" ry="18"/>
<text text-anchor="middle" x="349" y="-29.8" font-family="Times,serif" font-size="14.00" fill="#000000">treat blood pressure</text>
</g>
<!-- BPHIGH&#45;&gt;TREAT -->
<g id="edge4" class="edge">
<title>BPHIGH&#45;&gt;TREAT</title>
<path fill="none" stroke="#000000" d="M341.8111,-195.7501C343.2103,-164.2686 346.0867,-99.5502 347.7456,-62.2249"/>
<polygon fill="#000000" stroke="#000000" points="351.2511,-62.1762 348.1986,-52.0306 344.258,-61.8653 351.2511,-62.1762"/>
</g>
<!-- NOTREAT -->
<g id="node5" class="node">
<title>NOTREAT</title>
<ellipse fill="none" stroke="#000000" cx="130" cy="-34" rx="114.0305" ry="18"/>
<text text-anchor="middle" x="130" y="-29.8" font-family="Times,serif" font-size="14.00" fill="#000000">do not treat blood pressure</text>
</g>
<!-- NORMAL&#45;&gt;NOTREAT -->
<g id="edge3" class="edge">
<title>NORMAL&#45;&gt;NOTREAT</title>
<path fill="none" stroke="#000000" d="M137.1889,-195.7501C135.7897,-164.2686 132.9133,-99.5502 131.2544,-62.2249"/>
<polygon fill="#000000" stroke="#000000" points="134.742,-61.8653 130.8014,-52.0306 127.7489,-62.1762 134.742,-61.8653"/>
</g>
</g>
</svg>
