<?xml version="1.0" encoding="UTF-8" standalone="no"?>
<!-- Created with Inkscape (http://www.inkscape.org/) -->

<svg
   xmlns:dc="http://purl.org/dc/elements/1.1/"
   xmlns:cc="http://creativecommons.org/ns#"
   xmlns:rdf="http://www.w3.org/1999/02/22-rdf-syntax-ns#"
   xmlns:svg="http://www.w3.org/2000/svg"
   xmlns="http://www.w3.org/2000/svg"
   xmlns:sodipodi="http://sodipodi.sourceforge.net/DTD/sodipodi-0.dtd"
   xmlns:inkscape="http://www.inkscape.org/namespaces/inkscape"
   version="1.1"
   width="820.72858"
   height="777.80054"
   viewBox="0 0 820.72859 777.80052"
   id="svg2"
   xml:space="preserve"
   inkscape:version="0.91 r13725"
   sodipodi:docname="Wiggers_Diagram.svg"><sodipodi:namedview
     pagecolor="#ffffff"
     bordercolor="#666666"
     borderopacity="1"
     objecttolerance="10"
     gridtolerance="10"
     guidetolerance="10"
     inkscape:pageopacity="0"
     inkscape:pageshadow="2"
     inkscape:window-width="1920"
     inkscape:window-height="1177"
     id="namedview101"
     showgrid="false"
     fit-margin-top="0"
     fit-margin-left="0"
     fit-margin-right="0"
     fit-margin-bottom="0"
     inkscape:zoom="1.1655345"
     inkscape:cx="387.89506"
     inkscape:cy="400.97006"
     inkscape:window-x="-8"
     inkscape:window-y="-8"
     inkscape:window-maximized="1"
     inkscape:current-layer="svg2" /><metadata
     id="metadata227"><rdf:RDF><cc:Work
         rdf:about=""><dc:format>image/svg+xml</dc:format><dc:type
           rdf:resource="http://purl.org/dc/dcmitype/StillImage" /><dc:title></dc:title></cc:Work></rdf:RDF></metadata><defs
     id="defs225" /><line
     style="fill:none;stroke:#000000;stroke-width:1;stroke-miterlimit:10"
     id="line19"
     y2="777.80054"
     x2="224.4108"
     y1="167.04451"
     x1="224.4108"
     stroke-miterlimit="10" /><line
     style="fill:none;stroke:#000000;stroke-width:1;stroke-miterlimit:10;stroke-dasharray:6.0018, 6.0018"
     id="line29"
     y2="704.21246"
     x2="243.00879"
     y1="167.04451"
     x1="243.00879"
     stroke-miterlimit="10" /><line
     style="fill:none;stroke:#000000;stroke-width:1;stroke-miterlimit:10"
     id="line21"
     y2="777.80054"
     x2="358.3208"
     y1="167.04451"
     x1="358.3208"
     stroke-miterlimit="10" /><line
     style="fill:none;stroke:#000000;stroke-width:1;stroke-miterlimit:10;stroke-dasharray:6.0018, 6.0018"
     id="line39"
     y2="704.21246"
     x2="376.91879"
     y1="167.04451"
     x1="376.91879"
     stroke-miterlimit="10" /><line
     style="fill:none;stroke:#000000;stroke-width:1;stroke-miterlimit:10;stroke-dasharray:6.0018, 6.0018"
     id="line49"
     y2="704.21246"
     x2="451.31277"
     y1="167.04451"
     x1="451.31277"
     stroke-miterlimit="10" /><line
     style="fill:none;stroke:#000000;stroke-width:1;stroke-miterlimit:10;stroke-dasharray:6.0018, 6.0018"
     id="line59"
     y2="704.21246"
     x2="527.56683"
     y1="167.04451"
     x1="527.56683"
     stroke-miterlimit="10" /><line
     style="fill:none;stroke:#000000;stroke-width:1;stroke-miterlimit:10"
     id="line63"
     y2="777.80054"
     x2="601.69684"
     y1="167.04451"
     x1="601.69684"
     stroke-miterlimit="10" /><path
     d="m 600.48542,248.16249 c -11.66595,0.0501 -36.94061,-2.50798 -74.64261,-9.14198 -37.702,-6.634 -134.11,-28.798 -148.324,-36.832 -11.312,-6.394 -11.124,12.36 -19.776,11.742 -8.652,-0.618 -32.904,-39.732 -56.238,-37.08 -27.192,3.09 -44.498,66.126 -56.856,70.454 -12.358,4.328 -84.826,-3.772 -120.67,-14.278"
     id="path89"
     style="fill:none;stroke:#808080;stroke-width:3;stroke-miterlimit:10"
     inkscape:connector-curvature="0"
     sodipodi:nodetypes="cscscsc" /><path
     d="m 601.69881,381.22651 c -8.884,3.06 -14.372,-13.95 -28.584,-13.95 -25.34,0 -38.86,15.898 -71.528,16.738 -32.668,0.84 -115.414,4.812 -122.212,-6.93 -13.49,-23.3 -7.066,-117.176 -15.474,-149.298 -4.92,-18.8 -34.346,-66.154 -70.43,-55.88 -64.85,18.462 -62.418,207.032 -69.06,209.32 -8.886,3.06 -14.372,-13.95 -28.584,-13.95 -25.338,0 -40.17,16.738 -71.846,16.738"
     id="path93"
     style="fill:none;stroke:#0000ff;stroke-width:3;stroke-miterlimit:10"
     inkscape:connector-curvature="0"
     sodipodi:nodetypes="cssccccsc" /><path
     d="m 599.65069,455.61844 c -11.124,-0.62 -24.06588,-6.89993 -36.42388,-4.42793 -12.358,2.472 -30.618,21.738 -38.62,24.72 -12.914,4.812 -77.296,-1.168 -115.564,23.678 -16.924,10.988 -24.106,54.192 -35.23,54.192 -54.038,0 -67.708,-9.688 -94.554,-45.116 -18.356,-24.22 -31.66,-52.266 -37.7,-55.622 -5.562,-3.09 -12.36,0.62 -23.484,0 -11.124,-0.62 -19.776,-4.326 -32.136,-1.854 -12.36,2.472 -29.198,21.724 -37.082,24.72 -7.884,2.996 -19.204,3.622 -24.878,3.668"
     id="path97"
     style="fill:none;stroke:#ff0000;stroke-width:3;stroke-miterlimit:10"
     inkscape:connector-curvature="0"
     sodipodi:nodetypes="cscssccsssc" /><path
     d="m 602.87881,553.78251 c -4.358,0 -10.244,50.058 -12.6,50.058 -2.236,0 -5.298,-13.598 -9.132,-13.598 l -32.756,0 c -6.796,0 -13.542,-12.976 -22.708,-12.976 -9.166,0 -18.12,12.976 -24.918,12.976 l -125.1,0 c -6.798,0 -31.15,-18.54 -45.116,-18.54 -15.118,0 -40.788,18.54 -47.586,18.54 l -38.316,0 c -4.22,0 -6.812,38.936 -9.99,38.936 -4.326,0 -2.238,-75.396 -9.066,-75.396 -4.358,0 -10.244,50.058 -12.6,50.058 -2.238,0 -5.298,-13.598 -9.132,-13.598 l -32.754,0 c -6.798,0 -12.146,-12.976 -22.776,-12.976 -10.63,0 -16.668,12.976 -23.466,12.976 l -0.456,0 -0.128,0 -0.298,0"
     id="path95"
     style="fill:none;stroke:#000080;stroke-width:3;stroke-miterlimit:10"
     inkscape:connector-curvature="0"
     sodipodi:nodetypes="cssssssssssssssssccc" /><path
     d="m 601.73881,667.83051 -139.218,0 c -3.404,0 -4.334,2.108 -5.926,2.108 -1.68,0 -1.812,-5.892 -3.314,-5.892 -1.946,0 -2.366,9.708 -3.868,9.708 -1.492,0 -1.338,-11.806 -3.284,-11.806 -1.68,0 -1.51,6.152 -3.278,6.152 l -14.612,0 -32.74,0 c -2.388,0 -3.006,-1.936 -4.6,-1.936 -1.658,0 -2.652,4.244 -4.244,4.244 -1.68,0 -2.298,-6.456 -3.802,-6.456 -1.946,0 -2.364,10.636 -3.868,10.636 -1.49,0 -1.084,-12.936 -3.032,-12.936 -1.68,0 -1.15,15.924 -2.918,15.924 -1.768,0 -1.06,-25.12 -3.272,-25.12 -2.122,0 -1.592,31.282 -3.626,31.282 -1.946,0 -2.122,-39.812 -3.714,-39.812 -1.68,0 -2.21,24.172 -3.892,24.172 l -96.864,0 c -2.388,0 -3.006,-1.936 -4.598,-1.936 -1.658,0 -2.654,4.244 -4.246,4.244 -1.68,0 -2.298,-6.456 -3.802,-6.456 -1.946,0 -2.364,10.636 -3.868,10.636 -1.49,0 -1.084,-12.936 -3.032,-12.936 -1.68,0 -1.15,15.924 -2.918,15.924 -1.768,0 -1.06,-25.12 -3.272,-25.12 -2.122,0 -1.592,31.282 -3.626,31.282 -1.946,0 -2.122,-39.812 -3.714,-39.812 -1.68,0 -2.21,23.902 -3.892,23.902 l -101.094,0"
     id="path87"
     style="fill:none;stroke:#808080;stroke-width:3;stroke-miterlimit:10;stroke-opacity:1"
     inkscape:connector-curvature="0"
     sodipodi:nodetypes="csssssscssssssssssssssssssssssc" /><text
     x="61.10231"
     y="268.36594"
     transform="matrix(0.70710678,-0.70710678,0.70710678,0.70710678,0,0)"
     id="text99"
     style="font-size:19.99980736px;font-family:'Nimbus Sans L'">Isovolumic contraction</text>
<text
     x="107.99775"
     y="315.26022"
     transform="matrix(0.70710678,-0.70710678,0.70710678,0.70710678,0,0)"
     id="text103"
     style="font-size:19.99980736px;font-family:'Nimbus Sans L'">Ejection</text>
<text
     x="155.4547"
     y="362.71713"
     transform="matrix(0.70710678,-0.70710678,0.70710678,0.70710678,0,0)"
     id="text101"
     style="font-size:19.99980736px;font-family:'Nimbus Sans L'">Isovolumic relaxation</text>
<text
     x="192.69463"
     y="399.95566"
     transform="matrix(0.70710678,-0.70710678,0.70710678,0.70710678,0,0)"
     id="text201"
     style="font-size:19.99980736px;font-family:'Nimbus Sans L'">Rapid inflow</text>
<text
     x="243.28925"
     y="450.55167"
     transform="matrix(0.70710678,-0.70710678,0.70710678,0.70710678,0,0)"
     id="text199"
     style="font-size:19.99980736px;font-family:'Nimbus Sans L'">Diastasis</text>
<text
     x="295.78568"
     y="503.04654"
     transform="matrix(0.70710678,-0.70710678,0.70710678,0.70710678,0,0)"
     id="text109"
     style="font-size:19.99980736px;font-family:'Nimbus Sans L'">Atrial systole</text>
<text
     x="611.13177"
     y="253.12425"
     id="text151"
     style="font-size:20px;font-family:'Nimbus Sans L';fill:#4d4d4d;">Aortic pressure</text>
<text
     x="605.98389"
     y="365.67401"
     id="text177"
     style="font-size:20px;font-family:'Nimbus Sans L';fill:#4d4d4d;">Left atrial pressure</text>
<text
     x="606.84186"
     y="389.44836"
     id="text179"
     style="font-size:20px;font-family:'Nimbus Sans L';fill:#0000ff">Left ventricular pressure</text>
<text
     x="605.12592"
     y="460.88095"
     id="text181"
     style="font-size:20px;font-family:'Nimbus Sans L';fill:#ff0000;stroke:none">Left ventricular volume</text>
<text
     x="607.69983"
     y="594.53455"
     id="text185"
     style="font-size:20px;font-family:'Nimbus Sans L';fill:#000080">Electrocardiogram</text>
<text
     x="605.98389"
     y="674.25189"
     id="text183"
     style="font-size:20px;font-family:'Nimbus Sans L';fill:#666666;">Phonocardiogram</text>
<text
     x="290.42789"
     y="740.58228"
     id="text4264"
     xml:space="preserve"
     style="font-style:normal;font-size:28px;font-family:'Nimbus Sans L';text-align:start;letter-spacing:0px;word-spacing:0px;writing-mode:lr-tb;text-anchor:start;fill:#000000;stroke:none"><tspan
       x="290.42789"
       y="740.58228"
       id="tspan4266"
       style="font-style:normal;font-size:20px;font-family:'Nimbus Sans L';text-align:center;text-anchor:middle">Systole</tspan></text>
<text
     x="483.41422"
     y="740.34229"
     id="text4272"
     xml:space="preserve"
     style="font-style:normal;font-size:28px;font-family:'Nimbus Sans L';text-align:start;letter-spacing:0px;word-spacing:0px;writing-mode:lr-tb;text-anchor:start;fill:#000000;stroke:none"><tspan
       x="483.41422"
       y="740.34229"
       id="tspan4274"
       style="font-style:normal;font-size:20px;font-family:'Nimbus Sans L';text-align:center;text-anchor:middle">Diastole</tspan></text>
<text
     x="252.1012"
     y="657.54291"
     id="text115"
     style="font-size:20px;font-family:'Nimbus Sans L'">1st</text>
<text
     x="383.6636"
     y="657.54291"
     id="text117"
     style="font-size:20px;font-family:'Nimbus Sans L'">2nd</text>
<text
     x="457.02402"
     y="657.54291"
     id="text119"
     style="font-size:20px;font-family:'Nimbus Sans L'">3rd</text>
<text
     x="126.5532"
     y="571.51544"
     id="text113"
     style="font-size:20px;font-family:'Nimbus Sans L'">P</text>
<text
     x="201.78969"
     y="547.87109"
     id="text121"
     style="font-size:20px;font-family:'Nimbus Sans L'">R</text>
<text
     x="324.15686"
     y="597.58588"
     id="text123"
     style="font-size:20px;font-family:'Nimbus Sans L'">T</text>
<text
     x="195.16469"
     y="626.08185"
     id="text127"
     style="font-size:20px;font-family:'Nimbus Sans L'">Q</text>
<text
     x="244.17244"
     y="636.99603"
     id="text125"
     style="font-size:20px;font-family:'Nimbus Sans L'">S</text>
<text
     x="181.87422"
     y="354.66592"
     id="text111"
     style="font-size:20px;font-family:'Nimbus Sans L';fill:#000000;">a</text>
<text
     x="250.94441"
     y="354.66592"
     id="text129"
     style="font-size:20px;font-family:'Nimbus Sans L'">c</text>
<text
     x="341.88782"
     y="354.66592"
     id="text131"
     style="font-size:20px;font-family:'Nimbus Sans L';fill:#000000;">v</text>
<text
     x="-283.36594"
     y="14.560547"
     transform="matrix(0,-1,1,0,0,0)"
     id="text4318"
     xml:space="preserve"
     style="font-style:normal;font-size:28px;font-family:'Nimbus Sans L';text-align:start;letter-spacing:0px;word-spacing:0px;writing-mode:lr-tb;text-anchor:start;fill:#000000;stroke:none"><tspan
       x="-283.36594"
       y="14.560547"
       id="tspan4320"
       style="font-style:normal;font-size:20px;font-family:'Nimbus Sans L';text-align:center;text-anchor:middle">Pressure (mmHg)</tspan></text>
<text
     x="71.87262"
     y="189.4081"
     id="text155"
     style="font-style:normal;font-size:20px;font-family:'Nimbus Sans L';text-align:end;writing-mode:lr-tb;text-anchor:end;fill:#000000"><tspan
       id="tspan4195"
       style="text-align:end;writing-mode:lr-tb;text-anchor:end">120</tspan></text>
<text
     x="71.87262"
     y="222.42671"
     id="text157"
     style="font-style:normal;font-size:20px;font-family:'Nimbus Sans L';text-align:end;writing-mode:lr-tb;text-anchor:end;fill:#000000"><tspan
       id="tspan3094"
       style="text-align:end;writing-mode:lr-tb;text-anchor:end">100</tspan></text>
<text
     x="71.87262"
     y="255.44527"
     id="text159"
     style="font-style:normal;font-size:20px;font-family:'Nimbus Sans L';text-align:end;writing-mode:lr-tb;text-anchor:end;fill:#000000"><tspan
       id="tspan3096"
       style="text-align:end;writing-mode:lr-tb;text-anchor:end">80</tspan></text>
<text
     x="71.87262"
     y="288.4639"
     id="text161"
     style="font-style:normal;font-size:20px;font-family:'Nimbus Sans L';text-align:end;writing-mode:lr-tb;text-anchor:end;fill:#000000"><tspan
       id="tspan3098"
       style="text-align:end;writing-mode:lr-tb;text-anchor:end">60</tspan></text>
<text
     x="71.87262"
     y="321.48233"
     id="text163"
     style="font-style:normal;font-size:20px;font-family:'Nimbus Sans L';text-align:end;writing-mode:lr-tb;text-anchor:end;fill:#000000"><tspan
       id="tspan3100"
       style="text-align:end;writing-mode:lr-tb;text-anchor:end">40</tspan></text>
<text
     x="71.87262"
     y="354.5029"
     id="text165"
     style="font-style:normal;font-size:20px;font-family:'Nimbus Sans L';text-align:end;writing-mode:lr-tb;text-anchor:end;fill:#000000"><tspan
       id="tspan3102"
       style="text-align:end;writing-mode:lr-tb;text-anchor:end">20</tspan></text>
<text
     x="71.87262"
     y="387.52151"
     id="text167"
     style="font-style:normal;font-size:20px;font-family:'Nimbus Sans L';text-align:end;writing-mode:lr-tb;text-anchor:end;fill:#000000"><tspan
       id="tspan3104"
       style="text-align:end;writing-mode:lr-tb;text-anchor:end">0</tspan></text>
<text
     x="-501.53317"
     y="14.680542"
     transform="matrix(0,-1,1,0,0,0)"
     id="text4314"
     xml:space="preserve"
     style="font-style:normal;font-size:28px;font-family:'Nimbus Sans L';text-align:start;letter-spacing:0px;word-spacing:0px;writing-mode:lr-tb;text-anchor:start;fill:#000000;stroke:none"><tspan
       x="-501.53317"
       y="14.680542"
       id="tspan4316"
       style="font-style:normal;font-size:20px;font-family:'Nimbus Sans L';text-align:center;text-anchor:middle">Volume (mL)</tspan></text>
<text
     x="71.87262"
     y="460.64828"
     id="text171"
     style="font-style:normal;font-size:20px;font-family:'Nimbus Sans L';text-align:end;writing-mode:lr-tb;text-anchor:end;fill:#000000"><tspan
       id="tspan3106"
       style="text-align:end;writing-mode:lr-tb;text-anchor:end">130</tspan></text>
<text
     x="71.87262"
     y="510.50772"
     id="text173"
     style="font-style:normal;font-size:20px;font-family:'Nimbus Sans L';text-align:end;writing-mode:lr-tb;text-anchor:end;fill:#000000"><tspan
       id="tspan3108"
       style="text-align:end;writing-mode:lr-tb;text-anchor:end">90</tspan></text>
<text
     x="71.87262"
     y="560.36328"
     id="text175"
     style="font-style:normal;font-size:20px;font-family:'Nimbus Sans L';text-align:end;writing-mode:lr-tb;text-anchor:end;fill:#000000"><tspan
       id="tspan3110"
       style="text-align:end;writing-mode:lr-tb;text-anchor:end">50</tspan></text>
<g
     id="g3467"
     transform="translate(-33.051162,-43.577485)"><line
       style="fill:none;stroke:#000000;stroke-width:1;stroke-miterlimit:10"
       id="line205"
       y2="258.90198"
       x2="117.13397"
       y1="258.90198"
       x1="108.05998"
       stroke-miterlimit="10" /><line
       style="fill:none;stroke:#000000;stroke-width:1;stroke-miterlimit:10"
       id="line207"
       y2="291.89801"
       x2="117.13397"
       y1="291.89801"
       x1="108.05998"
       stroke-miterlimit="10" /><line
       style="fill:none;stroke:#000000;stroke-width:1;stroke-miterlimit:10"
       id="line209"
       y2="324.89197"
       x2="117.13397"
       y1="324.89197"
       x1="108.05998"
       stroke-miterlimit="10" /><line
       style="fill:none;stroke:#000000;stroke-width:1;stroke-miterlimit:10"
       id="line211"
       y2="357.888"
       x2="117.13397"
       y1="357.888"
       x1="108.05998"
       stroke-miterlimit="10" /><line
       style="fill:none;stroke:#000000;stroke-width:1;stroke-miterlimit:10"
       id="line213"
       y2="390.88397"
       x2="117.13397"
       y1="390.88397"
       x1="108.05998"
       stroke-miterlimit="10" /><polyline
       transform="matrix(2,0,0,2,-77.710025,-410.07)"
       style="fill:none;stroke:#000000;stroke-width:0.5;stroke-miterlimit:10"
       id="polyline215"
       points="92.885,416.975 97.422,416.975 97.422,317.989 92.885,317.989 "
       stroke-miterlimit="10" /></g><g
     id="g3463"
     transform="translate(-33.051162,-43.577485)"><line
       style="fill:none;stroke:#000000;stroke-width:1;stroke-miterlimit:10"
       id="line219"
       y2="546.67999"
       x2="117.13397"
       y1="546.67999"
       x1="108.05998"
       stroke-miterlimit="10" /><polyline
       transform="matrix(2,0,0,2,-77.710025,-410.07)"
       style="fill:none;stroke:#000000;stroke-width:0.5;stroke-miterlimit:10"
       id="polyline221"
       points="92.885,503.329 97.422,503.329 97.422,453.423 92.885,453.423 "
       stroke-miterlimit="10" /></g><text
     x="214.97304"
     y="181.03397"
     id="text3118"
     xml:space="preserve"
     style="font-style:normal;font-size:28px;font-family:'Nimbus Sans L';text-align:start;letter-spacing:0px;word-spacing:0px;writing-mode:lr-tb;text-anchor:start;fill:#000000;stroke:none;"><tspan
       x="214.97304"
       y="181.03397"
       id="tspan3120"
       style="font-style:normal;font-size:16px;font-family:'Nimbus Sans L';text-align:end;writing-mode:lr-tb;text-anchor:end;fill:#000000;">Aortic valve</tspan><tspan
       x="214.97304"
       y="201.03395"
       id="tspan3122"
       style="font-style:normal;font-size:16px;font-family:'Nimbus Sans L';text-align:end;writing-mode:lr-tb;text-anchor:end;fill:#000000;">opens</tspan></text>
<text
     x="396.95587"
     y="249.35448"
     id="text3904"
     xml:space="preserve"
     style="font-style:normal;font-size:28px;font-family:'Nimbus Sans L';text-align:start;letter-spacing:0px;word-spacing:0px;writing-mode:lr-tb;text-anchor:start;fill:#000000;stroke:none;"><tspan
       x="396.95587"
       y="249.35448"
       id="tspan3906"
       style="font-style:normal;font-size:16px;font-family:'Nimbus Sans L';text-align:start;writing-mode:lr-tb;text-anchor:start;fill:#000000;">Aortic valve</tspan><tspan
       x="396.95587"
       y="269.35449"
       id="tspan3908"
       style="font-style:normal;font-size:16px;font-family:'Nimbus Sans L';text-align:start;writing-mode:lr-tb;text-anchor:start;fill:#000000;">closes</tspan></text>
<text
     x="214.97304"
     y="313.60251"
     id="text3892"
     xml:space="preserve"
     style="font-style:normal;font-size:28px;font-family:'Nimbus Sans L';text-align:start;letter-spacing:0px;word-spacing:0px;writing-mode:lr-tb;text-anchor:start;fill:#000000;stroke:none;"><tspan
       x="214.97304"
       y="313.60251"
       id="tspan3894"
       style="font-style:normal;font-size:16px;font-family:'Nimbus Sans L';text-align:end;writing-mode:lr-tb;text-anchor:end;fill:#000000;">Mitral valve</tspan><tspan
       x="214.97304"
       y="333.60251"
       id="tspan3896"
       style="font-style:normal;font-size:16px;font-family:'Nimbus Sans L';text-align:end;writing-mode:lr-tb;text-anchor:end;fill:#000000;">closes</tspan></text>
<text
     x="396.95587"
     y="310.37689"
     id="text3898"
     xml:space="preserve"
     style="font-style:normal;font-size:28px;font-family:'Nimbus Sans L';text-align:start;letter-spacing:0px;word-spacing:0px;writing-mode:lr-tb;text-anchor:start;fill:#000000;stroke:none;"><tspan
       x="396.95587"
       y="310.37689"
       id="tspan3900"
       style="font-style:normal;font-size:16px;font-family:'Nimbus Sans L';text-align:start;writing-mode:lr-tb;text-anchor:start;fill:#000000;">Mitral valve</tspan><tspan
       x="396.95587"
       y="330.37689"
       id="tspan3902"
       style="font-style:normal;font-size:16px;font-family:'Nimbus Sans L';text-align:start;writing-mode:lr-tb;text-anchor:start;fill:#000000;">opens</tspan></text>
<path
     d="m 207.8818,207.82072 34.85497,39.00547 0,0"
     id="path3971-3"
     style="fill:#000000;stroke:#000000;stroke-width:1;stroke-linecap:butt;stroke-linejoin:miter;stroke-miterlimit:4;stroke-dasharray:0.99999998, 0.99999998000000001;stroke-dashoffset:0;stroke-opacity:1"
     inkscape:connector-curvature="0" /><path
     d="m 358.84639,213.51794 61.8526,21.38527 0,0"
     id="path3971-4"
     style="fill:#000000;stroke:#000000;stroke-width:1;stroke-linecap:butt;stroke-linejoin:miter;stroke-miterlimit:4;stroke-dasharray:0.99999998, 0.99999998000000001;stroke-dashoffset:0;stroke-opacity:1"
     inkscape:connector-curvature="0" /><path
     d="m 207.66968,336.53339 15.56436,43.0614 0,0"
     id="path3971"
     style="fill:#000000;stroke:#000000;stroke-width:1;stroke-linecap:butt;stroke-linejoin:miter;stroke-miterlimit:4;stroke-dasharray:0.99999998, 0.99999998000000001;stroke-dashoffset:0;stroke-opacity:1"
     inkscape:connector-curvature="0" /><path
     d="m 421.91904,335.77517 -45.41516,27.97586 0,0"
     id="path3971-0"
     style="fill:#000000;stroke:#000000;stroke-width:1;stroke-linecap:butt;stroke-linejoin:miter;stroke-miterlimit:4;stroke-dasharray:0.99999998, 0.99999998000000001;stroke-dashoffset:0;stroke-opacity:1"
     inkscape:connector-curvature="0" /><path
     d="m 601.69881,381.22651 c -10.044,0 -16.224,-20.826 -37.856,-20.826 -15.138,0 -25.122,11.854 -44.152,14.004 -19.03,2.15 -85.606,0.828 -110.034,0.828 -24.102,0 -31.518,-9.888 -35.226,-9.888 -5.562,0 -66.746,15.452 -90.23,15.452 -27.368,0 -32.136,-13.596 -39.552,-13.596 -8.034,0 -12.36,14.028 -20.238,14.028 -10.044,0 -16.224,-20.826 -37.856,-20.826 -18.31,0 -40.946,18.362 -62.576,12.798"
     id="path91"
     style="fill:none;stroke:#808080;stroke-width:3;stroke-miterlimit:10"
     inkscape:connector-curvature="0"
     sodipodi:nodetypes="cssssssssc" /></svg>